<svg width="16" height="16" viewBox="0 0 16 16" fill="none" xmlns="http://www.w3.org/2000/svg">
<path d="M13.6568 2.34321C12.9147 1.5992 12.0329 1.00918 11.0621 0.607058C10.0912 0.204932 9.05047 -0.00137041 7.99964 6.85061e-06C3.58129 6.85061e-06 5.73369e-06 3.58201 5.73369e-06 7.99964C-0.00125407 9.05045 0.205102 10.0912 0.607221 11.062C1.00934 12.0328 1.5993 12.9146 2.34321 13.6568C3.0853 14.4008 3.9671 14.9908 4.93794 15.3929C5.90879 15.7951 6.94953 16.0014 8.00036 16C12.4187 16 16 12.418 16 8.00036C16.0013 6.94955 15.7949 5.90884 15.3928 4.93801C14.9907 3.96719 14.4007 3.08537 13.6568 2.34321ZM8.00036 14.9278C4.18032 14.9278 1.07296 11.8197 1.07296 8.00036C1.07296 4.18103 4.18103 1.07296 8.00036 1.07296C11.8197 1.07296 14.9278 4.18103 14.9278 8.00036C14.9278 11.8197 11.8197 14.9278 8.00036 14.9278Z" fill="black"/>
<path d="M6.79444 9.67734L4.33472 7.21762L3.57629 7.97605L6.79444 11.1942L12.4073 5.58138L11.6488 4.82295L6.79444 9.67734Z" fill="black"/>
</svg>
