<svg width="230" height="145" viewBox="0 0 230 145" fill="none" xmlns="http://www.w3.org/2000/svg">
<path d="M75.967 45.4207C72.3531 44.4004 68.2352 45.6173 67.8418 48.6781L71.4557 52.2798C72.5498 49.0223 72.7587 50.2393 77.0734 51.4685C81.388 52.6978 79.581 46.4409 75.967 45.4207Z" fill="#FF9D66"/>
<path d="M70.485 46.5762C69.9153 46.2958 69.2847 46.1618 68.6502 46.1862C68.0157 46.2106 67.3973 46.3926 66.8508 46.7159C66.3042 47.0392 65.8469 47.4935 65.5199 48.0378C65.193 48.5822 65.0067 49.1993 64.978 49.8337L67.4365 53.4353C68.1863 50.1778 68.3216 51.3948 71.2472 52.624C74.1727 53.8532 72.9312 47.5965 70.485 46.5762Z" fill="#FF9D66"/>
<path d="M67.5592 49.5632C66.9903 49.2822 66.3602 49.1477 65.7262 49.172C65.0922 49.1962 64.4743 49.3784 63.9285 49.702C63.3827 50.0255 62.9264 50.4802 62.6009 51.0248C62.2754 51.5694 62.091 52.1867 62.0645 52.8206L64.5229 56.4223C65.2728 53.1648 65.408 54.3818 68.3213 55.611C71.2346 56.8402 70.0053 50.5834 67.5592 49.5632Z" fill="#FF9D66"/>
<path d="M84.5467 49.6984C83.4527 48.5429 81.2892 42.0894 80.1337 39.6432C78.9782 37.1971 76.8025 38.6967 76.3231 40.0489C75.8437 41.4011 78.3637 44.4741 77.958 47.5226L84.5467 49.6984Z" fill="#FF9D66"/>
<path d="M75.1066 59.8149C69.2677 57.7867 66.8215 55.402 66.4036 52.9558C65.9856 50.5097 71.4311 44.8798 74.7009 45.0764C77.9707 45.2731 86.3786 51.0628 86.3786 51.0628L75.1066 59.8149Z" fill="#FF9D66"/>
<path d="M58.6711 15.0095H51.1235L54.2581 59.3603L62.58 60.3806L58.6711 15.0095Z" fill="#EFCFA5"/>
<path d="M121.731 100.158C108.8 86.6369 68.874 63.5887 60.4661 62.6914C49.9438 61.5482 22.79 140.305 22.79 140.305H25.3714L62.8877 96.8887C62.8877 96.8887 82.7152 111.148 89.6235 114.602C96.5318 118.056 129.18 107.989 121.731 100.158Z" fill="#443036"/>
<path d="M61.1919 14.9603L63.9085 55.353L100.503 77.1842L98.5975 82.0642L61.1305 59.1144L57.3936 14.9603H61.1919Z" fill="#F9DEB7"/>
<path d="M31.6655 144.288H220.82C220.82 144.288 247.863 75.5983 209.118 46.7113C156.74 7.6217 99.7159 90.9638 99.7159 90.9638C99.7159 90.9638 34.8738 68.813 31.6655 144.288Z" fill="#BAC6F2"/>
<path d="M116.262 98.1057C104.842 83.8343 67.4858 59.6552 59.2007 58.7087C48.8014 57.4795 12.834 140.305 12.834 140.305H15.3662L57.7503 94.6638C57.7503 94.6638 75.992 109.661 82.507 113.274C89.0219 116.888 122.838 106.329 116.262 98.1057Z" fill="#6B4752"/>
<path d="M64.941 62.6544C57.0125 63.1092 27.142 118.314 14.063 140.305H15.366L57.75 94.6637C57.75 94.6637 75.9918 109.66 82.5067 113.274C89.0217 116.888 126.587 104.522 119.998 96.2985C114.946 89.9803 100.933 81.7567 90.4968 74.4182C79.1386 68.1368 69.2187 62.3962 64.941 62.6544Z" fill="#5B3945"/>
<path d="M114.995 87.3867C125.321 84.289 125.923 62.3595 121.363 58.2416C120.072 57.0738 77.2453 47.1785 77.2453 47.1785L74.6147 57.0984C74.6147 57.0984 106.685 89.8943 114.995 87.3867Z" fill="#FFBB83"/>
<path d="M121.363 58.2416C121.193 58.1268 121.006 58.0397 120.809 57.9835C119.506 64.3018 80.8101 47.0556 76.8028 46.7114L74.6147 57.0862C74.6147 57.0862 106.685 89.8944 114.995 87.3868C125.321 84.2891 125.923 62.3596 121.363 58.2416Z" fill="#FF9D66"/>
<path d="M121.362 58.2417C143.009 61.7081 153.224 46.7729 164.016 44.7201C172.732 43.0238 179.529 44.1547 180.119 48.0022C180.71 51.8497 177.661 65.445 165.578 74.529C153.494 83.6131 114.995 87.436 114.995 87.436L121.362 58.2417Z" fill="#FFBE4A"/>
<path d="M180.12 47.9529C179.812 45.9861 173.396 43.6506 166.057 45.0765C156.223 46.9818 132.499 70.8904 126.857 58.598C126.218 58.5243 122.014 58.3645 121.362 58.2662L114.995 87.4113C114.995 87.4113 153.47 83.5761 165.578 74.5043C177.686 65.4326 180.697 51.8004 180.12 47.9529Z" fill="#FF9C39"/>
<path d="M114.454 81.7445L119.924 58.2784C119.98 58.04 120.083 57.8152 120.227 57.617C120.371 57.4189 120.553 57.2514 120.763 57.1244C120.972 56.9974 121.205 56.9133 121.447 56.8772C121.689 56.8411 121.936 56.8536 122.174 56.914L123.895 57.3565C124.3 57.4566 124.659 57.6909 124.913 58.0214C125.168 58.3518 125.303 58.7588 125.296 59.1758L124.94 81.6708L114.454 81.7445Z" fill="#724789"/>
<path d="M122.997 63.7363C121.387 63.7363 120.059 61.6343 119.789 58.8193L114.454 81.7077L124.94 81.6339L125.247 62.0522C125.055 62.5076 124.746 62.9036 124.351 63.1996C123.955 63.4957 123.488 63.6809 122.997 63.7363Z" fill="#54306B"/>
<path d="M184.189 44.3021C192.548 58.6104 193.605 76.7293 176.568 96.1635C159.53 115.598 127.865 105.727 127.865 105.727L107.239 83.9326C139.691 71.8001 155.671 38.3895 184.189 44.3021Z" fill="#FFBE4A"/>
<path d="M138.572 69.7103C138.572 69.7103 160.698 54.4063 165.382 53.8654C170.065 53.3246 154.601 67.387 154.601 67.387L138.572 69.7103Z" fill="#FF9C39"/>
<path d="M125.087 97.0115C135.216 93.3238 134.515 71.3697 129.709 67.5099C128.345 66.4158 85.0142 59.0896 85.0142 59.0896L82.9736 69.1202C82.9736 69.1202 116.937 99.9985 125.087 97.0115Z" fill="#FFBB83"/>
<path d="M129.709 67.5346C129.533 67.4324 129.342 67.3578 129.143 67.3134C128.209 73.6931 115.622 77.1472 101.019 75.0206C94.679 74.2185 88.5575 72.1849 82.998 69.0343V69.1695C82.998 69.1695 116.962 99.9987 125.112 97.0117C135.216 93.2994 134.515 71.3698 129.709 67.5346Z" fill="#FF9D66"/>
<path d="M129.709 67.5347C151.515 69.7104 165.59 51.5546 170.544 50.1533C179.087 47.7563 186.93 49.9689 187.753 53.7795C188.577 57.5901 186.401 71.333 174.809 81.1177C163.218 90.9024 125.087 97.0117 125.087 97.0117L129.709 67.5347Z" fill="#FFBE4A"/>
<path d="M187.753 53.7795C187.335 51.8373 185.098 50.2147 181.853 49.6001C177.354 48.7519 169.917 60.6632 161.841 66.8094C147.189 77.9463 136.027 72.8695 135.216 67.5224C134.577 67.5224 130.299 67.5838 129.709 67.5224L125.087 97.024C125.087 97.024 163.267 90.8778 174.809 81.13C186.352 71.3821 188.565 57.5778 187.753 53.7795Z" fill="#FF9C39"/>
<path d="M124.214 91.4063L128.442 67.891C128.475 67.7022 128.545 67.5218 128.648 67.3607C128.752 67.1995 128.887 67.0609 129.045 66.953C129.204 66.8452 129.382 66.7703 129.57 66.733C129.758 66.6956 129.951 66.6965 130.139 66.7355L132.597 67.1903C132.916 67.2556 133.204 67.4252 133.415 67.6723C133.627 67.9194 133.75 68.2299 133.765 68.5548L134.675 90.7794L124.214 91.4063Z" fill="#724789"/>
<path d="M133.999 74.0988C133.495 78.7453 132.069 82.1011 130.397 82.1011C128.922 82.1011 127.656 79.5197 127.017 75.7582L124.214 91.4064L134.675 90.7303L133.999 74.0988Z" fill="#54306B"/>
<path d="M199.677 41.8559C185.811 39.6802 152.118 81.5233 152.118 81.5233C152.118 81.5233 123.845 82.4821 101.891 100.687C94.7864 95.2661 78.4007 87.2515 63.8711 90.3492C50.4233 93.2256 36.828 110.902 35.0456 121.338C32.1569 138.363 55.9426 138.978 71.9226 137.318C105.112 133.815 154.097 125.837 181.411 108.136C237.882 71.5788 199.677 41.8559 199.677 41.8559Z" fill="#CAD3F4"/>
<path d="M25.9983 144.288H16.3979C16.3979 144.288 22.286 139.666 24.2527 139.371C26.2195 139.076 25.9983 144.288 25.9983 144.288Z" fill="#D8BE98"/>
<path d="M15.2179 144.288H0C0 144.288 11.1369 139.666 13.9518 139.371C16.7668 139.076 15.2179 144.288 15.2179 144.288Z" fill="#EFDCBB"/>
<path d="M185.074 45.9001C184.779 45.3592 184.496 44.8307 184.189 44.3021C180.514 43.5284 176.73 43.416 173.015 43.9702C169.998 43.8172 166.974 44.0526 164.017 44.6709C163.254 44.8282 162.502 45.0377 161.768 45.2978C162.874 48.1619 168.959 49.6862 176.002 48.7397C179.176 48.3629 182.252 47.4 185.074 45.9001Z" fill="#724789"/>
<path d="M185.479 27.0559L184.25 44.2652C175.572 46.5393 169.942 46.9326 167.778 45.1994L172.13 29.8586L185.479 27.0559Z" fill="#ED7656"/>
<path d="M162.862 38.918C170.053 40.2701 181.165 39.4834 183.759 32.2555C186.611 24.3762 192.105 5.21238 181.854 3.58979C165.025 1.0084 163.944 28.4572 162.862 38.918Z" fill="#FFBB83"/>
<path d="M184.667 38.6967C184.667 38.6967 197.169 18.525 195.804 12.2068C194.44 5.88849 181.816 -2.39658 172.916 0.651918L173.936 5.00342C173.936 5.00342 182.701 4.3888 184.323 10.8423C185.946 17.2958 179.714 25.925 179.714 25.925L184.458 29.8585L184.667 38.6967Z" fill="#6B4752"/>
<path d="M186.401 28.1622C188.159 25.9373 188.687 23.4296 187.63 22.5569C186.573 21.6841 184.213 22.7781 182.455 25.0153C180.697 27.2525 180.156 29.7479 181.226 30.6206C182.295 31.4934 184.618 30.3748 186.401 28.1622Z" fill="#FFBB83"/>
<path d="M185.443 27.4247C186.377 26.1955 186.672 24.9048 186.082 24.4377C185.492 23.9706 184.263 24.5483 183.316 25.7407C182.37 26.933 182.087 28.2606 182.689 28.7154C183.292 29.1702 184.509 28.5556 185.443 27.4247Z" fill="#ED7656"/>
<path d="M184.619 27.0067C185.295 26.1462 185.504 25.1752 185.074 24.831C184.644 24.4868 183.746 24.917 183.058 25.7775C182.37 26.6379 182.173 27.6213 182.591 27.9655C183.009 28.3097 183.943 27.8795 184.619 27.0067Z" fill="#FFBB83"/>
<path d="M161.3 87.4605C161.3 87.4605 180.685 113.373 152.793 121.695L203.192 114.811L207.9 84.3875C185.024 103.945 161.3 87.4605 161.3 87.4605Z" fill="#BAC6F2"/>
<path d="M74.9102 55.0947C75.8813 52.5625 81.3391 51.9356 83.0231 53.3738C84.7072 54.812 81.3882 58.5612 81.3882 58.5612L74.9102 55.0947Z" fill="#FFBB83"/>
<path d="M71.7876 56.5207C72.6481 53.8532 77.6265 52.6732 79.163 53.9516C80.6995 55.23 77.737 59.3725 77.737 59.3725L71.7876 56.5207Z" fill="#FFBB83"/>
<path d="M85.7639 70.3495C80.9161 68.8779 76.7366 65.7552 73.951 61.5236C73.8403 61.3392 75.9177 53.0296 80.8716 52.919C85.8254 52.8083 91.0619 60.1223 91.0619 60.1223L85.7639 70.3495Z" fill="#FFBB83"/>
<path d="M68.8496 58.3276C70.0788 55.8077 75.1679 55.3406 76.5323 56.828C77.8968 58.3153 74.3566 61.9908 74.3566 61.9908L68.8496 58.3276Z" fill="#FFBB83"/>
<path d="M174.268 19.5085C174.182 18.562 174.588 17.7506 175.178 17.6892C175.768 17.6277 176.284 18.353 176.407 19.2995C176.53 20.246 176.075 21.045 175.498 21.1065C174.92 21.1679 174.342 20.4427 174.268 19.5085Z" fill="#604748"/>
<path d="M175.019 13.94L178.522 15.4396C178.59 15.4664 178.652 15.5068 178.704 15.5583C178.756 15.6098 178.797 15.6713 178.825 15.7391C178.853 15.8069 178.866 15.8796 178.865 15.9528C178.863 16.026 178.847 16.0982 178.817 16.1649L178.326 17.222C178.257 17.3557 178.14 17.4581 177.998 17.5083C177.856 17.5586 177.701 17.5529 177.563 17.4925L174.109 15.9928C174.041 15.966 173.979 15.9256 173.927 15.8741C173.875 15.8227 173.834 15.7612 173.806 15.6934C173.779 15.6256 173.765 15.5528 173.767 15.4796C173.768 15.4065 173.784 15.3343 173.814 15.2675L174.306 14.2227C174.373 14.1001 174.481 14.0048 174.612 13.9532C174.742 13.9016 174.886 13.8969 175.019 13.94Z" fill="#6B4752"/>
<path d="M166.869 18.2546C166.967 17.3081 167.52 16.5828 168.098 16.632C168.676 16.6812 169.069 17.4802 168.971 18.4267C168.872 19.3732 168.332 20.0861 167.742 20.0493C167.152 20.0124 166.734 19.2011 166.869 18.2546Z" fill="#604748"/>
<path d="M165.836 13.3623L169.585 12.7599C169.658 12.744 169.733 12.7433 169.807 12.7579C169.88 12.7725 169.949 12.8021 170.01 12.8448C170.072 12.8875 170.123 12.9425 170.162 13.0061C170.201 13.0698 170.226 13.1408 170.237 13.2147L170.409 14.358C170.426 14.5076 170.385 14.6581 170.293 14.7775C170.201 14.8969 170.066 14.9757 169.917 14.9971L166.168 15.5995C166.095 15.6154 166.02 15.6161 165.946 15.6015C165.873 15.5869 165.804 15.5573 165.743 15.5146C165.681 15.4719 165.63 15.417 165.591 15.3533C165.552 15.2896 165.527 15.2186 165.516 15.1447L165.344 14.0015C165.327 13.8519 165.368 13.7013 165.46 13.5819C165.552 13.4625 165.687 13.3837 165.836 13.3623Z" fill="#6B4752"/>
<path d="M170.765 18.7832C168.737 21.4875 167.729 23.3191 168.307 24.3148C168.523 24.5886 168.807 24.8017 169.13 24.9331C169.453 25.0646 169.805 25.1099 170.151 25.0646C170.151 25.0646 167.901 25.5563 167.213 24.5852C166.525 23.6141 167.963 21.758 170.765 18.7832Z" fill="#ED7656"/>
<path d="M165.308 28.113H172.684C172.503 29.061 172.041 29.9323 171.356 30.6124C170.672 31.2925 169.797 31.7496 168.848 31.9236C165.357 32.7718 165.308 28.113 165.308 28.113Z" fill="#422931"/>
<path d="M166.316 30.2519C166.086 29.6801 165.957 29.073 165.935 28.4573H171.872C171.766 29.0769 171.499 29.6578 171.097 30.1413L166.316 30.2519Z" fill="#FFEFDC"/>
</svg>
