<svg width="233" height="200" viewBox="0 0 233 200" fill="none" xmlns="http://www.w3.org/2000/svg">
<path d="M51.9452 23.8441H10.5015V48.4011H51.9452V23.8441Z" fill="#59373E"/>
<path d="M49.3148 105.948H7.87109V112.896H49.3148V105.948Z" fill="#59373E"/>
<path d="M100.497 23.8441H104L94.5029 199.558H90.999L100.497 23.8441Z" fill="#59373E"/>
<path d="M9.49754 23.8441H13.0014L3.49384 199.558H0L9.49754 23.8441Z" fill="#59373E"/>
<path d="M21.7458 90.7986H18.252L27.7495 199.558H31.2433L21.7458 90.7986Z" fill="#724A50"/>
<path d="M112.755 90.7986H109.251L118.749 199.558H122.253L112.755 90.7986Z" fill="#724A50"/>
<path d="M106.621 23.8441H12.3687L21.8762 132.604H116.129L106.621 23.8441Z" fill="#724A50"/>
<path d="M102.846 25.7314H16.9966L25.6508 124.803H111.5L102.846 25.7314Z" fill="#FFF4D7"/>
<path d="M74.8953 39.285C84.9786 39.2585 94.9897 40.9842 104.482 44.3851L102.846 25.7314H16.9966L19.9482 59.5651C33.3913 47.136 53.0089 39.285 74.8953 39.285Z" fill="#FFF7E6"/>
<path d="M34.0347 108.017L55.9914 69.6954L65.509 88.8812L78.5505 63.762L82.9579 68.7416L94.0819 37.7291L84.5643 74.0024L78.7011 67.0249L67.527 95.8387L56.654 78.2592L38.3116 118.087L38.8336 107.967L34.0347 108.017Z" fill="#E24062"/>
<path d="M89.313 43.5018L92.5357 42.9396L94.3127 47.0458L96.0898 33.181L89.313 43.5018Z" fill="#E24062"/>
<path d="M45.7056 111.411L45.6855 113.147L103.38 113.812L103.4 112.075L45.7056 111.411Z" fill="#E24062"/>
<path d="M30.4419 38.7064L28.7139 38.8813L34.6287 97.3147L36.3567 97.1398L30.4419 38.7064Z" fill="#E24062"/>
<path d="M177.491 6.46554C176.261 4.53382 175.613 2.28959 175.623 0C179.278 0.210833 183.795 3.88534 183.795 3.88534C192.731 5.2407 191.697 11.0135 191.697 11.0135C194.267 13.3929 191.335 20.5311 191.335 20.5311C191.335 20.5311 191.827 25.7618 185.944 28.4223L176.296 19.6075C176.571 17.3757 177.065 15.1764 177.772 13.0415C176.286 8.92525 177.491 6.46554 177.491 6.46554Z" fill="#873725"/>
<path d="M178.054 198.845H177.411L163.817 134.702L162.231 134.11L121.44 198.845H120.597L147.192 100.115C147.192 100.115 188.224 105.186 188.214 105.898C187.28 154.39 178.054 198.845 178.054 198.845Z" fill="#60454B"/>
<path d="M184.258 159.349C186.477 141.614 187.798 123.777 188.214 105.908C188.214 105.195 147.192 100.125 147.192 100.125L142.804 116.44C147.342 111.259 184.328 109.774 184.258 159.349Z" fill="#51383F"/>
<path d="M162.352 76.442C156.659 90.879 143.949 90.7585 141.409 90.1361C136.841 89.0217 137.855 77.9379 140.525 71.8338C143.196 65.7296 158.416 43.9034 163.747 42.2971C169.078 40.6908 164.209 71.6129 162.352 76.442Z" fill="#FFBE4A"/>
<path d="M165.755 44.6262C165.243 49.4854 161.648 56.1718 155.835 62.2559C150.595 67.7576 144.792 71.4823 140.133 72.6971C137.734 78.9217 137.011 89.0718 141.368 90.136C143.908 90.7584 156.619 90.8789 162.311 76.4419C163.837 72.5565 167.261 51.7343 165.755 44.6262Z" fill="#FFA73E"/>
<path d="M151.834 78.5771C152.154 70.6435 148.816 64.0669 144.378 63.8879C139.941 63.7088 136.084 69.9952 135.764 77.9288C135.444 85.8625 138.782 92.4391 143.219 92.6181C147.657 92.7971 151.514 86.5107 151.834 78.5771Z" fill="#E24062"/>
<path d="M186.497 85.6383C187.019 99.8846 196.868 104.553 198.966 105.035C202.721 105.908 205.994 97.3446 206.275 91.2906C206.596 84.7548 205.542 57.8485 197.731 47.1161C193.183 40.8213 186.296 80.2671 186.497 85.6383Z" fill="#FFBE4A"/>
<path d="M196.386 62.1354C196.205 56.2522 191.617 54.947 189.177 57.8083C186.286 68.3198 184.73 83.4898 184.85 86.6623C185.372 100.899 196.898 104.553 198.966 105.035C201.647 105.657 204.066 101.481 205.351 96.8425C200.934 96.2 196.828 76.1207 196.386 62.1354Z" fill="#FFA73E"/>
<path d="M188.454 118.247C168.375 110.707 145.715 104.192 145.715 104.192C145.715 104.192 154.851 49.1542 161.196 43.7327C167.542 38.3113 181.838 34.0746 184.358 34.4662C186.878 34.8577 196.406 42.7991 198.413 48.5217C200.421 54.2443 188.454 118.247 188.454 118.247Z" fill="#FFBE4A"/>
<path d="M152.181 71.0807C148.577 87.1441 145.736 104.212 145.736 104.212C145.736 104.212 149.541 105.306 155.394 107.103C151.187 99.1717 149.882 85.9193 152.181 71.0807Z" fill="#FFA73E"/>
<path d="M173.124 112.816C178.144 114.502 183.385 116.339 188.475 118.247C188.475 118.247 192.932 94.2723 195.944 74.3536C191.175 92.9872 189.619 113.177 173.124 112.816Z" fill="#FFA73E"/>
<path d="M184.368 34.4962C182.692 34.2351 175.754 36.0423 169.439 38.8835C171.327 41.7548 176.146 43.7929 181.818 43.7929C186.306 43.7929 190.262 42.5178 192.651 40.5601C189.398 37.3173 185.784 34.717 184.368 34.4962Z" fill="#FFA73E"/>
<path d="M142.172 89.6039C149.089 89.5436 150.374 70.8799 147.593 67.0448C144.812 63.2096 132.644 50.9813 129.602 49.9171L127.594 51.925C127.594 51.925 134.241 89.6742 142.172 89.6039Z" fill="#FFBB83"/>
<path d="M131.449 61.2318C130.314 59.5251 129.31 57.8083 128.437 56.1417C130.445 66.0007 135.897 89.6541 142.171 89.6039C146.699 89.6039 148.807 81.5722 148.958 75.0062C145.073 76.1909 137.543 70.3378 131.449 61.2318Z" fill="#FF9D66"/>
<path d="M186.557 35.5605C187.601 29.942 188.272 24.2605 188.565 18.5533L178.244 22.7901L174.991 36.6749C174.991 36.6749 179.941 41.8454 186.557 35.5605Z" fill="#ED7656"/>
<path d="M189.529 13.5234C190.442 17.9208 185.152 31.2836 184.258 31.9562C183.365 32.6289 173.737 32.3678 173.656 31.0627C173.305 25.4606 177.672 13.9953 180.463 11.8367C183.254 9.6782 188.796 9.98944 189.529 13.5234Z" fill="#FFBB83"/>
<path d="M182.21 62.8483L190.292 64.8863L189.177 70.629L181.095 68.591L182.21 62.8483Z" fill="#FFF1B8"/>
<path d="M186.336 62.0952L187.792 62.4566L187.279 64.7156L185.824 64.3541L186.336 62.0952Z" fill="#FFF1B8"/>
<path d="M182.711 63.6012L185.412 64.2738L184.569 68.7214L181.858 68.0488L182.711 63.6012Z" fill="#F9DBA5"/>
<path d="M176.045 200H180.573C180.573 200 178.204 196.737 177.561 197.068C176.919 197.4 176.045 200 176.045 200Z" fill="#F9DEB7"/>
<path d="M209.257 95.6377C210.491 88.3891 208.022 81.9235 203.725 81.1906C199.428 80.4577 194.96 85.7386 193.685 92.9973C192.41 100.256 194.93 106.711 199.217 107.444C203.504 108.177 208.022 102.886 209.257 95.6377Z" fill="#E24062"/>
<path d="M199.116 104.192C192.249 101.802 196.105 84.4436 199.9 81.8935C203.695 79.3434 219.176 72.3458 222.489 72.406L223.914 74.8758C223.914 74.8758 206.988 106.922 199.116 104.192Z" fill="#FFBB83"/>
<path d="M217.78 83.3192C209.749 88.6502 201.105 90.106 196.828 87.1844C194.759 93.3086 194.257 102.505 199.117 104.192C204.648 106.109 214.658 90.8489 220.12 81.6124C219.367 82.1947 218.574 82.767 217.78 83.3192Z" fill="#FF9D66"/>
<path d="M179.75 41.8353L177.581 38.0603L186.737 35.179L187.902 36.2833L179.75 41.8353Z" fill="#E24062"/>
<path d="M174.138 40.1183L177.803 38.01L175.082 35.731L173.978 36.6747L174.138 40.1183Z" fill="#E24062"/>
<path d="M188.455 10.9331L185.433 24.1654L186.818 24.7477L188.866 22.4988L190.864 13.7944L188.455 10.9331Z" fill="#873725"/>
<path d="M186.688 23.4025C187.822 22.1877 189.318 21.5853 190.021 22.0672C190.724 22.5491 190.362 23.9246 189.228 25.1394C188.093 26.3542 186.607 26.9566 185.905 26.4847C185.202 26.0128 185.553 24.6273 186.688 23.4025Z" fill="#FFBB83"/>
<path d="M187.259 23.9445C187.932 23.2216 188.826 22.8602 189.267 23.1413C189.709 23.4224 189.478 24.2557 188.796 24.9886C188.113 25.7215 187.229 26.0729 186.788 25.7918C186.346 25.5107 186.577 24.6774 187.259 23.9445Z" fill="#ED7656"/>
<path d="M187.129 23.9044C187.571 23.4325 188.133 23.1916 188.434 23.3823C188.736 23.5731 188.565 24.1052 188.123 24.5871C187.681 25.069 187.119 25.2899 186.828 25.1092C186.537 24.9284 186.687 24.3863 187.129 23.9044Z" fill="#FFBB83"/>
<path d="M157.994 130.044L121.008 199.277L121.751 199.428L161.699 134.923L170.725 134.039L157.994 130.044Z" fill="#51383F"/>
<path d="M121.992 200H114.693C114.693 200 120.717 196.737 121.59 197.068C122.464 197.4 121.992 200 121.992 200Z" fill="#F9DEB7"/>
<path d="M165.534 113.197L161.096 111.781L160.554 114.824L164.992 116.239L165.534 113.197Z" fill="#EAC89B"/>
<path d="M226.756 70.7194C225.993 71.0406 223.212 71.894 221.937 74.4139L219.176 73.9019C220.632 71.8438 223.523 69.3238 226.073 68.8218C227.83 68.4805 227.529 70.388 226.756 70.7194Z" fill="#FFBB83"/>
<path d="M218.965 81.2811L219.065 73.7815C219.065 73.7815 220.29 72.4261 223.442 72.0647C224.021 72.6207 224.735 73.0161 225.513 73.2115C226.292 73.407 227.107 73.3958 227.88 73.1791C229.175 72.8578 228 78.7009 226.454 79.8555C225.862 80.2972 221.164 81.2209 218.965 81.2811Z" fill="#FFBB83"/>
<path d="M230.731 71.5224C229.229 72.7193 227.35 73.3422 225.43 73.2794L226.434 75.1467C227.579 75.3174 229.898 74.3637 231.062 73.5806C232.227 72.7975 231.293 71.1509 230.731 71.5224Z" fill="#FFBB83"/>
<path d="M231.956 73.7714C230.133 74.8978 227.998 75.4114 225.862 75.2372L226.866 77.1547C228.151 77.3856 230.42 76.5523 231.775 75.8295C233.131 75.1066 232.629 73.43 231.956 73.7714Z" fill="#FFBB83"/>
<path d="M230.45 77.2551C228.099 78.1097 225.562 78.3211 223.101 77.8675L223.914 79.8754C225.35 80.277 228.141 79.765 229.858 79.253C231.575 78.741 231.273 77.0141 230.45 77.2551Z" fill="#FFBB83"/>
<path d="M182.792 18.7439C182.892 18.0813 183.304 17.5793 183.706 17.6395C184.107 17.6998 184.368 18.2721 184.268 18.9347C184.168 19.5973 183.756 20.0892 183.354 20.039C182.953 19.9888 182.692 19.4065 182.792 18.7439Z" fill="#604748"/>
<path d="M183.435 14.8888L186.025 15.5916C186.075 15.6043 186.122 15.627 186.163 15.6584C186.204 15.6898 186.239 15.7293 186.264 15.7744C186.289 15.8194 186.305 15.8692 186.311 15.9206C186.316 15.972 186.311 16.024 186.296 16.0735L186.065 16.8566C186.033 16.9601 185.961 17.0467 185.865 17.0974C185.769 17.1482 185.657 17.159 185.553 17.1276L182.973 16.4249C182.922 16.4133 182.874 16.3914 182.832 16.3604C182.789 16.3295 182.754 16.2902 182.728 16.245C182.701 16.1998 182.685 16.1497 182.678 16.0977C182.672 16.0457 182.677 15.9931 182.692 15.943L182.933 15.1599C182.948 15.109 182.973 15.0615 183.006 15.0203C183.039 14.9791 183.081 14.9449 183.127 14.9197C183.174 14.8945 183.225 14.8788 183.278 14.8735C183.331 14.8682 183.384 14.8734 183.435 14.8888Z" fill="#873725"/>
<path d="M177.281 17.9709C177.401 17.3083 177.833 16.8264 178.284 16.8967C178.736 16.967 178.917 17.5493 178.797 18.2019C178.676 18.8544 178.244 19.3464 177.793 19.2761C177.341 19.2058 177.16 18.6235 177.281 17.9709Z" fill="#604748"/>
<path d="M176.708 14.6578L179.369 14.467C179.42 14.4615 179.473 14.4666 179.522 14.482C179.572 14.4974 179.618 14.5228 179.657 14.5567C179.697 14.5905 179.729 14.6321 179.752 14.6788C179.775 14.7256 179.788 14.7765 179.79 14.8284V15.6416C179.793 15.6944 179.785 15.7472 179.767 15.7969C179.75 15.8467 179.722 15.8925 179.687 15.9316C179.651 15.9708 179.609 16.0026 179.561 16.0252C179.513 16.0478 179.461 16.0607 179.409 16.0633L176.738 16.2541C176.686 16.2596 176.634 16.2545 176.584 16.2391C176.535 16.2236 176.489 16.1982 176.449 16.1644C176.41 16.1305 176.378 16.089 176.355 16.0422C176.332 15.9955 176.319 15.9446 176.316 15.8926L176.266 15.0794C176.263 15.0215 176.272 14.9635 176.294 14.9095C176.315 14.8556 176.348 14.8069 176.39 14.7668C176.432 14.7267 176.482 14.6962 176.537 14.6774C176.592 14.6586 176.65 14.6519 176.708 14.6578Z" fill="#873725"/>
<path d="M179.559 19.5271C178.395 20.5913 177.712 21.535 178.164 22.3081C178.306 22.4984 178.486 22.656 178.694 22.7703C178.902 22.8846 179.132 22.953 179.369 22.9707C179.369 22.9707 177.893 23.0912 177.361 22.3482C176.829 21.6053 177.893 20.5913 179.559 19.5271Z" fill="#ED7656"/>
<path d="M176.125 24.7275L180.734 25.2094C180.593 25.7863 180.314 26.3202 179.921 26.7647C179.527 27.2091 179.031 27.5506 178.475 27.7595C176.497 28.3418 176.125 24.7275 176.125 24.7275Z" fill="#422931"/>
<path d="M177.2 26.0931C177.08 25.7719 177.019 25.4319 177.019 25.0891L180.312 25.4807C180.196 25.7813 180.014 26.0523 179.78 26.2738L177.2 26.0931Z" fill="#FFEFDC"/>
<path d="M122.966 47.3469C123.729 47.6581 126.51 48.5115 127.785 51.0415L130.546 50.5194C129.09 48.5115 126.199 45.9514 123.649 45.4996C121.892 45.098 122.193 47.0156 122.966 47.3469Z" fill="#FFBB83"/>
<path d="M130.756 57.9088L130.656 50.4092C130.656 50.4092 129.431 49.0538 126.279 48.6924C125.7 49.2484 124.986 49.6438 124.208 49.8392C123.43 50.0347 122.614 50.0235 121.841 49.8068C120.546 49.4855 121.721 55.3186 123.267 56.4832C123.859 56.9249 128.558 57.8485 130.756 57.9088Z" fill="#FFBB83"/>
<path d="M118.99 48.1401C120.489 49.3446 122.369 49.9715 124.291 49.9071L123.287 51.7745C122.142 51.9351 119.823 50.9914 118.659 50.2083C117.494 49.4252 118.428 47.7787 118.99 48.1401Z" fill="#FFBB83"/>
<path d="M117.765 50.3992C119.59 51.5197 121.724 52.0329 123.859 51.865L122.855 53.7825C121.57 54.0134 119.301 53.1802 117.946 52.4573C116.59 51.7344 117.113 50.0578 117.765 50.3992Z" fill="#FFBB83"/>
<path d="M119.271 53.8828C121.623 54.7374 124.16 54.9488 126.62 54.4952L125.807 56.5031C124.371 56.9047 121.58 56.3927 119.864 55.8807C118.147 55.3687 118.448 53.6418 119.271 53.8828Z" fill="#FFBB83"/>
</svg>
