<svg width="643" height="395" viewBox="0 0 643 395" fill="none" xmlns="http://www.w3.org/2000/svg">
<path d="M340.423 115.354C341.887 111.503 341.526 107.993 339.4 108.013C337.274 108.033 334.667 111.583 333.644 115.414C332.762 118.803 333.464 121.25 335.148 121.25C336.833 121.25 339.119 118.763 340.423 115.354Z" fill="#FFBB83"/>
<path d="M339.36 115.173C340.263 112.786 340.042 110.64 338.739 110.64C337.435 110.64 335.81 112.847 335.209 115.213C334.607 117.58 335.088 118.803 336.111 118.783C337.134 118.763 338.558 117.319 339.36 115.173Z" fill="#ED7656"/>
<path d="M337.877 116.537C338.579 114.712 338.398 113.047 337.396 113.067C336.393 113.087 335.169 114.752 334.688 116.557C334.206 118.362 334.688 119.305 335.39 119.305C336.092 119.305 337.275 118.141 337.877 116.537Z" fill="#FFBB83"/>
<path d="M298.544 115.354C297.06 111.503 297.441 107.993 299.567 108.013C301.693 108.033 304.301 111.583 305.303 115.414C306.186 118.803 305.484 121.25 303.819 121.25C302.155 121.25 299.828 118.763 298.544 115.354Z" fill="#FFBB83"/>
<path d="M299.608 115.173C298.705 112.786 298.926 110.64 300.229 110.64C301.533 110.64 303.138 112.847 303.759 115.213C304.381 117.58 303.88 118.803 302.837 118.783C301.794 118.763 300.39 117.319 299.608 115.173Z" fill="#ED7656"/>
<path d="M301.092 116.537C300.39 114.712 300.571 113.047 301.573 113.067C302.576 113.087 303.8 114.752 304.281 116.557C304.763 118.362 304.281 119.305 303.579 119.305C302.877 119.305 301.694 118.141 301.092 116.537Z" fill="#FFBB83"/>
<path d="M383.807 248.491C384.563 206.924 388.094 165.455 394.377 124.359L420.45 123.978C426.848 164.353 446.103 187.358 449.493 238.302C424.562 243.537 383.807 248.491 383.807 248.491Z" fill="#60454B"/>
<path d="M410.763 173.92C429.275 177.45 444.297 206.552 444.739 239.265L449.452 238.302C446.062 187.358 426.808 164.353 420.41 123.978L394.336 124.359C394.336 124.359 390.044 150.433 386.935 186.535C393.113 177.129 401.496 172.155 410.763 173.92Z" fill="#51373E"/>
<path d="M432.665 165.095C427.353 151.111 423.39 136.651 420.831 121.912L393.674 122.293C393.674 122.293 390.907 139.282 388.139 165.095H432.665Z" fill="#F75C76"/>
<path d="M402.88 140.284C411.023 139.201 419.287 150.032 422.416 165.095H432.665C427.353 151.111 423.39 136.651 420.831 121.912L393.674 122.293C393.674 122.293 390.907 139.282 388.139 165.095H390.385C390.566 151.697 395.499 141.247 402.88 140.284Z" fill="#E24062"/>
<path d="M338.759 85.2486C333.745 75.6615 306.488 76.3835 301.755 84.2658C297.021 92.1481 299.749 110.64 305.405 128.03L333.885 130.035C333.885 130.035 343.794 94.8558 338.759 85.2486Z" fill="#60454B"/>
<path d="M162.68 213.732C177.041 189.664 188.072 151.316 185.826 141.909C185.826 141.909 161.457 134.428 148.219 152.98C134.982 171.533 153.273 209.44 153.273 209.44L162.68 213.732Z" fill="#60454B"/>
<path d="M152.25 212.048C166.631 187.98 177.662 149.611 175.396 140.224C175.396 140.224 151.047 132.743 137.789 151.296C124.532 169.848 142.864 207.736 142.864 207.736L152.25 212.048Z" fill="#4C363C"/>
<path d="M165.709 220.672C167.714 221.695 168.356 227.07 167.393 228.855C166.431 230.64 164.024 232.706 162.62 229.858C161.309 227.262 161.036 224.264 161.858 221.474C162.294 220.897 162.924 220.498 163.633 220.35C164.341 220.203 165.078 220.317 165.709 220.672Z" fill="#FF9D66"/>
<path d="M171.044 217.463C173.05 218.486 173.692 223.841 172.729 225.646C171.766 227.451 169.359 229.497 167.956 226.629C166.661 224.057 166.389 221.09 167.193 218.325C167.621 217.738 168.248 217.327 168.956 217.168C169.665 217.009 170.407 217.114 171.044 217.463Z" fill="#FF9D66"/>
<path d="M153.193 194.618C147.678 202.42 140.838 214.314 144.609 217.082C149.623 220.752 149.302 221.093 151.408 224.723C153.514 228.354 171.204 224.723 169.921 221.374C167.74 215.946 167.374 209.958 168.878 204.306C171.585 195.4 153.193 194.618 153.193 194.618Z" fill="#FFBB83"/>
<path d="M156.784 222.156L148.42 214.274C149.082 225.305 153.334 238.783 154.999 240.769C156.663 242.755 160.675 242.775 160.534 241.09C160.394 239.405 156.944 225.486 156.784 222.156Z" fill="#FFBB83"/>
<path d="M163.944 221.956L155.44 214.916C156.864 226.79 159.231 231.623 160.554 232.365C161.878 233.108 166.17 231.443 166.13 230.36C166.09 229.277 164.044 224.784 163.944 221.956Z" fill="#FFBB83"/>
<path d="M168.236 216.54L160.895 214.254C162.66 221.976 165.528 227.551 167.093 228.574C168.657 229.597 172.568 226.95 172.287 225.787C172.006 224.623 168.717 218.807 168.236 216.54Z" fill="#FFBB83"/>
<path d="M119.317 139.723C96.2319 121.912 99.0398 77.0453 118.655 79.5523C131.091 81.0967 178.244 119.365 185.886 142.129C185.886 142.129 168.456 162.968 140.999 153.381C135.383 151.275 125.274 144.336 119.317 139.723Z" fill="#60454B"/>
<path d="M107.264 153.161C88.1704 140.064 89.454 102.136 106.101 100.772C117.493 99.8297 166.813 129.253 175.056 151.315C175.056 151.315 154.398 171.894 126.82 163.851C121.585 162.327 112.479 156.751 107.264 153.161Z" fill="#4C363C"/>
<path d="M55.457 393.04H56.8609L109.349 276.029L112.218 274.545L147.818 393.963H149.082C149.082 393.963 172.929 239.746 156.904 171.894C140.879 104.042 129.807 85.5097 117.613 80.8766C111.756 78.6503 66.789 78.7506 50.4026 93.5124C46.8727 96.6813 49.9815 157.132 55.838 246.064C60.6717 319.271 55.457 393.04 55.457 393.04Z" fill="#8B5E9E"/>
<path d="M108.727 277.393L109.349 276.029L112.217 274.544L147.818 393.962H149.082C149.082 393.962 168.216 270.252 160.694 195.681C157.516 193.188 153.621 191.782 149.583 191.67C133.538 191.67 109.128 199.131 102.068 233.789C100.283 242.333 106.802 263.593 108.727 277.393Z" fill="#724789"/>
<path d="M62.2963 338.305C77.3991 263.915 93.7854 235.093 131.031 235.093C139.796 235.093 156.643 244.981 162.159 254.307C163.041 223.259 161.958 193.234 156.904 171.814C140.859 103.962 129.807 85.4294 117.613 80.7963C111.756 78.57 66.789 78.6702 50.4026 93.432C46.8727 96.601 49.9815 157.052 55.838 245.984C60.6717 319.271 55.457 393.04 55.457 393.04H56.8609C56.6242 374.649 58.4474 356.29 62.2963 338.305Z" fill="#724789"/>
<path d="M163.683 222.156C158.929 133.907 131.592 84.266 119.558 79.6329C113.721 77.4066 66.8484 78.6701 50.4621 93.4319C47.2329 96.2599 49.4191 159.298 54.1525 233.508C85.2204 222.537 154.436 220.471 163.683 222.156Z" fill="#60454B"/>
<path d="M53.7512 233.508C63.4794 230.182 73.5083 227.811 83.6959 226.428C83.8572 215.398 83.3683 204.368 82.2318 193.395C77.6789 148.447 64.1807 113.168 51.8658 114.612C50.8069 114.756 49.7968 115.147 48.9175 115.755C49.0178 140.906 50.883 184.77 53.7512 233.508Z" fill="#4C363C"/>
<path d="M68.2933 149.751C86.9661 127.207 72.5453 81.0766 55.136 89.7612C47.2938 93.7725 3.89101 144.275 0 169.567C0 169.567 21.0596 185.873 46.1306 169.286C54.176 163.561 61.6036 157.014 68.2933 149.751Z" fill="#4C363C"/>
<path d="M67.9514 143.674C85.5613 122.975 73.808 78.8103 56.3386 89.5206C48.6568 94.1938 13.8182 143.895 12.314 163.971C12.314 163.971 31.047 174.16 51.8659 159.84C56.1581 156.811 63.5791 148.828 67.9514 143.674Z" fill="#60454B"/>
<path d="M44.1254 206.673C29.8617 200.099 16.6969 191.365 5.09491 180.779C-1.86479 174.762 -1.48371 164.072 6.33843 160.021C13.6792 156.21 26.5356 148.949 37.8476 153.703C61.1937 163.551 62.1765 199.272 62.1765 199.272L44.1254 206.673Z" fill="#4C363C"/>
<path d="M145.552 394.604H160.554C160.554 394.604 148.52 386.582 146.835 388.447C145.15 390.312 145.552 394.604 145.552 394.604Z" fill="#E5D8B5"/>
<path d="M59.8496 394.604H44.8672C44.8672 394.604 57.1419 386.582 58.9069 388.447C60.6719 390.312 59.8496 394.604 59.8496 394.604Z" fill="#E5D8B5"/>
<path d="M60.5509 187.378C58.2243 176.066 52.4079 159.86 37.8467 153.722C29.6033 150.253 20.5377 153.181 13.3975 156.49C14.1982 159.045 15.6991 161.324 17.7297 163.069C29.3219 173.648 42.4725 182.381 56.7201 188.962L60.5509 187.378Z" fill="#60454B"/>
<path d="M43.8039 207.615L35.2798 202.962C35.2798 202.962 36.7239 189.985 47.3138 185.593C57.2018 181.461 62.5971 185.894 62.5971 185.894L63.0383 196.865L43.8039 207.615Z" fill="#FFEBCA"/>
<path d="M52.5078 221.274C50.6426 222.718 50.783 228.674 52.1067 230.459C53.4304 232.244 56.3186 234.03 57.3415 230.68C58.3644 227.331 57.8429 222.898 56.7398 221.534C56.1935 220.972 55.457 220.633 54.6743 220.585C53.8916 220.537 53.119 220.782 52.5078 221.274Z" fill="#FF9D66"/>
<path d="M45.0881 218.967C42.9822 220.07 42.0596 225.947 43.0825 227.932C44.1054 229.918 46.5924 232.204 48.1769 229.096C49.7614 225.987 50.0622 221.534 49.2399 219.99C48.8005 219.332 48.1308 218.862 47.3625 218.673C46.5942 218.483 45.7829 218.588 45.0881 218.967Z" fill="#FF9D66"/>
<path d="M38.9094 215.217C36.7834 216.3 35.8808 222.176 36.9037 224.162C37.9266 226.148 40.3936 228.454 41.9981 225.325C43.6027 222.196 43.8835 217.764 43.0411 216.219C42.6085 215.559 41.9408 215.087 41.1735 214.901C40.4061 214.715 39.5966 214.828 38.9094 215.217Z" fill="#FF9D66"/>
<path d="M61.2124 192.753C66.8885 201.417 72.4041 221.133 63.2181 223.019C61.774 227.792 59.2067 227.03 57.4618 226.669C52.949 225.766 38.5282 223.34 40.0124 219.569C41.4966 215.798 43.1413 204.446 44.0238 202.24C47.5939 192.653 61.2124 192.753 61.2124 192.753Z" fill="#FFBB83"/>
<path d="M48.0154 220.652L58.2844 213.271C55.1355 225.987 51.8863 231.142 50.2617 231.904C48.6371 232.666 44.2447 230.781 44.4052 229.657C44.5656 228.534 47.514 223.681 48.0154 220.652Z" fill="#FFBB83"/>
<path d="M55.4973 222.417L64.1819 213.311C63.6002 226.388 61.4341 232.024 60.0702 233.047C58.7064 234.07 53.9128 233.047 53.8928 231.884C53.8727 230.721 55.5976 225.486 55.4973 222.417Z" fill="#FFBB83"/>
<path d="M41.9386 214.294L49.9613 211.907C47.8353 220.351 44.6061 226.428 42.8813 227.511C41.1564 228.595 37.0447 225.646 37.3857 224.383C37.7267 223.119 41.3569 216.781 41.9386 214.294Z" fill="#FFBB83"/>
<path d="M53.5317 91.1055C63.7286 96.5735 75.1571 99.3357 86.7257 99.1282C103.373 99.1282 121.645 80.5556 119.498 79.7534C113.983 77.5271 72.0842 78.55 53.5317 91.1055Z" fill="#4C363C"/>
<path d="M68.4937 84.3661C72.8861 88.3775 80.3071 90.9046 88.7911 90.9046C100.825 90.9046 110.854 85.7099 113.3 78.8705C98.1439 77.4877 82.8668 79.3615 68.4937 84.3661Z" fill="#F9DEB7"/>
<path d="M75.3931 82.561L82.6135 46.6794L105.919 49.6478V78.8906C105.919 78.8906 98.8194 92.2083 75.3931 82.561Z" fill="#ED7656"/>
<path d="M81.0892 32.9407C79.8256 45.7971 81.5906 68.6217 84.4587 71.911C87.3269 75.2003 101.928 76.6042 107.183 75.2805C110.432 67.6589 114.083 43.7513 110.773 29.5712C107.765 16.6947 81.4703 28.9293 81.0892 32.9407Z" fill="#FFBB83"/>
<path d="M79.1242 67.4784C77.1185 54.9229 69.2763 29.892 78.2216 29.9923C78.4124 29.6722 78.6489 29.3817 78.9236 29.1299C79.8334 28.257 80.9843 27.6774 82.2272 27.4659C83.4702 27.2545 84.748 27.4209 85.8952 27.9438C87.0425 28.4666 88.0064 29.3218 88.6623 30.3986C89.3181 31.4754 89.6356 32.7243 89.5737 33.9836L88.7113 55.0031L82.3733 55.3039L79.1242 67.4784Z" fill="#E04E2D"/>
<path d="M85.2612 51.9548C85.1409 48.2443 83.777 45.4363 82.2126 45.6569C80.6482 45.8776 79.4849 49.0666 79.6052 52.7771C79.7256 56.4876 81.0894 59.2955 82.6539 59.0749C84.2183 58.8543 85.3816 55.6653 85.2612 51.9548Z" fill="#FFBB83"/>
<path d="M83.9577 52.9975C83.9577 51.2125 83.0952 49.8687 82.1325 50.0091C81.1698 50.1495 80.4477 51.7139 80.5079 53.499C80.5681 55.284 81.3904 56.6078 82.3531 56.4674C83.3158 56.327 84.0178 54.7826 83.9577 52.9975Z" fill="#ED7656"/>
<path d="M84.7398 52.7567C84.7398 51.2524 83.9977 50.1292 83.1754 50.2496C82.3531 50.3699 81.7714 51.6736 81.8115 53.1778C81.8516 54.6821 82.5536 55.8253 83.3559 55.705C84.1582 55.5847 84.7799 54.281 84.7398 52.7567Z" fill="#FFBB83"/>
<path d="M111.475 18.42C109.269 14.4087 75.5935 16.8155 78.3613 32.4598L89.0917 31.8982C104.335 24.5574 109.67 26.7636 109.67 26.7636C109.67 26.7636 113.701 22.4314 111.475 18.42Z" fill="#E04E2D"/>
<path d="M185.887 142.07C180.05 124.66 151.068 98.1653 132.195 85.9106C123.069 105.245 102.37 160.121 106.361 223.039C127.802 221.535 159.171 221.254 163.684 222.076C162.583 199.763 159.645 177.579 154.899 155.748C160.725 155.707 166.48 154.472 171.81 152.12C177.14 149.767 181.931 146.346 185.887 142.07Z" fill="#4C363C"/>
<path d="M98.2789 46.7999C98.4594 45.3157 98.0583 44.0922 97.3763 44.032C96.6944 43.9718 95.9924 45.1351 95.7919 46.5993C95.5913 48.0634 96.0125 49.3069 96.6944 49.347C97.3763 49.3872 98.1385 48.264 98.2789 46.7999Z" fill="#604748"/>
<path d="M99.4621 38.3759L93.8462 39.5392C93.6257 39.5692 93.4261 39.6851 93.2908 39.8617C93.1555 40.0383 93.0956 40.2613 93.1241 40.4819L93.3849 42.0463C93.4104 42.1516 93.457 42.2506 93.5218 42.3374C93.5866 42.4242 93.6683 42.497 93.7621 42.5513C93.8558 42.6057 93.9595 42.6405 94.067 42.6536C94.1746 42.6668 94.2837 42.6581 94.3877 42.6279L100.024 41.4647C100.242 41.4299 100.438 41.3128 100.573 41.1374C100.707 40.962 100.769 40.7417 100.746 40.522L100.465 38.9576C100.439 38.8523 100.393 38.7532 100.328 38.6665C100.263 38.5797 100.181 38.5069 100.088 38.4525C99.994 38.3982 99.8903 38.3634 99.7827 38.3502C99.6752 38.337 99.5661 38.3458 99.4621 38.3759Z" fill="#E04E2D"/>
<path d="M109.088 47.1409C109.269 45.6767 108.868 44.4533 108.186 44.3931C107.504 44.3329 106.782 45.4962 106.601 46.9604C106.421 48.4245 106.822 49.648 107.504 49.7081C108.186 49.7683 108.888 48.6251 109.088 47.1409Z" fill="#604748"/>
<path d="M111.536 41.184L107.524 39.2988C107.447 39.26 107.361 39.2399 107.274 39.24C107.187 39.2401 107.101 39.2604 107.023 39.2993C106.945 39.3382 106.878 39.3946 106.826 39.4641C106.773 39.5336 106.738 39.6143 106.722 39.6998L106.341 41.1038C106.292 41.2883 106.307 41.484 106.383 41.6589C106.46 41.8339 106.593 41.9775 106.762 42.0665L110.774 43.9519C110.851 43.9906 110.937 44.0107 111.024 44.0106C111.111 44.0105 111.197 43.9902 111.275 43.9513C111.353 43.9124 111.42 43.856 111.472 43.7865C111.525 43.717 111.56 43.6363 111.576 43.5508L111.977 42.1468C112.025 41.96 112.007 41.7626 111.927 41.5874C111.846 41.4122 111.708 41.2698 111.536 41.184Z" fill="#E04E2D"/>
<path d="M102.812 45.9377C103.694 50.8717 103.895 53.9604 102.812 55.2441C102.497 55.5423 102.095 55.7309 101.665 55.7815C101.235 55.8321 100.8 55.7421 100.425 55.5249V55.6251C100.425 55.6251 102.651 57.3901 103.875 56.2469C105.098 55.1037 104.296 51.5938 102.812 45.9377Z" fill="#EF7A62"/>
<path d="M100.123 61.5618C99.1153 61.3184 98.1766 60.8463 97.3802 60.182C96.5837 59.5178 95.9508 58.6791 95.5305 57.731C95.1293 59.0948 96.7138 61.8426 99.8627 62.665C103.012 63.4873 106.542 62.1034 106.923 60.6593C106.932 60.5928 106.932 60.5252 106.923 60.4587C105.918 61.0818 104.8 61.5 103.633 61.6893C102.466 61.8786 101.274 61.8353 100.123 61.5618Z" fill="#EF7A62"/>
<path d="M446.263 75.06C448.269 43.8316 436.014 16.8954 418.866 14.99C401.717 13.0846 386.193 36.8118 384.168 68.0402C382.142 99.2685 395.119 117.179 412.287 119.185C429.456 121.191 444.238 106.349 446.263 75.06Z" fill="#E04E2D"/>
<path d="M440.166 39.1785C432.364 13.7265 418.264 0.850098 400.694 0.850098C383.125 0.850098 368.724 14.2079 376.526 39.6399C384.328 65.0718 402.8 78.209 420.37 78.0686C437.94 77.9282 447.968 64.6105 440.166 39.1785Z" fill="#E04E2D"/>
<path d="M409.158 69.0426C409.319 78.2086 384.97 116.938 374.921 125.522C370.188 129.534 358.515 123.697 365.735 113.167C372.956 102.638 394.517 70.7274 399.13 64.3894C404.485 57.0085 409.038 63.9683 409.158 69.0426Z" fill="#F75C76"/>
<path d="M400.553 81.2573C391.768 94.7154 380.376 102.879 374.68 99.9101C370.99 105.305 367.74 110.059 365.695 113.087C358.474 123.617 370.147 129.474 374.881 125.442C384.909 116.858 409.278 78.1284 409.118 68.9625C409.078 67.6312 408.793 66.3187 408.275 65.0916C406.474 70.8162 403.874 76.2583 400.553 81.2573Z" fill="#E24062"/>
<path d="M401.135 62.3438C390.384 85.75 385.089 127.268 386.253 129.514C387.416 131.76 419.747 134.528 419.948 130.015C420.149 125.503 423.959 66.6159 420.469 63.1059C416.98 59.596 402.579 59.3352 401.135 62.3438Z" fill="#F75C76"/>
<path d="M420.53 63.0256C420.16 62.6682 419.741 62.3644 419.287 62.123C421.132 74.2975 413.149 119.686 412.989 123.737C412.829 127.789 393.353 128.752 386.193 126.786C386.092 127.669 386.132 128.563 386.313 129.434C387.477 131.7 422.255 136.012 422.416 131.439C422.576 126.866 423.92 66.6158 420.53 63.0256Z" fill="#E24062"/>
<path d="M420.51 63.0258C426.045 69.5844 433.005 120.91 429.936 133.044C428.492 138.74 415.576 141.348 415.195 129.494C414.814 117.64 415.776 84.7272 414.352 77.9882C412.607 69.7047 417.481 59.4959 420.51 63.0258Z" fill="#F75C76"/>
<path d="M427.349 88.5583C429.134 106.168 426.868 120.388 421.934 121.03C419.728 121.311 415.496 102.397 415.355 87.9165C414.011 94.2745 415.095 126.024 415.195 129.514C415.576 141.368 428.492 138.76 429.937 133.064C431.722 126.004 430.097 105.627 427.349 88.5583Z" fill="#E24062"/>
<path d="M429.496 124.42C426.888 117.961 421.273 114.732 416.94 117.219C412.608 119.706 411.224 126.967 413.832 133.425C416.439 139.883 422.055 143.113 426.387 140.626C430.719 138.138 432.103 130.898 429.496 124.42Z" fill="#FFEBCA"/>
<path d="M379.915 119.285C382.463 112.807 380.577 106.589 375.744 105.426C370.91 104.263 364.893 108.575 362.346 115.073C359.799 121.572 361.664 127.769 366.518 128.932C371.371 130.096 377.368 125.783 379.915 119.285Z" fill="#FFEBCA"/>
<path d="M426.227 122.976C420.029 112.807 404.966 81.4782 404.164 80.8564H402.259C405.087 103.26 412.468 126.987 416.479 134.027C419.608 139.422 431.04 130.898 426.227 122.976Z" fill="#FFBB83"/>
<path d="M407.153 100.853C406.05 98.3056 405.147 95.8187 404.305 93.4119C407.775 111.463 413.25 128.21 416.519 134.007C418.986 138.359 426.808 133.726 427.33 127.649C421.915 126.525 413.41 115.454 407.153 100.853Z" fill="#FF9D66"/>
<path d="M378.01 119.807C384.027 109.357 404.404 80.6158 404.625 79.6932L403.682 78.0686C385.13 91.7674 367.72 110.019 363.368 117.059C360.059 122.374 373.356 127.93 378.01 119.807Z" fill="#FFBB83"/>
<path d="M390.024 97.483C383.909 102.797 376.827 106.883 369.165 109.517C367.054 111.852 365.116 114.339 363.369 116.958C360.059 122.333 373.397 127.889 378.01 119.766C381.6 113.488 390.405 100.612 396.904 91.125C394.719 93.3587 392.423 95.4807 390.024 97.483Z" fill="#FF9D66"/>
<path d="M473.761 220.752C473.761 220.752 448.77 222.357 446.383 234.15H488.121C486.758 226.348 473.761 220.752 473.761 220.752Z" fill="#FF9D66"/>
<path d="M465.116 228.494L470.391 204.526L490.007 214.334L488.703 233.207L465.116 228.494Z" fill="#FF9D66"/>
<path d="M540.009 203.182C558.822 255.691 637.665 389.369 637.665 389.369H639.932C639.932 389.369 608.242 189.764 599.236 174.762C590.231 159.759 540.009 203.182 540.009 203.182Z" fill="#443137"/>
<path d="M535.094 194.979C535.475 247.488 563.775 389.369 563.775 389.369H566.042C566.042 389.369 609.425 221.474 601.502 180.458C598.594 165.315 535.094 194.979 535.094 194.979Z" fill="#60454B"/>
<path d="M601.502 180.458C598.594 165.375 535.094 194.979 535.094 194.979C535.094 203.162 535.897 213.512 537.1 225.165L576.13 230.821L564.919 389.369H566.042C566.042 389.369 609.425 221.474 601.502 180.458Z" fill="#4F383E"/>
<path d="M490.609 221.053L467.864 212.509C467.864 212.509 488.342 62.6244 496.646 55.6847C504.949 48.7451 548.934 56.5673 538.524 121.872C536.639 133.766 490.609 221.053 490.609 221.053Z" fill="#317A91"/>
<path d="M479.657 133.445L526.951 149.37C528.475 146.201 529.899 143.173 531.183 140.365L481.362 123.557L479.657 133.445Z" fill="#F2CA91"/>
<path d="M482.385 116.998L533.911 134.327C534.733 132.422 535.495 130.657 536.117 129.093L483.368 111.322C483.047 113.167 482.726 115.173 482.385 116.998Z" fill="#F2CA91"/>
<path d="M493.858 56.8285C482.165 94.114 529.82 169.628 533.21 212.649C533.21 212.649 574.165 224.583 603.769 181.321C578.859 87.3749 502.904 27.8865 493.858 56.8285Z" fill="#5395B7"/>
<path d="M493.858 56.8285C489.666 70.1461 493.096 88.3777 499.354 108.254C501.861 94.4549 507.176 85.2088 514.818 83.5842C530.863 80.1745 551.16 111.664 560.106 153.783C564.839 176.066 565.441 196.885 562.613 212.068C575.57 208.678 590.692 200.335 603.769 181.321C578.859 87.3749 502.904 27.8865 493.858 56.8285Z" fill="#3D88A5"/>
<path d="M492.373 56.3269C490.187 63.3468 490.929 72.3723 492.875 81.458C503.826 75.9825 507.396 60.9199 507.737 49.8887C500.697 47.8028 494.319 50.1294 492.373 56.3269Z" fill="#F2CA91"/>
<path d="M234.022 184.59L233.762 235.414H165.689L163.082 211.506L234.022 184.59Z" fill="#60454B"/>
<path d="M215.189 209.44C221.228 207.515 227.61 206.913 233.902 207.675L234.022 184.65L163.082 211.446L165.689 235.514H183.018C186.388 224.964 199.485 214.013 215.189 209.44Z" fill="#51373E"/>
<path d="M296.659 163.972C272.872 123.216 237.03 64.3697 207.607 50.7913L207.988 127.368L277.043 172.817L296.659 163.972Z" fill="#FFBE4A"/>
<path d="M282.058 140.084L258.411 151.316L278.227 166.679L292.989 153.382L282.058 140.084Z" fill="#FFA539"/>
<path d="M233.32 115.174C223.881 104.379 215.336 92.8353 207.768 80.656L207.988 127.308L277.044 172.757L296.659 163.912L295.997 162.788C284.545 163.731 258.391 144.216 233.32 115.174Z" fill="#FFA539"/>
<path d="M293.671 141.247C314.771 132.362 268.721 216.64 268.721 216.64L230.252 232.966C227.283 199.251 272.772 149.971 293.671 141.247Z" fill="#A777B7"/>
<path d="M298.083 150.433C316.415 142.711 276.401 215.979 276.401 215.979L242.947 230.179C240.359 200.936 279.891 158.095 298.083 150.433Z" fill="#8B5E9E"/>
<path d="M338.959 139.823C317.177 135.05 362.566 216.039 362.566 216.039L400.673 232.887C403.441 198.69 360.7 144.597 338.959 139.823Z" fill="#A777B7"/>
<path d="M331.378 154.665C309.536 150.313 355.687 223.801 355.687 223.801L393.795 239.104C396.462 208.056 353.2 158.997 331.378 154.665Z" fill="#8B5E9E"/>
<path d="M271.389 204.506L248.343 233.769L225.94 233.99C224.636 198.309 254.721 191.65 271.389 204.506Z" fill="#FFEBCA"/>
<path d="M314.269 134.288C272.611 135.511 260.116 200.194 259.674 234.15L369.084 235.153C369.565 141.829 340.022 133.526 314.269 134.288Z" fill="#A777B7"/>
<path d="M359.938 204.506L383.084 233.769L405.467 233.99C406.711 198.309 376.566 191.65 359.938 204.506Z" fill="#FFEBCA"/>
<path d="M372.554 200.936C384.227 200.776 401.977 216.982 400.433 234.15L335.148 233.889L331.277 220.572C331.277 220.572 356.047 201.197 372.554 200.936Z" fill="#FFBB83"/>
<path d="M367.319 221.654C354.984 221.654 344.094 219.388 337.716 215.938C333.704 218.606 331.277 220.571 331.277 220.571L335.148 233.889L400.433 234.15C400.819 227.924 399.149 221.744 395.68 216.56C389.101 219.649 378.912 221.654 367.319 221.654Z" fill="#FF9D66"/>
<path d="M293.631 141.247C291.777 142.061 289.987 143.013 288.276 144.095C291.97 147.862 296.399 150.829 301.288 152.813C306.177 154.797 311.422 155.755 316.696 155.628C322.248 155.727 327.754 154.611 332.83 152.359C337.905 150.107 342.427 146.773 346.079 142.591C345.039 142 343.968 141.464 342.87 140.986C333.945 134.969 323.816 133.946 314.229 134.267C306.82 134.482 299.645 136.913 293.631 141.247Z" fill="#8B5E9E"/>
<path d="M159.31 224.343L235.526 193.776C233.641 136.434 228.045 64.4101 204.599 48.2644C186.106 35.5484 148.079 47.9033 140.196 101.094C134.681 138.339 155.299 216.28 159.31 224.343Z" fill="#FFBE4A"/>
<path d="M176.84 106.97C174.493 91.9072 146.093 76.3031 142.744 88.7182C141.655 92.8039 140.805 96.9492 140.196 101.133C134.681 138.379 155.299 216.319 159.31 224.382L193.728 210.583C182.215 193.856 181.814 138.82 176.84 106.97Z" fill="#FFA539"/>
<path d="M194.55 125.001L208.811 141.047L215.69 121.271L225.899 135.932L230.512 122.434C230.031 118.423 229.509 114.672 228.948 110.921L224.294 124.52L214.126 109.918L206.805 130.938L192.765 115.093L184.743 136.072L168.697 125.823L165.889 130.216L187.43 143.895L194.55 125.001Z" fill="#FFEBCA"/>
<path d="M318.341 150.393C328.55 150.393 337.234 145.961 340.684 139.743C332.661 134.127 323.195 133.325 314.39 133.586C307.83 133.969 301.48 136.041 295.958 139.603C299.387 145.921 308.112 150.393 318.341 150.393Z" fill="#E2D6C0"/>
<path d="M334.185 116.056H305.524L305.143 135.872C309.014 145.76 326.262 148.127 335.047 136.895L334.185 116.056Z" fill="#ED7656"/>
<path d="M334.326 95.6382C329.291 85.309 311.521 84.1257 306.627 92.7501C301.112 102.518 302.395 122.675 306.868 133.345C310.739 142.591 326.484 141.368 330.034 138.219C335.429 133.606 339.34 105.967 334.326 95.6382Z" fill="#FFBB83"/>
<path d="M258.873 200.936C247.22 200.776 229.449 216.982 231.014 234.15L296.298 233.889L300.169 220.572C300.169 220.572 275.399 201.197 258.873 200.936Z" fill="#FFBB83"/>
<path d="M268.319 222.237C256.981 222.404 245.668 221.103 234.664 218.366C231.872 223.136 230.586 228.637 230.973 234.15L296.258 233.89L300.129 220.572C300.129 220.572 299.507 220.071 298.384 219.248C288.499 221.321 278.419 222.323 268.319 222.237Z" fill="#FF9D66"/>
<path d="M360.701 171.031H269.222C264.91 171.031 261.48 174.12 261.741 177.77L265.632 234.671H364.291L368.182 177.77C368.423 174.12 365.033 171.031 360.701 171.031Z" fill="#F9DEB7"/>
<path d="M358.555 174.962H271.368C267.256 174.962 263.987 177.851 264.228 181.28L267.938 234.772H361.984L365.695 181.361C365.916 177.851 362.666 174.962 358.555 174.962Z" fill="#EACEA7"/>
<path d="M270.525 234.772H318.12L347.122 174.942H299.527L270.525 234.772Z" fill="#F4D7B5"/>
<path d="M490.127 220.752C490.127 220.752 465.357 222.357 463.011 234.15H504.348C503.004 226.348 490.127 220.752 490.127 220.752Z" fill="#FFBB83"/>
<path d="M178.165 224.162L155.119 227.491C155.119 227.491 121.464 125.543 144.409 79.9538C167.354 34.3648 181.293 102.899 177.362 132.402C173.411 162.427 178.165 224.162 178.165 224.162Z" fill="#FFBE4A"/>
<path d="M146.114 148.508C142.549 128.507 140.911 108.21 141.22 87.8962C125.054 136.373 155.119 227.491 155.119 227.491L169.941 225.486C160.916 210.263 151.77 181.822 146.114 148.508Z" fill="#FFA539"/>
<path d="M492.595 74.9398C503.345 68.7422 503.907 50.0292 503.907 50.0292L480.019 35.448L472.979 59.3356L492.595 74.9398Z" fill="#ED7656"/>
<path d="M482.666 222.257L486.056 205.469L505.671 215.277L504.347 234.15L482.666 222.257Z" fill="#FFBB83"/>
<path d="M505.431 224.022L483.368 214.996C483.368 214.996 498.992 70.5874 506.855 63.387C514.717 56.1866 555.833 58.9544 549.275 124.139C548.051 135.932 505.431 224.022 505.431 224.022Z" fill="#5395B7"/>
<path d="M534.252 67.2578C536.111 77.1713 536.784 87.2705 536.258 97.343C535.776 109.939 500.577 204.948 495.061 219.689L505.37 223.921C505.37 223.921 548.733 135.671 549.916 123.938C553.085 92.3087 544.32 75.461 534.252 67.2578Z" fill="#3D88A5"/>
<path d="M489.986 60.7198C490.367 49.1671 483.287 30.7951 475.345 23.4945C468.345 17.0362 455.93 22.8527 454.807 34.2649C454.065 41.8063 467.583 73.4157 473.72 75.9429C479.196 75.2008 489.826 65.032 489.986 60.7198Z" fill="#FFBB83"/>
<path d="M494.419 44.172L487.62 45.3553L482.004 42.6878L478.755 46.6991C478.755 46.6991 469.328 23.6339 455.549 30.9345L451.698 28.5678C451.698 28.5678 465.237 14.5281 476.228 16.8948C489.525 19.6426 494.419 44.172 494.419 44.172Z" fill="#60454B"/>
<path d="M487.66 40.9633C486.758 37.1124 484.371 34.3646 482.345 34.846C480.32 35.3274 479.417 38.8573 480.34 42.6881C481.262 46.519 483.629 49.2868 485.655 48.7052C487.68 48.1235 488.563 44.7941 487.66 40.9633Z" fill="#FFBB83"/>
<path d="M486.075 40.7625C485.594 38.7568 484.33 37.2526 483.267 37.5133C482.204 37.774 481.703 39.6393 482.204 41.6851C482.706 43.7309 483.949 45.175 485.012 44.9143C486.075 44.6535 486.577 42.8083 486.075 40.7625Z" fill="#ED7656"/>
<path d="M485.153 42.5075C484.712 41.2038 483.829 40.3414 483.147 40.5018C482.465 40.6623 482.265 41.966 482.686 43.2697C483.107 44.5734 484.01 45.4358 484.692 45.2754C485.374 45.1149 485.574 43.8112 485.153 42.5075Z" fill="#FFBB83"/>
<path d="M567.186 393.581H543.699C543.699 393.581 559.203 384.716 563.636 384.716C568.068 384.716 567.186 393.581 567.186 393.581Z" fill="#FFF4D7"/>
<path d="M643 393.581H619.494C619.494 393.581 630.986 384.997 635.419 384.997C639.851 384.997 643 393.581 643 393.581Z" fill="#FFF4D7"/>
<path d="M320.367 94.3543C327.777 94.3543 333.785 92.3159 333.785 89.8015C333.785 87.287 327.777 85.2485 320.367 85.2485C312.956 85.2485 306.949 87.287 306.949 89.8015C306.949 92.3159 312.956 94.3543 320.367 94.3543Z" fill="#60454B"/>
<path d="M422.917 68.3005C422.405 66.4298 421.592 64.6549 420.51 63.0457C420.316 62.8182 420.077 62.6338 419.808 62.5041C415.656 59.7162 403.763 59.5357 401.476 61.9826C400.557 62.6454 399.757 63.4592 399.109 64.3894C398.588 65.0914 397.846 66.1344 396.963 67.418C398.381 69.5172 400.276 71.2509 402.492 72.4773C404.708 73.7037 407.184 74.3879 409.715 74.474C412.247 74.5601 414.763 74.0456 417.057 72.9725C419.352 71.8995 421.36 70.2985 422.917 68.3005Z" fill="#E24062"/>
<path d="M401.576 61.8624C402.78 67.1775 406.45 71.0685 410.802 71.0685C415.155 71.0685 418.504 67.5184 419.848 62.5443C415.816 59.7564 404.083 59.5358 401.576 61.8624Z" fill="#EACEA7"/>
<path d="M410.021 35.3074C413.5 43.4906 415.686 52.1652 416.499 61.0202C413.751 67.8996 406.892 67.679 404.926 60.3783C404.768 53.9908 403.9 47.6406 402.339 41.4447L410.021 35.3074Z" fill="#ED7656"/>
<path d="M393.112 47.6825C390.445 41.1841 387.877 28.3277 392.872 21.5084C396.742 16.1934 407.854 15.0702 410.923 21.348C413.751 27.365 414.292 39.2988 412.327 45.8373C410.1 53.3184 402.94 58.8942 402.94 58.8942C402.94 58.8942 395.7 54.1609 393.112 47.6825Z" fill="#FFBB83"/>
<path d="M393.112 11.5601C398.407 26.7631 411.565 41.0836 411.565 41.0836L416.559 25.6199L408.215 13.1044L393.112 11.5601Z" fill="#E04E2D"/>
<path d="M415.877 37.3932C416.619 34.144 415.877 31.2158 414.293 30.8347C412.708 30.4536 410.743 32.8404 409.98 36.0294C409.218 39.2184 409.98 42.2269 411.565 42.608C413.149 42.9891 415.175 40.6424 415.877 37.3932Z" fill="#FFBB83"/>
<path d="M414.674 36.9522C415.135 34.9466 414.674 33.2417 413.731 32.9409C412.789 32.64 411.605 34.1042 411.144 36.0697C410.683 38.0353 411.144 39.7802 412.107 40.0811C413.07 40.3819 414.233 38.9579 414.674 36.9522Z" fill="#ED7656"/>
<path d="M413.309 37.8343C413.61 36.4504 413.309 35.1868 412.647 35.0264C411.986 34.8659 411.163 35.8688 410.842 37.2727C410.521 38.6767 410.842 39.9202 411.504 40.0807C412.166 40.2411 412.988 39.2383 413.309 37.8343Z" fill="#FFBB83"/>
<path d="M179.508 208.718C174.38 207.707 169.099 207.756 163.99 208.864C158.881 209.971 154.054 212.113 149.804 215.156L154.678 228.895L178.746 226.448L179.508 208.718Z" fill="#FFEBCA"/>
<path d="M188.373 228.895C181.935 229.116 181.494 225.566 174.635 222.016C167.775 218.466 157.787 220.472 151.349 234.05H195.012C195.012 234.05 194.792 228.675 188.373 228.895Z" fill="#FFBB83"/>
<path d="M511.708 233.388H135.162L175.917 393.361H470.952L511.708 233.388Z" fill="#D6C9AE"/>
<path d="M342.048 255.049C404.224 255.049 459.741 269.691 496.605 292.696L511.708 233.388H135.162L156.904 318.73C187.43 281.304 258.832 255.049 342.048 255.049Z" fill="#CCB997"/>
<path d="M509.141 243.437L511.708 233.388H135.162L137.729 243.437H509.141Z" fill="#E5D8C3"/>
<path d="M185.104 72.9341C205.502 73.7364 211.418 52.1553 204.599 48.2643C191.723 40.9637 171.726 42.3676 156.784 60.2984C162.901 67.92 173.29 72.4728 185.104 72.9341Z" fill="#FFA539"/>
<path d="M206.263 49.5276C205.702 49.1064 205.16 48.6652 204.599 48.2641C194.57 41.2642 178.525 41.8458 164.806 52.5361C167.012 60.2379 175.336 65.9742 185.264 65.9742C196.556 65.9742 205.602 58.6935 206.263 49.5276Z" fill="#F9DEB7"/>
<path d="M183.279 60.3984C171.245 57.5704 172.107 47.9432 172.107 47.9432L182.717 29.6514L192.906 44.5536L183.279 60.3984Z" fill="#ED7656"/>
<path d="M179.909 54.3611C178.124 42.6279 181.313 22.2703 188.493 13.7863C194.831 6.38533 210.897 11.7806 213.284 23.4135C215.67 35.0464 206.063 61.5214 200.126 64.8708C196.195 67.037 181.454 64.5499 179.909 54.3611Z" fill="#FFBB83"/>
<path d="M186.929 39.5193C185.683 30.6664 186.16 21.6561 188.333 12.9841C187.862 13.3515 187.432 13.7684 187.049 14.2277C180.09 22.5513 176.8 44.9346 178.906 56.5876C180.752 66.616 200.307 67.8995 204.178 65.7535C206.946 64.2091 209.493 54.3011 209.954 46.7598C204.84 49.8686 188.754 49.6078 186.929 39.5193Z" fill="#99334E"/>
<path d="M176.499 40.3616L180.39 39.0779L184.702 40.1409C184.702 40.1409 189.235 18.0785 195.473 17.0757C201.71 16.0728 207.767 22.8922 213.163 22.2504C218.558 21.6085 219.621 14.4883 219.621 14.4883C219.621 14.4883 203.816 -8.5769 190.298 3.49727C173.731 1.75233 176.499 40.3616 176.499 40.3616Z" fill="#99334E"/>
<path d="M184.522 34.5455C184.522 30.6545 183.078 27.5056 181.313 27.5056C179.548 27.5056 178.084 30.6545 178.084 34.5455C178.084 38.4365 179.528 41.5854 181.313 41.5854C183.098 41.5854 184.522 38.4365 184.522 34.5455Z" fill="#FFBB83"/>
<path d="M183.138 34.2444C183.138 31.7574 182.236 29.7517 181.133 29.7517C180.03 29.7517 179.127 31.7574 179.127 34.2444C179.127 36.7314 180.05 38.7572 181.133 38.7572C182.216 38.7572 183.138 36.7314 183.138 34.2444Z" fill="#ED7656"/>
<path d="M182.957 36.1095C182.957 34.4849 182.355 33.1611 181.613 33.1611C180.871 33.1611 180.27 34.4849 180.27 36.1095C180.27 37.7341 180.871 39.0378 181.613 39.0378C182.355 39.0378 182.957 37.7341 182.957 36.1095Z" fill="#FFBB83"/>
<path d="M538.504 152.6L492.754 137.236C492.293 140.566 491.872 143.915 491.431 147.264L534.493 161.765C535.876 158.576 537.22 155.528 538.504 152.6Z" fill="#FFEBCA"/>
<path d="M543.317 141.247L494.439 124.801C494.178 126.686 493.917 128.611 493.657 130.517L541.111 146.562C541.893 144.717 542.615 142.952 543.317 141.247Z" fill="#FFEBCA"/>
<path d="M197.018 35.2873C197.278 33.9836 196.817 32.7802 196.015 32.6197C195.213 32.4593 194.37 33.3819 194.13 34.6254C193.889 35.8689 194.33 37.1325 195.132 37.293C195.935 37.4534 196.777 36.611 197.018 35.2873Z" fill="#604748"/>
<path d="M198.362 27.6254L193.027 27.2443C192.924 27.2333 192.819 27.2434 192.72 27.2742C192.621 27.3051 192.529 27.3558 192.45 27.4235C192.371 27.4911 192.307 27.5742 192.261 27.6675C192.216 27.7609 192.189 27.8625 192.185 27.9663V29.611C192.189 29.823 192.271 30.0261 192.415 30.1815C192.559 30.3369 192.756 30.4337 192.967 30.4534L198.302 30.8345C198.407 30.8427 198.513 30.8299 198.614 30.797C198.714 30.7641 198.807 30.7117 198.887 30.6427C198.968 30.5738 199.033 30.4897 199.081 30.3952C199.128 30.3007 199.157 30.1978 199.164 30.0923V28.4678C199.167 28.3598 199.148 28.2523 199.109 28.1515C199.071 28.0508 199.012 27.9586 198.938 27.8803C198.863 27.8021 198.774 27.7394 198.675 27.6956C198.576 27.6519 198.47 27.628 198.362 27.6254Z" fill="#99334E"/>
<path d="M208.811 37.1125C209.012 35.7888 208.53 34.5854 207.728 34.445C206.926 34.3046 206.103 35.2673 205.883 36.5911C205.662 37.9148 206.163 39.0982 206.986 39.2386C207.808 39.379 208.59 38.4363 208.811 37.1125Z" fill="#604748"/>
<path d="M212.06 31.236L207.166 29.2304C207.072 29.1871 206.969 29.1632 206.865 29.16C206.761 29.1568 206.658 29.1745 206.56 29.2118C206.463 29.2492 206.375 29.3056 206.3 29.3776C206.224 29.4497 206.164 29.536 206.123 29.6315L205.501 31.1558C205.429 31.3556 205.436 31.5758 205.522 31.7703C205.608 31.9647 205.766 32.1183 205.963 32.1988L210.857 34.3047C210.951 34.348 211.054 34.3719 211.158 34.3751C211.262 34.3782 211.365 34.3606 211.462 34.3233C211.559 34.2859 211.648 34.2296 211.723 34.1575C211.798 34.0855 211.858 33.9991 211.9 33.9036L212.521 32.3793C212.573 32.275 212.603 32.1608 212.608 32.0444C212.612 31.9279 212.592 31.8117 212.548 31.7036C212.505 31.5955 212.439 31.498 212.355 31.4173C212.27 31.3367 212.17 31.2749 212.06 31.236Z" fill="#99334E"/>
<path d="M200.828 36.9521C201.771 41.6254 201.931 44.5537 200.588 45.4763C200.152 45.7 199.664 45.8048 199.175 45.7801C198.685 45.7555 198.211 45.6022 197.8 45.3359C197.8 45.3359 200.367 47.3416 201.811 46.4992C203.255 45.6568 202.573 42.3073 200.828 36.9521Z" fill="#ED7656"/>
<path d="M202.133 50.3298L193.268 49.1665C193.268 49.1665 192.546 53.1779 195.434 55.0231C198.563 57.0087 202.133 50.3298 202.133 50.3298Z" fill="#422931"/>
<path d="M199.124 52.4159C199.68 52.0229 200.168 51.5419 200.568 50.9919L193.929 49.8286C193.845 50.3322 193.915 50.8497 194.13 51.3128L199.124 52.4159Z" fill="#FFEFDC"/>
<path d="M313.708 114.19C313.708 112.726 312.906 111.563 312.003 111.583C311.101 111.603 310.459 112.786 310.499 114.25C310.539 115.715 311.321 116.858 312.204 116.858C313.086 116.858 313.768 115.634 313.708 114.19Z" fill="#604748"/>
<path d="M314.19 106.047L308.433 106.91C308.32 106.924 308.211 106.962 308.113 107.02C308.015 107.078 307.929 107.155 307.862 107.247C307.794 107.338 307.746 107.443 307.72 107.554C307.694 107.665 307.691 107.78 307.711 107.893L308.032 109.638C308.081 109.867 308.217 110.069 308.411 110.2C308.606 110.331 308.844 110.381 309.075 110.34L314.811 109.477C314.924 109.462 315.033 109.425 315.132 109.367C315.23 109.309 315.315 109.232 315.383 109.14C315.45 109.048 315.498 108.944 315.524 108.833C315.55 108.722 315.553 108.607 315.533 108.494L315.212 106.749C315.169 106.521 315.037 106.32 314.845 106.188C314.654 106.057 314.418 106.006 314.19 106.047Z" fill="#60454B"/>
<path d="M330.074 114.19C330.074 112.726 329.251 111.563 328.369 111.583C327.486 111.603 326.804 112.786 326.844 114.25C326.885 115.715 327.667 116.858 328.549 116.858C329.432 116.858 330.114 115.634 330.074 114.19Z" fill="#604748"/>
<path d="M332.602 107.773L327.106 105.948C326.999 105.909 326.886 105.892 326.773 105.898C326.66 105.904 326.549 105.931 326.447 105.98C326.344 106.028 326.252 106.096 326.176 106.18C326.1 106.264 326.041 106.362 326.003 106.469L325.482 108.174C325.419 108.395 325.444 108.631 325.553 108.833C325.661 109.036 325.844 109.187 326.063 109.257L331.559 111.082C331.665 111.12 331.779 111.137 331.892 111.132C332.005 111.126 332.116 111.098 332.218 111.05C332.321 111.001 332.413 110.933 332.489 110.849C332.565 110.765 332.624 110.667 332.662 110.561L333.183 108.856C333.246 108.635 333.221 108.398 333.112 108.196C333.004 107.994 332.82 107.842 332.602 107.773Z" fill="#60454B"/>
<path d="M323.335 118.583C322.031 121.15 320.908 122.414 319.484 121.632C318.618 121.026 317.926 120.203 317.479 119.245C318.002 120.699 318.877 122.002 320.026 123.036C321.349 123.918 322.272 122.073 323.335 118.583Z" fill="#ED7656"/>
<path d="M325.321 125.563H313.587C313.636 127.018 314.186 128.411 315.143 129.507C316.101 130.604 317.407 131.336 318.842 131.58C324.197 132.863 325.321 125.563 325.321 125.563Z" fill="#422931"/>
<path d="M323.234 128.912C323.712 128.036 324.044 127.088 324.217 126.104H314.771C314.806 127.05 315.104 127.967 315.633 128.752L323.234 128.912Z" fill="#FFEFDC"/>
<path d="M465.417 48.5646C464.675 47.3011 464.695 45.8971 465.417 45.4358C466.139 44.9745 467.423 45.6163 468.125 46.8799C468.827 48.1435 468.827 49.5273 468.125 49.9887C467.423 50.45 466.139 49.8082 465.417 48.5646Z" fill="#604748"/>
<path d="M460.945 41.4451L466.28 39.0985C466.382 39.0493 466.493 39.0217 466.606 39.0174C466.719 39.0132 466.832 39.0324 466.938 39.0738C467.043 39.1152 467.139 39.178 467.219 39.2582C467.299 39.3383 467.362 39.4342 467.403 39.5398L468.085 41.1844C468.16 41.4031 468.15 41.642 468.057 41.8537C467.964 42.0654 467.795 42.2346 467.583 42.3276L462.268 44.6743C462.061 44.7698 461.824 44.7791 461.61 44.7001C461.395 44.6212 461.221 44.4604 461.125 44.2531L460.463 42.5884C460.382 42.3724 460.387 42.1336 460.476 41.921C460.566 41.7084 460.734 41.5381 460.945 41.4451Z" fill="#60454B"/>
<path d="M459.42 50.6305C458.879 49.2667 458.718 48.0432 459.099 47.8828C459.48 47.7223 460.223 48.665 460.764 50.0088C461.306 51.3526 461.466 52.576 461.105 52.7566C460.744 52.9371 459.982 51.9743 459.42 50.6305Z" fill="#604748"/>
<path d="M455.289 44.975L457.154 43.8518C457.315 43.7516 457.656 43.9922 457.896 44.3933L458.859 45.8976C459.12 46.2987 459.2 46.6798 459.039 46.7801L457.154 47.9234C457.014 47.9234 456.673 47.7629 456.412 47.3618L455.469 45.8776C455.108 45.4163 455.028 44.975 455.289 44.975Z" fill="#60454B"/>
<path d="M463.191 50.9919C462.269 56.0864 462.148 59.2954 463.632 60.2582C464.115 60.495 464.651 60.5994 465.187 60.5606C465.722 60.5219 466.238 60.3414 466.681 60.0376V60.1378C466.681 60.1378 463.953 62.3642 462.349 61.4817C460.744 60.5992 461.466 56.8485 463.191 50.9919Z" fill="#ED7656"/>
<path d="M467.322 63.0256L474.041 58.1519C474.041 58.1519 478.313 61.4412 474.322 64.9912C471.193 67.6588 467.322 63.0256 467.322 63.0256Z" fill="#422931"/>
<path d="M469.63 64.4296C468.986 64.0292 468.399 63.5434 467.885 62.9855L473.4 59.1145C474.053 59.7132 474.508 60.4969 474.704 61.3609L469.63 64.4296Z" fill="#FFEFDC"/>
<path d="M401.958 35.809C401.536 34.5655 401.677 33.4223 402.258 33.2618C402.84 33.1014 403.642 33.9638 404.064 35.2675C404.485 36.5712 404.344 37.6342 403.763 37.8147C403.181 37.9952 402.379 37.0525 401.958 35.809Z" fill="#604748"/>
<path d="M390.846 38.9577C390.425 37.6942 390.565 36.5309 391.167 36.3504C391.769 36.1699 392.591 37.0724 393.032 38.3561C393.473 39.6397 393.313 40.7829 392.711 40.9634C392.11 41.1439 391.267 40.2614 390.846 38.9577Z" fill="#604748"/>
<path d="M398.267 29.6914L403.221 29.2501C403.505 29.2192 403.791 29.2885 404.029 29.446C404.267 29.6035 404.442 29.8393 404.525 30.1125L404.745 31.1956C404.772 31.3239 404.77 31.4566 404.739 31.584C404.708 31.7114 404.649 31.8303 404.567 31.9321C404.484 32.0339 404.38 32.116 404.262 32.1725C404.143 32.229 404.014 32.2584 403.883 32.2586L398.929 32.72C398.639 32.7591 398.344 32.6911 398.1 32.5286C397.857 32.3662 397.681 32.1204 397.605 31.8375L397.364 30.7745C397.337 30.6418 397.34 30.5047 397.373 30.3734C397.407 30.2421 397.469 30.12 397.555 30.016C397.642 29.9119 397.751 29.8287 397.874 29.7725C397.997 29.7163 398.132 29.6886 398.267 29.6914Z" fill="#E04E2D"/>
<path d="M387.517 34.4248L390.525 32.1986C390.627 32.1372 390.742 32.0983 390.86 32.0844C390.979 32.0704 391.099 32.0819 391.213 32.1179C391.327 32.1539 391.431 32.2137 391.52 32.2933C391.609 32.3729 391.68 32.4705 391.729 32.5797L392.33 33.5223C392.478 33.7259 392.547 33.9761 392.525 34.2268C392.503 34.4774 392.391 34.7116 392.21 34.8862L389.221 37.1325C389.118 37.1942 389.002 37.2333 388.882 37.2473C388.762 37.2614 388.64 37.2502 388.525 37.2142C388.41 37.1783 388.303 37.1185 388.212 37.0388C388.122 36.9591 388.048 36.8612 387.998 36.7514L387.396 35.7887C387.24 35.5885 387.165 35.3363 387.187 35.0831C387.21 34.8299 387.327 34.5946 387.517 34.4248Z" fill="#E04E2D"/>
<path d="M388.6 38.2557L395.078 36.3704L396.863 41.6654C396.958 42.0108 396.981 42.3721 396.93 42.7268C396.879 43.0815 396.756 43.4219 396.568 43.7268C396.38 44.0316 396.131 44.2945 395.836 44.4988C395.542 44.7032 395.209 44.8447 394.857 44.9146L393.915 45.1953C393.227 45.4419 392.471 45.415 391.803 45.1201C391.135 44.8252 390.606 44.2849 390.324 43.6109L388.6 38.2557Z" fill="#FFF1DC"/>
<path d="M397.003 36.1495L404.465 34.0034L406.23 39.2383C406.335 39.5435 406.377 39.8668 406.354 40.1888C406.331 40.5108 406.242 40.8248 406.094 41.1117C405.946 41.3985 405.741 41.6524 405.492 41.8578C405.243 42.0632 404.955 42.2161 404.645 42.3069L402.038 43.0891C401.394 43.2881 400.698 43.2301 400.096 42.9272C399.494 42.6244 399.032 42.1002 398.809 41.4645L397.003 36.1495Z" fill="#FFF1DC"/>
<path d="M417.541 29.8921L418.364 31.0554L389.161 39.5394L388.7 38.1956L417.541 29.8921Z" fill="#FFF1DC"/>
<path d="M389.583 39.1583L394.256 37.7944L395.56 41.6252C395.632 41.8716 395.653 42.13 395.622 42.3848C395.591 42.6396 395.508 42.8853 395.378 43.1069C395.249 43.3285 395.075 43.5213 394.868 43.6735C394.662 43.8257 394.426 43.934 394.176 43.992L393.494 44.1925C393.247 44.2891 392.983 44.3357 392.717 44.3294C392.451 44.3231 392.19 44.2642 391.947 44.1559C391.705 44.0477 391.486 43.8924 391.304 43.699C391.122 43.5055 390.98 43.2779 390.887 43.0292L389.583 39.1583Z" fill="#FFBB83"/>
<path d="M398.468 36.6312L403.602 35.127L404.886 38.8976C404.941 39.1586 404.944 39.428 404.894 39.69C404.844 39.9521 404.743 40.2016 404.595 40.4239C404.447 40.6461 404.257 40.8367 404.035 40.9845C403.813 41.1322 403.563 41.2342 403.301 41.2844L402.539 41.5251C402.023 41.7277 401.45 41.7287 400.934 41.5281C400.417 41.3274 399.995 40.9396 399.751 40.442L398.468 36.6312Z" fill="#FFBB83"/>
<path d="M403.141 37.8944C402.559 38.0548 401.757 37.1924 401.336 35.8887C401.336 35.8887 401.336 35.7483 401.336 35.6881L403.342 35.0864C403.345 35.1532 403.345 35.2202 403.342 35.287C403.883 36.5706 403.743 37.7138 403.141 37.8944Z" fill="#604748"/>
<path d="M392.089 41.1238C391.488 41.3043 390.645 40.4218 390.204 39.1181C390.204 39.1181 390.204 39.1182 390.204 38.9778L392.35 38.3359V38.4964C392.832 39.78 392.691 40.9633 392.089 41.1238Z" fill="#604748"/>
<path d="M397.003 38.958L397.504 39.4795C397.003 41.4852 396.702 44.7344 399.51 43.6112C399.51 43.6112 399.51 43.7716 399.51 43.8519C394.857 46.4592 396.481 40.1815 397.003 38.958Z" fill="#ED7656"/>
<path d="M397.425 48.4445C397.512 48.6641 397.613 48.8784 397.726 49.0862C398.289 50.1195 399.223 50.9009 400.34 51.2731C401.456 51.6452 402.672 51.5805 403.743 51.0919C404.638 50.5375 405.293 49.6679 405.579 48.6543C405.865 47.6408 405.761 46.557 405.287 45.6165L397.425 48.4445Z" fill="#492E36"/>
<path d="M398.207 48.545C398.264 48.7192 398.337 48.8872 398.428 49.0465C398.949 49.8743 399.773 50.4668 400.723 50.6988C401.674 50.9309 402.678 50.7843 403.522 50.29C404.269 49.8913 404.839 49.2277 405.121 48.4297C405.403 47.6317 405.377 46.7571 405.046 45.9778L398.207 48.545Z" fill="#F9EBD7"/>
<path d="M402.8 84.2863C401.095 77.7879 400.494 73.3553 402.94 72.6132C405.387 71.8711 407.513 72.6133 406.952 76.4641C406.39 80.315 405.628 82.2204 406.069 83.9253C406.511 85.6301 402.8 84.2863 402.8 84.2863Z" fill="#FFBB83"/>
<path d="M403.823 75.8625C406.832 78.5702 407.955 79.8739 408.416 79.0515C408.878 78.2292 406.19 74.8397 405.007 74.4586C403.823 74.0775 403.141 75.2007 403.823 75.8625Z" fill="#FFBB83"/>
<path d="M404.445 74.1774C408.115 75.8822 409.6 76.845 409.76 75.8823C409.92 74.9195 406.39 72.5127 405.167 72.4927C403.943 72.4726 403.542 73.7763 404.445 74.1774Z" fill="#FFBB83"/>
<path d="M403.963 74.1973C407.974 73.1945 409.639 72.9939 409.157 72.1916C408.676 71.3894 404.424 71.7103 403.461 72.4925C402.498 73.2747 403 74.458 403.963 74.1973Z" fill="#FFBB83"/>
<path d="M402.499 78.0083C399.21 75.3407 397.606 74.3579 398.488 73.8164C399.371 73.2749 403.342 75.5413 403.863 76.6845C404.385 77.8277 403.302 78.6701 402.499 78.0083Z" fill="#FFBB83"/>
<path d="M403.864 75.0598C401.236 72.6329 399.852 71.7304 400.675 71.249C401.497 70.7676 404.545 72.8535 404.987 73.8764C405.428 74.8993 404.505 75.7217 403.864 75.0598Z" fill="#FFBB83"/>
<path d="M405.268 72.914C402.64 70.4671 401.357 69.5846 402.079 69.1033C402.801 68.6219 405.95 70.7078 406.391 71.7307C406.832 72.7536 405.91 73.5157 405.268 72.914Z" fill="#FFBB83"/>
</svg>
