<svg width="729" height="451" viewBox="0 0 729 451" fill="none" xmlns="http://www.w3.org/2000/svg">
<g clip-path="url(#clip0)">
<path d="M17.0241 172.768C8.78371 134.394 26.1605 91.2814 62.5657 76.4482C91.2225 64.8098 135.077 60.9479 193.797 75.0965C349.151 112.575 335.763 69.8303 396.011 36.3019C449.072 6.8637 513.871 -29.2626 626.354 38.9702C711.675 90.7197 661.178 171.433 718.773 220.936C755.793 252.779 693.314 407.009 513.871 373.481C334.428 339.953 293.77 386.945 212.597 404.253C130.913 421.65 -37.777 318.238 7.69437 270.456C34.436 242.352 22.2248 196.904 17.0241 172.768Z" fill="#F8F8FF"/>
<path d="M63.5156 182.141C56.3997 149.21 71.3694 112.03 102.662 99.3387C127.26 89.2978 165 86.0152 215.462 98.1802C348.994 130.392 337.486 93.581 389.282 64.8274C434.877 39.5143 490.591 8.47868 587.28 67.1269C660.617 111.609 617.149 180.983 666.714 223.534C698.551 250.901 644.822 383.434 490.609 354.593C336.396 325.752 301.414 366.179 231.591 381.047C161.311 395.986 16.3575 307.039 55.4685 266.033C78.4853 241.948 67.9784 202.873 63.5156 182.141Z" fill="#F5F5FC"/>
<path d="M115.646 184.213C109.567 155.968 122.34 124.195 149.17 113.294C170.254 104.728 202.548 101.901 245.805 112.311C360.151 139.889 350.259 108.379 394.641 83.7681C433.699 62.0888 481.385 35.5119 564.192 85.7342C626.97 123.809 589.81 183.23 632.206 219.654C659.457 243.072 613.459 356.576 481.385 332.001C349.31 307.425 319.389 341.919 259.598 354.645C199.473 367.46 75.3227 291.293 108.794 256.184C128.472 235.436 119.476 201.977 115.646 184.213Z" fill="#BAC6F2"/>
<path d="M136.888 206.226C139.847 206.226 142.247 203.829 142.247 200.872C142.247 197.915 139.847 195.518 136.888 195.518C133.928 195.518 131.529 197.915 131.529 200.872C131.529 203.829 133.928 206.226 136.888 206.226Z" fill="white"/>
<path d="M178.74 171.433C180.399 171.433 181.744 170.089 181.744 168.432C181.744 166.774 180.399 165.43 178.74 165.43C177.081 165.43 175.735 166.774 175.735 168.432C175.735 170.089 177.081 171.433 178.74 171.433Z" fill="white"/>
<path d="M189.106 253.06C190.959 253.06 192.462 251.559 192.462 249.707C192.462 247.855 190.959 246.354 189.106 246.354C187.252 246.354 185.75 247.855 185.75 249.707C185.75 251.559 187.252 253.06 189.106 253.06Z" fill="white"/>
<path d="M160.66 299.894C162.698 299.894 164.35 298.244 164.35 296.208C164.35 294.172 162.698 292.521 160.66 292.521C158.623 292.521 156.971 294.172 156.971 296.208C156.971 298.244 158.623 299.894 160.66 299.894Z" fill="white"/>
<path d="M245.699 315.272C247.737 315.272 249.389 313.621 249.389 311.585C249.389 309.549 247.737 307.899 245.699 307.899C243.662 307.899 242.01 309.549 242.01 311.585C242.01 313.621 243.662 315.272 245.699 315.272Z" fill="white"/>
<path d="M404.726 313.937C406.948 313.937 408.75 312.138 408.75 309.918C408.75 307.697 406.948 305.898 404.726 305.898C402.504 305.898 400.703 307.697 400.703 309.918C400.703 312.138 402.504 313.937 404.726 313.937Z" fill="white"/>
<path d="M470.684 227.641C472.722 227.641 474.374 225.991 474.374 223.955C474.374 221.919 472.722 220.269 470.684 220.269C468.647 220.269 466.995 221.919 466.995 223.955C466.995 225.991 468.647 227.641 470.684 227.641Z" fill="white"/>
<path d="M521.233 176.787C522.708 176.787 523.904 175.593 523.904 174.119C523.904 172.646 522.708 171.451 521.233 171.451C519.758 171.451 518.562 172.646 518.562 174.119C518.562 175.593 519.758 176.787 521.233 176.787Z" fill="white"/>
<path d="M562.418 188.847C564.456 188.847 566.107 187.197 566.107 185.161C566.107 183.125 564.456 181.474 562.418 181.474C560.38 181.474 558.728 183.125 558.728 185.161C558.728 187.197 560.38 188.847 562.418 188.847Z" fill="white"/>
<path d="M592.884 142.013C594.738 142.013 596.24 140.512 596.24 138.66C596.24 136.808 594.738 135.307 592.884 135.307C591.031 135.307 589.528 136.808 589.528 138.66C589.528 140.512 591.031 142.013 592.884 142.013Z" fill="white"/>
<path d="M586.858 277.811C588.711 277.811 590.214 276.31 590.214 274.458C590.214 272.607 588.711 271.105 586.858 271.105C585.004 271.105 583.502 272.607 583.502 274.458C583.502 276.31 585.004 277.811 586.858 277.811Z" fill="white"/>
<path d="M531.617 319.291C533.655 319.291 535.307 317.641 535.307 315.605C535.307 313.569 533.655 311.919 531.617 311.919C529.58 311.919 527.928 313.569 527.928 315.605C527.928 317.641 529.58 319.291 531.617 319.291Z" fill="white"/>
<path d="M331.072 271.79C334.401 271.79 337.099 269.094 337.099 265.769C337.099 262.444 334.401 259.748 331.072 259.748C327.744 259.748 325.046 262.444 325.046 265.769C325.046 269.094 327.744 271.79 331.072 271.79Z" fill="white"/>
<path d="M360.537 206.225C363.866 206.225 366.564 203.53 366.564 200.204C366.564 196.879 363.866 194.183 360.537 194.183C357.209 194.183 354.511 196.879 354.511 200.204C354.511 203.53 357.209 206.225 360.537 206.225Z" fill="white"/>
<path d="M437.529 177.454C440.858 177.454 443.556 174.759 443.556 171.433C443.556 168.108 440.858 165.412 437.529 165.412C434.201 165.412 431.503 168.108 431.503 171.433C431.503 174.759 434.201 177.454 437.529 177.454Z" fill="white"/>
<path d="M437.196 268.437C440.709 268.437 443.556 265.592 443.556 262.083C443.556 258.573 440.709 255.728 437.196 255.728C433.683 255.728 430.835 258.573 430.835 262.083C430.835 265.592 433.683 268.437 437.196 268.437Z" fill="white"/>
<path d="M502.82 259.748C506.333 259.748 509.18 256.903 509.18 253.393C509.18 249.884 506.333 247.039 502.82 247.039C499.307 247.039 496.459 249.884 496.459 253.393C496.459 256.903 499.307 259.748 502.82 259.748Z" fill="white"/>
<path d="M306.299 232.311C309.627 232.311 312.325 229.615 312.325 226.29C312.325 222.965 309.627 220.269 306.299 220.269C302.97 220.269 300.272 222.965 300.272 226.29C300.272 229.615 302.97 232.311 306.299 232.311Z" fill="white"/>
<path d="M345.129 285.833C348.457 285.833 351.155 283.138 351.155 279.812C351.155 276.487 348.457 273.791 345.129 273.791C341.8 273.791 339.102 276.487 339.102 279.812C339.102 283.138 341.8 285.833 345.129 285.833Z" fill="white"/>
<path d="M388.65 239.684C391.978 239.684 394.676 236.988 394.676 233.663C394.676 230.337 391.978 227.642 388.65 227.642C385.321 227.642 382.623 230.337 382.623 233.663C382.623 236.988 385.321 239.684 388.65 239.684Z" fill="white"/>
<path d="M232.978 255.728C236.122 255.728 238.671 253.182 238.671 250.041C238.671 246.899 236.122 244.353 232.978 244.353C229.834 244.353 227.286 246.899 227.286 250.041C227.286 253.182 229.834 255.728 232.978 255.728Z" fill="white"/>
<path d="M290.556 182.791C293.7 182.791 296.249 180.244 296.249 177.103C296.249 173.962 293.7 171.416 290.556 171.416C287.412 171.416 284.863 173.962 284.863 177.103C284.863 180.244 287.412 182.791 290.556 182.791Z" fill="white"/>
<path d="M115.031 294.119L136.888 200.872L230.624 250.374L305.613 226.29L331.072 265.769L345.128 281.814L388.65 232.978L436.862 263.083L501.818 253.06" stroke="white" stroke-width="3" stroke-linecap="round" stroke-linejoin="round"/>
<path d="M308.214 226.325L359.712 199.502L437.53 171.433" stroke="white" stroke-width="3" stroke-miterlimit="10"/>
<path d="M236.317 138.642C237.976 138.642 239.321 137.298 239.321 135.64C239.321 133.983 237.976 132.639 236.317 132.639C234.658 132.639 233.312 133.983 233.312 135.64C233.312 137.298 234.658 138.642 236.317 138.642Z" fill="white"/>
<path d="M454.942 85.8044C456.417 85.8044 457.612 84.6098 457.612 83.1362C457.612 81.6626 456.417 80.468 454.942 80.468C453.467 80.468 452.271 81.6626 452.271 83.1362C452.271 84.6098 453.467 85.8044 454.942 85.8044Z" fill="white"/>
<path d="M295.247 152.036C296.907 152.036 298.252 150.692 298.252 149.034C298.252 147.376 296.907 146.032 295.247 146.032C293.588 146.032 292.243 147.376 292.243 149.034C292.243 150.692 293.588 152.036 295.247 152.036Z" fill="white"/>
<path d="M389.985 132.621C391.46 132.621 392.656 131.427 392.656 129.953C392.656 128.48 391.46 127.285 389.985 127.285C388.51 127.285 387.314 128.48 387.314 129.953C387.314 131.427 388.51 132.621 389.985 132.621Z" fill="white"/>
<path d="M231.626 200.872C232.916 200.872 233.963 199.826 233.963 198.537C233.963 197.247 232.916 196.202 231.626 196.202C230.335 196.202 229.289 197.247 229.289 198.537C229.289 199.826 230.335 200.872 231.626 200.872Z" fill="white"/>
<path d="M497.127 108.555C499.349 108.555 501.151 106.755 501.151 104.535C501.151 102.315 499.349 100.515 497.127 100.515C494.905 100.515 493.104 102.315 493.104 104.535C493.104 106.755 494.905 108.555 497.127 108.555Z" fill="white"/>
<path d="M420.803 143.996C422.278 143.996 423.474 142.802 423.474 141.328C423.474 139.855 422.278 138.66 420.803 138.66C419.328 138.66 418.132 139.855 418.132 141.328C418.132 142.802 419.328 143.996 420.803 143.996Z" fill="white"/>
<path d="M150.276 132.639C152.13 132.639 153.632 131.138 153.632 129.286C153.632 127.434 152.13 125.933 150.276 125.933C148.423 125.933 146.92 127.434 146.92 129.286C146.92 131.138 148.423 132.639 150.276 132.639Z" fill="white"/>
<path d="M549.363 229.643C551.217 229.643 552.719 228.142 552.719 226.29C552.719 224.438 551.217 222.937 549.363 222.937C547.51 222.937 546.007 224.438 546.007 226.29C546.007 228.142 547.51 229.643 549.363 229.643Z" fill="white"/>
<path d="M586.858 274.458L549.363 226.29L562.084 184.81L521.233 174.119" stroke="white" stroke-width="3" stroke-miterlimit="10"/>
<path d="M290.556 177.103L305.631 226.29" stroke="white" stroke-width="3" stroke-linecap="round" stroke-linejoin="round"/>
<path d="M441.008 296.032L443.169 296.296C443.995 299.174 443.503 302.211 442.344 302.773C441.184 303.335 442.062 298.665 441.008 296.032Z" fill="#FF9D66"/>
<path d="M440.025 297.314L437.987 297.138C435.105 299.912 433.225 303.089 433.787 303.897C434.35 304.704 437.108 299.771 440.025 297.314Z" fill="#FF9D66"/>
<path d="M441.008 297.261L439.023 297.507C437.371 300.316 436.827 303.282 437.67 303.844C438.513 304.406 439.251 299.842 441.008 297.261Z" fill="#FF9D66"/>
<path d="M441.992 297.244H440.06C438.97 300 438.988 303.054 439.937 303.756C440.886 304.458 440.692 299.719 441.992 297.244Z" fill="#FF9D66"/>
<path d="M449.214 294.33C449.214 294.33 440.728 292.978 437.144 298.016L442.819 299.613C443.592 296.735 451.41 295.699 451.41 295.699L449.214 294.33Z" fill="#FF9D66"/>
<path d="M450.602 298.858L451.252 300.93C448.968 302.878 445.981 303.686 445.015 302.861C444.048 302.036 448.651 300.93 450.602 298.858Z" fill="#FF9D66"/>
<path d="M450.619 300.614L448.564 300.438C445.682 303.194 443.802 306.389 444.382 307.197C444.962 308.004 447.703 303.072 450.619 300.614Z" fill="#FFBB83"/>
<path d="M452.851 301L450.865 301.246C449.213 304.055 448.651 307.021 449.512 307.583C450.373 308.145 451.041 303.563 452.851 301Z" fill="#FFBB83"/>
<path d="M454.871 301.105H452.956C451.867 303.861 451.884 306.916 452.833 307.618C453.782 308.32 453.589 303.581 454.871 301.105Z" fill="#FFBB83"/>
<path d="M442.291 313.13H456.54V451H453.694L442.291 313.13Z" fill="#A57E6A"/>
<path d="M560.362 368.197H488.904V376.992H560.362V368.197Z" fill="#DBB589"/>
<path d="M551.173 227.764H591.057L566.758 365.985H526.891L551.173 227.764Z" fill="#EAC89B"/>
<path d="M546.253 227.764H586.137L561.838 365.985H521.972L546.253 227.764Z" fill="#F9DEB7"/>
<path d="M520.197 361.772H531.565L535.132 450.947H532.461L520.197 361.772Z" fill="#DBB589"/>
<path d="M555.179 361.772H566.547L570.113 450.947H567.443L555.179 361.772Z" fill="#EAC89B"/>
<path d="M526.311 361.72L514.943 361.772L503.066 451L505.754 450.982L526.311 361.72Z" fill="#EAC89B"/>
<path d="M495.686 361.772H484.336L472.195 450.947H474.866L495.686 361.772Z" fill="#EAC89B"/>
<path d="M484.565 371.866H564.544V361.211H484.565V371.866Z" fill="#EAC89B"/>
<path d="M521.972 365.985L562.699 367.741L568.884 326.032C568.409 287.413 556.848 256.079 542.037 251.849L521.972 365.985Z" fill="#EAC89B"/>
<path d="M231.029 366.372H158.271V377.747H231.029V366.372Z" fill="#DBB589"/>
<path d="M194.799 361.72L206.15 361.772L218.027 451L215.356 450.982L194.799 361.72Z" fill="#DBB589"/>
<path d="M169.92 227.764H130.036L154.335 365.985H194.202L169.92 227.764Z" fill="#EAC89B"/>
<path d="M173.557 227.764H133.673L157.955 365.985H197.839L173.557 227.764Z" fill="#F9DEB7"/>
<path d="M200.896 361.772H189.528L185.961 450.947H188.632L200.896 361.772Z" fill="#EAC89B"/>
<path d="M165.914 361.772H154.546L150.979 450.947H153.65L165.914 361.772Z" fill="#EAC89B"/>
<path d="M225.406 361.772H236.757L248.897 450.947H246.227L225.406 361.772Z" fill="#EAC89B"/>
<path d="M236.528 361.228H156.549V371.884H236.528V361.228Z" fill="#EAC89B"/>
<path d="M147.694 307.583L156.988 367.934L197.839 365.986L173.627 228.203C159.167 236.068 148.221 268.42 147.694 307.583Z" fill="#EAC89B"/>
<path d="M365.668 155.863H348.713L336.502 287.448H353.439L365.668 155.863Z" fill="#D1B38B"/>
<path d="M348.45 235.225L336.502 287.448H353.439L354.792 233.031L348.45 235.225Z" fill="#C6A379"/>
<path d="M365.018 162.92L365.668 155.898H348.713L345.199 193.464C351.208 177.858 358.306 166.624 365.018 162.92Z" fill="#C6A379"/>
<path d="M534.991 197.993C520.513 163.727 487.552 153.3 475.991 172.557C468.963 184.265 469.806 194.377 479.856 207.542C488.553 218.952 506.387 236.313 517.685 236.998C533.638 237.981 545.621 223.148 534.991 197.993Z" fill="#60454B"/>
<path d="M540.121 220.058C538.698 193.113 523.026 175.822 507.195 183.879C493.139 191.041 486.287 215.161 490.152 236.261C493.666 255.307 505.21 267.858 517.263 265.664C530.616 263.311 541.387 243.844 540.121 220.058Z" fill="#60454B"/>
<path d="M495.37 282.832C499.552 279.321 506.949 223.148 510.164 222.498C511.71 222.2 515.611 229.379 515.014 243.317C514.346 258.502 509.04 280.848 507.388 288.958C504.261 304.493 483.458 292.574 495.37 282.832Z" fill="#E03B5F"/>
<path d="M508.618 293.522C509.936 289.327 506.562 284.535 501.063 282.814C495.563 281.094 490.046 283.078 488.764 287.273C487.481 291.468 490.837 296.261 496.319 297.981C501.801 299.701 507.3 297.7 508.618 293.522Z" fill="#F9DEB7"/>
<path d="M493.877 284.06C481.947 287.448 446.28 293.926 445.419 294.488L444.944 296.383C468.453 299.613 494.351 298.683 502.627 296.612C508.917 295.049 503.136 281.41 493.877 284.06Z" fill="#FFBB83"/>
<path d="M499.534 284.376C499.834 285.247 499.779 286.201 499.381 287.032C498.983 287.862 498.275 288.504 497.408 288.818C490.011 291.609 467.399 295.172 445.208 295.242L444.944 296.313C468.453 299.543 494.351 298.613 502.627 296.541C507.476 295.4 505.139 286.992 499.534 284.376Z" fill="#FF9D66"/>
<path d="M524.256 255.201L515.119 271.316C522.885 278.461 534.973 313.744 513.362 333.036L554.23 350.415C569.27 325.576 524.256 255.201 524.256 255.201Z" fill="#F75C76"/>
<path d="M524.256 255.201L515.119 271.316C517.878 273.844 521.181 279.935 523.324 287.606C529.439 292.135 533.691 301.948 533.691 313.358C533.691 323.891 530.089 332.966 524.765 337.934L554.16 350.432C569.27 325.576 524.256 255.201 524.256 255.201Z" fill="#E03B5F"/>
<path d="M473.337 338.022L516.56 329.912C532.83 332.053 555.214 338.689 555.899 349.221C556.426 356.611 550.066 362.843 542.159 362.843L476.166 359.332L473.337 338.022Z" fill="#FFBE4A"/>
<path d="M555.952 349.327C555.39 341.34 542.634 335.652 529.421 332.405C525.556 336.74 511.236 339.953 494.14 339.953C487.167 340.007 480.203 339.419 473.337 338.197V362.984H542.212C550.119 362.861 556.479 356.629 555.952 349.327Z" fill="#FFA33E"/>
<path d="M476.325 307.267H414.074L415.321 311.761H477.572L476.325 307.267Z" fill="#DDBB92"/>
<path d="M400.861 241.702H394.588L419.591 311.761H425.863L400.861 241.702Z" fill="#DDBB92"/>
<path d="M382.096 241.702H396.223L421.225 311.761H407.081L382.096 241.702Z" fill="#F4D7B5"/>
<path d="M387.35 253.587C391.567 251.936 396.925 254.183 402.513 259.292L396.223 241.738H382.167L386.541 254.025C386.798 253.857 387.069 253.711 387.35 253.587Z" fill="#EACEA7"/>
<path d="M380.234 313.534L354.529 232.135L348.766 231.802L370.974 313.534H380.234Z" fill="#EACEA7"/>
<path d="M371.941 313.534L348.309 225.798L347.694 237.963L362.699 313.534H371.941Z" fill="#D1B38B"/>
<path d="M362.699 313.534H371.941L367.302 296.261L358.816 293.979L362.699 313.534Z" fill="#F4D7B5"/>
<path d="M366.054 306.372H325.011V312.112H366.054V306.372Z" fill="#F4D7B5"/>
<path d="M351.507 155.863H334.569L322.34 287.448H339.295L351.507 155.863Z" fill="#F9DEB7"/>
<path d="M325.415 254.376H342.37L351.507 155.863H334.569L325.415 254.376Z" fill="#6B4C47"/>
<path d="M349.416 178.332L351.507 155.863H334.569L332.145 181.72L349.416 178.332Z" fill="#593C39"/>
<path d="M315.857 313.13H301.59V451H304.454L315.857 313.13Z" fill="#A57E6A"/>
<path d="M230.8 227.659C251.533 249.848 243.258 272.089 260.037 283.025L245.261 312.182C234.98 306.97 225.985 299.543 218.927 290.435C211.869 281.328 206.922 270.769 204.445 259.52C200.299 241.843 217.64 213.598 230.8 227.659Z" fill="#5395B7"/>
<path d="M232.329 265.242C222.595 246.144 218.36 231.065 228.498 225.658C215.725 216.881 200.615 242.861 204.445 259.59C206.922 270.839 211.868 281.398 218.927 290.506C225.985 299.613 234.979 307.04 245.26 312.252L256.4 288.063C247.421 285.307 239.199 278.724 232.329 265.242Z" fill="#377999"/>
<path d="M263.726 294.523C265.8 285.746 259.668 278.724 250.672 279.812C246.871 280.343 243.378 282.194 240.807 285.042C238.236 287.889 236.752 291.551 236.616 295.383C236.559 298.382 237.69 301.282 239.763 303.452C241.837 305.622 244.684 306.886 247.685 306.969C251.368 306.991 254.952 305.776 257.861 303.519C260.771 301.262 262.836 298.094 263.726 294.523Z" fill="#377999"/>
<path d="M270.579 299.473C273.197 288.484 265.466 279.531 254.168 280.971C249.409 281.669 245.046 284.012 241.836 287.591C238.626 291.169 236.773 295.759 236.598 300.561C236.527 304.334 237.949 307.982 240.554 310.713C243.16 313.444 246.739 315.038 250.514 315.149C255.131 315.154 259.617 313.613 263.254 310.771C266.892 307.929 269.471 303.951 270.579 299.473Z" fill="#F9DEB7"/>
<path d="M296.389 313.13H245.014C245.014 313.13 241.061 301.808 245.19 292.68C246.069 290.859 247.3 289.231 248.814 287.891C250.328 286.55 252.093 285.523 254.007 284.87C255.922 284.216 257.947 283.95 259.965 284.085C261.983 284.22 263.955 284.755 265.764 285.658L299.973 302.211L296.389 313.13Z" fill="#FFBB83"/>
<path d="M254.976 285.553C252.464 283.903 246.736 289.537 245.401 292.223L245.19 292.68C242.59 298.42 243.187 304.968 243.995 309.145C244.223 310.274 244.837 311.289 245.731 312.016C246.625 312.743 247.744 313.137 248.897 313.13H292.822C293.884 313.125 294.917 312.782 295.77 312.151C296.623 311.519 297.252 310.633 297.566 309.619C298.55 306.618 298.691 300.07 295.546 299.701C291.434 299.298 261.056 289.52 254.976 285.553Z" fill="#FF9D66"/>
<path d="M289.906 302.352C299.745 297.963 310.99 296.155 315.031 298.736C319.072 301.316 323.306 311.147 323.306 311.147H290.573L289.906 302.352Z" fill="#FF9D66"/>
<path d="M318.281 310.251C318.281 306.74 312.87 304.037 306.176 304.037C299.481 304.037 294.07 306.811 294.07 310.251C294.07 313.692 299.499 316.448 306.176 316.448C312.852 316.448 318.281 313.674 318.281 310.251Z" fill="#EACEA7"/>
<path d="M300.676 302.106C308.442 307.53 311.939 308.303 310.639 310.637C309.339 312.972 295.37 309.479 293.561 307.53C291.751 305.582 300.676 302.106 300.676 302.106Z" fill="#FF9D66"/>
<path d="M190.108 228.203C153.07 259.467 150.927 359.859 177.633 359.385L228.305 324.101C220.205 312.99 228.744 274.581 233.576 254.183C238.127 235.049 227.145 196.992 190.108 228.203Z" fill="#5395B7"/>
<path d="M189.089 280.374C189.089 248.496 186.049 225.202 216.182 216.425C209.54 215.916 200.931 219.11 190.108 228.256C153.07 259.52 150.927 359.912 177.633 359.438L207.502 338.636C196.591 327.998 189.089 305.915 189.089 280.374Z" fill="#377999"/>
<path d="M280.119 329.42L218.29 319.871C203.197 318.73 186.225 317.659 185.381 331.948C184.802 341.901 194.658 362.861 203.461 362.861H280.119V329.42Z" fill="#563C43"/>
<path d="M229.219 331.772C241.834 331.772 252.991 329.613 259.808 326.331L218.29 319.923C208.996 319.221 198.963 318.554 192.462 321.486C196.012 327.296 211.122 331.772 229.219 331.772Z" fill="#72505B"/>
<path d="M262.092 361.228L317.789 448.314H318.932C318.932 448.314 280.576 329.139 280.119 329.648C279.662 330.157 262.092 361.228 262.092 361.228Z" fill="#563C43"/>
<path d="M488.957 361.807L460.458 448.507H459.316C459.316 448.507 469.314 341.269 472.722 339.443C478.239 336.512 488.957 361.807 488.957 361.807Z" fill="#F98B38"/>
<path d="M493.982 361.72C498.761 383.048 504.524 448.507 504.524 448.507H503.382C503.382 448.507 469.841 360.175 471.668 341.971C473.091 327.314 492.313 354.277 493.982 361.72Z" fill="#FFA33E"/>
<path d="M260.494 329.42L198.664 319.871C180.55 322.767 169.358 330.228 168.532 344.447C167.934 354.4 175.015 362.791 183.835 362.791H260.494V329.42Z" fill="#563C43"/>
<path d="M212 335.073C231.151 335.073 245.067 333.879 252.411 330.035C233.629 326.12 216.551 321.135 198.682 319.871H198.348C189.704 321.275 190.336 334.019 199.086 334.599C203.18 334.932 207.52 335.073 212 335.073Z" fill="#72505B"/>
<path d="M233.19 359.227L273.601 448.314H274.743C274.743 448.314 261.039 334.072 260.476 334.546L233.19 359.227Z" fill="#563C43"/>
<path d="M452.921 316.834H291.364V324.137H452.921V316.834Z" fill="#A57E6A"/>
<path d="M297.321 313.13H283.071V451H285.918L297.321 313.13Z" fill="#F9DEB7"/>
<path d="M294.017 353.066L297.321 313.13H283.071V353.066H294.017Z" fill="#EAC89B"/>
<path d="M509.62 222.691C501.397 247.776 498.234 278.864 500.061 280.515C501.889 282.165 535.553 280.163 534.007 274.529C529.21 257.08 511.64 216.477 509.62 222.691Z" fill="#F75C76"/>
<path d="M535.641 276.231C530.932 259.151 510.445 214.599 507.757 218.654C521.391 233.294 508.513 272.475 507.406 274.827C506.835 276.277 505.938 277.577 504.783 278.624C503.628 279.672 502.247 280.439 500.747 280.866C506.018 281.866 537.081 281.515 535.641 276.231Z" fill="#E03B5F"/>
<path d="M505.561 233.066L504.401 242.089C504.401 242.089 513.187 231.117 515.576 231.223L511.693 223.165L505.561 233.066Z" fill="#E03B5F"/>
<path d="M504.7 293.048C507.863 287.782 510.779 273.739 511.816 260.977C512.993 246.214 512.132 232.89 513.819 232.293C515.506 231.697 523.606 239.842 524.361 254.236C525.187 269.929 522.024 289.678 517.755 299.526C511.289 314.657 496.407 306.74 504.7 293.048Z" fill="#F75C76"/>
<path d="M517.65 304.423C519.143 299.666 515.893 294.4 510.428 292.68C504.964 290.959 499.271 293.417 497.778 298.174C496.284 302.931 499.535 308.197 504.999 309.918C510.463 311.638 516.156 309.18 517.65 304.423Z" fill="#F9DEB7"/>
<path d="M504.753 295.102C492.454 296.559 456.189 297.314 455.258 297.735L454.485 299.491C477.168 306.425 502.89 309.619 511.394 308.882C517.843 308.355 514.311 293.979 504.753 295.102Z" fill="#FFBB83"/>
<path d="M507.353 295.19C508.513 298.402 507.915 301.702 504.946 302.211C497.408 303.44 475.903 302.545 454.889 298.701L454.485 299.613C477.168 306.547 502.89 309.742 511.394 309.005C517.227 308.408 514.908 296.664 507.353 295.19Z" fill="#FF9D66"/>
<path d="M495.37 210.052L506.105 232.294L511.64 222.059L501.994 202.188L495.37 210.052Z" fill="#ED7656"/>
<path d="M476.5 199.502C476.36 191.234 488.167 186.951 494.422 191.831C502.205 197.887 501.678 214.827 501.626 216.846C501.402 222.251 499.324 227.414 495.74 231.468C495.74 231.468 476.781 216.407 476.5 199.502Z" fill="#FFBB83"/>
<path d="M475.657 185.476C478.802 206.541 512.73 216.442 512.73 216.442C512.73 216.442 500.149 182.071 490.433 179.368C480.717 176.664 475.657 185.476 475.657 185.476Z" fill="#60454B"/>
<path d="M501.959 206.243C501.098 202.258 498.726 199.414 496.688 199.871C494.65 200.327 493.631 203.908 494.492 207.875C495.353 211.843 497.742 214.686 499.763 214.248C501.783 213.809 502.838 210.21 501.959 206.243Z" fill="#FFBB83"/>
<path d="M508.372 451H496.547C496.547 451 501.397 444.136 503.857 445.734C505.693 447.176 507.228 448.965 508.372 451Z" fill="#F9DEB7"/>
<path d="M272.617 451H284.53C284.53 451 275.745 444.136 273.215 445.734C270.684 447.331 272.617 451 272.617 451Z" fill="#F9DEB7"/>
<path d="M315.927 451H327.84C327.84 451 318.967 444.136 316.507 445.734C314.047 447.331 315.927 451 315.927 451Z" fill="#F9DEB7"/>
<path d="M461.46 451H449.548C449.548 451 458.421 444.136 460.863 445.734C463.305 447.331 461.46 451 461.46 451Z" fill="#F9DEB7"/>
<path d="M426.742 313.13H441.009V451H438.145L426.742 313.13Z" fill="#F9DEB7"/>
<path d="M441.009 353.452V313.13H426.742L430.08 353.452H441.009Z" fill="#EAC89B"/>
<path d="M510.516 219.584L504.823 229.678V238.455C507.178 233.463 509.879 228.642 512.905 224.025C512.203 220.093 510.516 219.584 510.516 219.584Z" fill="#F9DEB7"/>
<path d="M500.431 206.559C499.921 204.207 498.515 202.522 497.268 202.785C496.021 203.048 495.511 205.172 495.968 207.542C496.425 209.912 497.901 211.597 499.13 211.316C500.36 211.035 500.958 208.894 500.431 206.559Z" fill="#ED7656"/>
<path d="M498.744 208.051C498.41 206.542 497.514 205.471 496.723 205.646C495.932 205.822 495.581 207.156 495.897 208.666C496.214 210.175 497.127 211.229 497.9 211.053C498.673 210.877 498.99 209.543 498.744 208.051Z" fill="#FFBB83"/>
<path d="M223.333 260.31C219.222 240.825 214.987 233.434 214.987 233.434L205.464 235.383L223.333 260.31Z" fill="#377999"/>
<path d="M207.415 229.485C228.147 251.656 221.471 271.79 238.338 282.744L223.526 312.182C223.526 312.182 193.973 297.209 185.083 258.379C180.972 240.632 194.255 215.406 207.415 229.485Z" fill="#5395B7"/>
<path d="M241.588 295.874C243.995 285.763 236.897 277.53 226.513 278.864C222.127 279.487 218.1 281.631 215.135 284.92C212.171 288.209 210.458 292.434 210.296 296.857C210.23 300.329 211.538 303.685 213.937 306.197C216.336 308.709 219.631 310.172 223.104 310.269C227.354 310.287 231.487 308.877 234.839 306.267C238.191 303.656 240.568 299.996 241.588 295.874Z" fill="#377999"/>
<path d="M203.075 271.773C191.479 251.182 194.29 229.643 202.495 222.621C190.881 221.059 179.285 244.687 182.711 259.59C185.185 270.841 190.13 281.401 197.188 290.509C204.247 299.617 213.243 307.043 223.526 312.252L229.922 299.543C221.225 295.945 210.929 285.728 203.075 271.773Z" fill="#377999"/>
<path d="M246.842 299.227C249.442 288.221 241.729 279.268 230.431 280.708C225.656 281.387 221.272 283.721 218.045 287.302C214.817 290.883 212.952 295.483 212.773 300.298C212.707 304.072 214.132 307.72 216.741 310.451C219.349 313.182 222.93 314.775 226.706 314.885C231.333 314.904 235.831 313.371 239.482 310.532C243.133 307.693 245.724 303.712 246.842 299.227Z" fill="#F9DEB7"/>
<path d="M276.201 313.13C255.012 313.13 227.603 315.394 223.14 311.673C218.677 307.951 215.637 294.803 226.654 286.957C229.251 285.169 232.276 284.1 235.421 283.859C238.566 283.619 241.719 284.215 244.558 285.588L279.891 302.194L276.201 313.13Z" fill="#FFBB83"/>
<path d="M256.786 309.601C236.792 307.021 228.534 294.312 224.703 288.537C216.059 296.471 219.063 308.267 223.14 311.673C227.603 315.394 255.012 313.095 276.201 313.13L279.259 304.054C274.708 303.932 261.794 310.251 256.786 309.601Z" fill="#FF9D66"/>
<path d="M256.277 302.492C262.866 294.681 281.648 295.892 285.145 298.35C288.641 300.807 292.788 308.303 292.788 308.303H287.077L283.985 304.037L282.421 304.3L285.022 308.952L277.994 308.689L274.392 305.442C274.392 305.442 244.364 316.588 256.277 302.492Z" fill="#FFBB83"/>
<path d="M305.473 307.407H269.999L267.926 311.533H303.4L305.473 307.407Z" fill="#F9DEB7"/>
<path d="M494.457 310.62H239.023V317.922H494.457V310.62Z" fill="#F9DEB7"/>
<path d="M230.888 227.764C226.214 217.952 216.832 211.966 201.616 220.216C201.546 220.758 201.511 221.303 201.511 221.849C201.511 230.626 210.085 237.823 220.68 237.823C225.904 237.9 230.968 236.021 234.876 232.557C233.631 230.891 232.3 229.292 230.888 227.764Z" fill="#377999"/>
<path d="M231.099 227.466C227.725 218.549 220.188 213.581 208.679 217.285C207.924 223.306 212.387 229.485 219.45 231.714C221.674 232.473 224.041 232.72 226.375 232.437C228.708 232.154 230.947 231.349 232.926 230.082C232.276 229.309 231.819 228.203 231.099 227.466Z" fill="#F9DEB7"/>
<path d="M213.458 216.214L225.564 199.099L239.48 206.401L230.695 227.835C230.695 227.835 214.144 231.486 213.458 216.214Z" fill="#ED7656"/>
<path d="M226.794 179.596C222.121 187.39 222.173 216.144 223.28 218.022C224.387 219.9 233.383 222.691 244.118 223.13C249.389 211.738 249.231 185.617 245.12 180C241.008 174.382 230.624 173.241 226.794 179.596Z" fill="#FFBB83"/>
<path d="M230.906 198.361C230.273 197.203 229.992 186.653 230.712 176.19C229.05 176.967 227.677 178.252 226.794 179.859C222.121 188.373 220.75 219.953 221.839 221.989C222.929 224.025 238.022 228.467 248.774 229.011C246.824 219.883 248.897 213.581 247.896 205.927C238.847 204.997 231.925 200.222 230.906 198.361Z" fill="#663429"/>
<path d="M217.869 210.07L222.876 205.102L224.176 201.082L228.832 200.047C228.832 200.047 228.516 180.526 232.838 177.928C239.322 174.049 244.874 179.684 244.874 179.684C251.006 174.54 232.575 165.728 223.79 173.083C206.922 175.26 217.869 210.07 217.869 210.07Z" fill="#663429"/>
<path d="M225.828 198.361C224.861 194.658 222.507 192.06 220.557 192.569C218.606 193.078 217.816 196.483 218.8 200.205C219.784 203.926 222.138 206.489 224.071 205.997C226.004 205.506 226.794 202.048 225.828 198.361Z" fill="#FFBB83"/>
<path d="M224.299 198.748C223.755 196.641 222.419 195.237 221.312 195.465C220.206 195.693 219.766 197.677 220.311 199.783C220.856 201.89 222.191 203.294 223.298 203.066C224.405 202.838 224.897 200.836 224.299 198.748Z" fill="#ED7656"/>
<path d="M224.493 199.414C224.176 198.168 223.368 197.29 222.736 197.466C222.103 197.642 221.822 198.783 222.138 200.029C222.455 201.275 223.263 202.153 223.895 201.995C224.528 201.837 224.897 200.661 224.493 199.414Z" fill="#FFBB83"/>
<path d="M240.71 197.606C240.71 196.343 239.99 195.324 239.217 195.324C238.443 195.324 237.846 196.395 237.899 197.659C237.951 198.923 238.619 199.959 239.392 199.941C240.165 199.924 240.71 198.888 240.71 197.606Z" fill="#604748"/>
<path d="M242.168 191.498L237.126 192.253C236.928 192.283 236.75 192.391 236.631 192.552C236.512 192.713 236.463 192.915 236.493 193.113L236.774 194.64C236.813 194.84 236.928 195.016 237.096 195.131C237.264 195.246 237.47 195.29 237.67 195.254L242.713 194.5C242.81 194.487 242.904 194.455 242.989 194.405C243.073 194.355 243.147 194.29 243.206 194.211C243.265 194.133 243.308 194.043 243.332 193.948C243.356 193.853 243.36 193.754 243.345 193.657L243.064 192.112C243.026 191.913 242.91 191.736 242.742 191.621C242.575 191.506 242.368 191.462 242.168 191.498Z" fill="#663429"/>
<path d="M247.861 198.01C247.861 196.746 247.369 195.728 246.842 195.728C246.315 195.728 245.928 196.781 245.963 198.063C245.998 199.344 246.455 200.362 246.982 200.345C247.509 200.327 247.896 199.292 247.861 198.01Z" fill="#604748"/>
<path d="M249.249 192.586L246.227 191.919C245.981 191.919 245.77 192.147 245.788 192.568V194.131C245.788 194.552 245.998 194.921 246.262 194.991L249.267 195.658C249.53 195.658 249.723 195.412 249.723 195.008V193.446C249.706 193.095 249.495 192.639 249.249 192.586Z" fill="#663429"/>
<path d="M244.593 196.694C246.455 200.836 247.228 203.522 246.174 204.663C245.81 204.956 245.376 205.152 244.915 205.232C244.454 205.312 243.981 205.273 243.539 205.12C243.539 205.12 246.332 206.436 247.509 205.348C248.687 204.259 247.316 201.381 244.593 196.694Z" fill="#ED7656"/>
<path d="M243.257 209.227C243.925 208.437 244.153 208.385 244.153 208.385L237.775 207.103C237.775 207.103 237.688 207.103 238.162 208.104L243.257 209.227Z" fill="#3A222B"/>
<path d="M482.843 212.615C482.158 211.527 482.017 210.404 482.509 210.105C483.001 209.807 483.95 210.421 484.635 211.492C485.32 212.563 485.443 213.686 484.951 214.002C484.459 214.318 483.511 213.686 482.843 212.615Z" fill="#604748"/>
<path d="M478.029 207.753L482.474 205.997C482.726 205.889 483.008 205.877 483.268 205.964C483.528 206.052 483.746 206.233 483.88 206.471L484.354 207.437C484.404 207.557 484.429 207.687 484.426 207.817C484.424 207.948 484.395 208.077 484.34 208.195C484.286 208.314 484.207 208.42 484.11 208.507C484.013 208.594 483.898 208.66 483.774 208.701L479.329 210.456C479.075 210.564 478.791 210.573 478.531 210.482C478.271 210.391 478.055 210.207 477.923 209.965L477.449 208.999C477.399 208.88 477.375 208.751 477.377 208.622C477.38 208.493 477.409 208.365 477.464 208.248C477.518 208.131 477.597 208.026 477.694 207.941C477.791 207.856 477.905 207.792 478.029 207.753Z" fill="#66343C"/>
<path d="M483.423 216.196L483.985 216.565C483.985 218.549 484.477 221.673 486.849 219.935C486.854 220.011 486.854 220.088 486.849 220.164C483.177 223.78 483.177 217.53 483.423 216.196Z" fill="#ED7656"/>
<path d="M489.924 222.112H490.1C490.767 222.253 491.417 221.55 491.575 220.62C491.657 220.272 491.63 219.907 491.498 219.574C491.366 219.242 491.136 218.957 490.837 218.759L489.924 222.112Z" fill="#ED7656"/>
<path d="M459.808 297.63C459.808 297.63 451.305 296.278 447.72 301.316L453.395 302.913C454.186 300.035 461.987 298.999 461.987 298.999L459.808 297.63Z" fill="#FFBB83"/>
</g>
<defs>
<clipPath id="clip0">
<rect width="729" height="451" fill="white"/>
</clipPath>
</defs>
</svg>
