<svg width="257" height="160" viewBox="0 0 257 160" fill="none" xmlns="http://www.w3.org/2000/svg">
<path d="M232.801 98.3119H228.743L227.067 109.83H231.116L232.801 98.3119Z" fill="#3F2A2F"/>
<path d="M223.457 109.501C223.353 110.156 223.395 110.826 223.578 111.464C223.762 112.101 224.084 112.69 224.52 113.19C224.957 113.689 225.498 114.087 226.105 114.354C226.713 114.621 227.371 114.752 228.035 114.736C229.476 114.699 230.857 114.153 231.934 113.194C233.011 112.236 233.714 110.928 233.918 109.501C234.022 108.846 233.981 108.176 233.797 107.539C233.613 106.902 233.292 106.313 232.855 105.815C232.418 105.316 231.877 104.919 231.269 104.653C230.662 104.387 230.004 104.258 229.341 104.275C227.902 104.314 226.523 104.86 225.446 105.815C224.37 106.771 223.666 108.076 223.457 109.501Z" fill="#3F2A2F"/>
<path d="M226.519 95.8787C226.475 96.5565 226.571 97.2362 226.803 97.8748C227.035 98.5134 227.396 99.0971 227.865 99.589C228.333 100.081 228.898 100.47 229.525 100.733C230.151 100.995 230.826 101.125 231.505 101.114C232.914 101.099 234.266 100.551 235.287 99.5792C236.308 98.6078 236.924 97.2856 237.009 95.8787C237.052 95.2016 236.954 94.523 236.722 93.8856C236.49 93.2482 236.128 92.6658 235.66 92.175C235.191 91.6841 234.627 91.2956 234.001 91.0337C233.375 90.7718 232.702 90.6423 232.023 90.6532C230.616 90.6681 229.266 91.2151 228.244 92.1844C227.223 93.1537 226.607 94.4735 226.519 95.8787Z" fill="#3F2A2F"/>
<path d="M254.89 66.4108C256.685 34.6195 249.974 30.3613 234.018 30.3613C218.063 30.3613 209.487 34.6195 207.692 66.4108C205.897 98.2022 212.618 102.46 228.554 102.46C244.489 102.46 253.095 98.2521 254.89 66.4108Z" fill="#FFA73E"/>
<path d="M200.451 152.68H198.546C198.546 133.733 203.882 114.626 215.798 114.626V116.541C205.248 116.541 200.451 135.269 200.451 152.68Z" fill="#A54A5A"/>
<path d="M251.967 152.68H253.872C253.872 133.733 248.537 114.626 236.62 114.626V116.541C247.151 116.541 251.967 135.269 251.967 152.68Z" fill="#A54A5A"/>
<path d="M223.208 113.519V116.88C228.124 124.479 230.427 138.939 230.427 152.68H232.332C232.332 136.824 229.45 120.879 223.208 113.519Z" fill="#A54A5A"/>
<path d="M242.344 110.757H208.778C207.919 110.76 207.096 111.102 206.489 111.709C205.882 112.317 205.539 113.139 205.537 113.998C205.537 114.859 205.878 115.684 206.485 116.293C207.093 116.903 207.917 117.246 208.778 117.249H242.344C242.77 117.249 243.193 117.165 243.587 117.001C243.98 116.838 244.338 116.598 244.639 116.296C244.94 115.994 245.179 115.636 245.341 115.241C245.503 114.847 245.586 114.425 245.585 113.998C245.585 113.139 245.243 112.314 244.636 111.706C244.028 111.099 243.204 110.757 242.344 110.757Z" fill="#A54A5A"/>
<path d="M245.834 108.693H205.297C204.437 108.693 203.612 109.034 203.002 109.642C202.393 110.249 202.049 111.074 202.047 111.934C202.043 112.363 202.124 112.789 202.286 113.186C202.447 113.583 202.686 113.944 202.989 114.249C203.291 114.553 203.651 114.794 204.047 114.958C204.444 115.122 204.868 115.206 205.297 115.205H245.834C246.694 115.205 247.518 114.863 248.126 114.256C248.734 113.648 249.075 112.824 249.075 111.964C249.078 111.536 248.996 111.112 248.835 110.716C248.673 110.32 248.435 109.96 248.134 109.656C247.833 109.352 247.475 109.111 247.08 108.945C246.686 108.78 246.262 108.694 245.834 108.693Z" fill="#FFA73E"/>
<path d="M202.785 155.722C202.787 155 202.575 154.293 202.175 153.691C201.775 153.09 201.206 152.621 200.539 152.343C199.872 152.065 199.138 151.991 198.429 152.131C197.721 152.271 197.069 152.618 196.558 153.128C196.046 153.638 195.698 154.288 195.556 154.996C195.415 155.705 195.486 156.439 195.762 157.106C196.038 157.774 196.506 158.344 197.106 158.746C197.707 159.147 198.413 159.362 199.135 159.362C200.101 159.362 201.028 158.979 201.712 158.296C202.397 157.614 202.782 156.688 202.785 155.722Z" fill="#A54A5A"/>
<path d="M234.766 155.722C234.768 155 234.556 154.293 234.156 153.691C233.756 153.09 233.187 152.621 232.52 152.343C231.853 152.065 231.119 151.991 230.411 152.131C229.702 152.271 229.051 152.618 228.539 153.128C228.028 153.638 227.679 154.288 227.538 154.996C227.396 155.705 227.468 156.439 227.744 157.106C228.02 157.774 228.487 158.344 229.088 158.746C229.688 159.147 230.394 159.362 231.117 159.362C232.083 159.362 233.01 158.979 233.694 158.296C234.378 157.614 234.764 156.688 234.766 155.722Z" fill="#A54A5A"/>
<path d="M256.535 155.722C256.537 155 256.324 154.293 255.924 153.691C255.524 153.09 254.955 152.621 254.288 152.343C253.622 152.065 252.887 151.991 252.179 152.131C251.47 152.271 250.819 152.618 250.307 153.128C249.796 153.638 249.447 154.288 249.306 154.996C249.164 155.705 249.236 156.439 249.512 157.106C249.788 157.774 250.255 158.344 250.856 158.746C251.456 159.147 252.162 159.362 252.885 159.362C253.851 159.362 254.778 158.979 255.462 158.296C256.146 157.614 256.532 156.688 256.535 155.722Z" fill="#A54A5A"/>
<path d="M249.384 66.4108C251.169 34.6195 244.458 30.3613 228.512 30.3613C212.567 30.3613 203.981 34.6195 202.186 66.4108C200.391 98.2022 207.092 102.46 223.048 102.46C239.003 102.46 247.589 98.2521 249.384 66.4108Z" fill="#FFBE4A"/>
<path d="M249.226 68.8142C244.349 48.2415 229.969 33.4328 214.971 32.6749C207.592 36.3048 203.383 45.2598 202.187 66.4109C200.402 98.2521 207.093 102.46 223.049 102.46C238.585 102.46 247.131 98.4117 249.226 68.8142Z" fill="#FFA73E"/>
<path d="M233.828 155.722C233.828 155.185 233.669 154.661 233.371 154.215C233.073 153.769 232.649 153.421 232.153 153.216C231.658 153.011 231.112 152.957 230.586 153.062C230.06 153.166 229.577 153.425 229.197 153.804C228.818 154.183 228.56 154.667 228.455 155.193C228.35 155.719 228.404 156.264 228.609 156.76C228.815 157.255 229.162 157.679 229.608 157.977C230.054 158.275 230.579 158.434 231.115 158.434C231.472 158.434 231.824 158.364 232.153 158.228C232.482 158.091 232.781 157.892 233.033 157.64C233.285 157.388 233.485 157.089 233.621 156.76C233.758 156.431 233.828 156.078 233.828 155.722Z" fill="#EFEBC5"/>
<path d="M201.847 155.722C201.847 155.185 201.688 154.661 201.39 154.215C201.092 153.769 200.668 153.421 200.172 153.216C199.677 153.011 199.131 152.957 198.605 153.062C198.079 153.166 197.596 153.425 197.216 153.804C196.837 154.183 196.579 154.667 196.474 155.193C196.369 155.719 196.423 156.264 196.628 156.76C196.834 157.255 197.181 157.679 197.627 157.977C198.073 158.275 198.598 158.434 199.134 158.434C199.854 158.434 200.544 158.148 201.052 157.64C201.561 157.131 201.847 156.441 201.847 155.722Z" fill="#EFEBC5"/>
<path d="M255.597 155.722C255.597 155.185 255.438 154.661 255.14 154.215C254.842 153.769 254.418 153.421 253.923 153.216C253.427 153.011 252.882 152.957 252.356 153.062C251.829 153.166 251.346 153.425 250.967 153.804C250.587 154.183 250.329 154.667 250.224 155.193C250.12 155.719 250.174 156.264 250.379 156.76C250.584 157.255 250.932 157.679 251.378 157.977C251.824 158.275 252.348 158.434 252.885 158.434C253.604 158.434 254.294 158.148 254.803 157.64C255.311 157.131 255.597 156.441 255.597 155.722Z" fill="#EFEBC5"/>
<path d="M185.154 33.7917C176.329 41.7695 168.201 65.5632 168.201 65.5632L143.042 69.7615L144.178 77.5697H179.41C184.806 74.923 189.266 70.6925 192.194 65.4435C194.727 61.0757 185.154 33.7917 185.154 33.7917Z" fill="#FFF4D7"/>
<path d="M184.576 44.4023C182.482 52.5995 185.922 64.247 173.118 70.1107C165.788 73.4613 149.933 73.8004 143.62 73.9101L144.159 77.5898H179.39C184.797 74.9411 189.265 70.7031 192.195 65.4437C193.641 62.9506 187.029 52.2405 184.576 44.4023Z" fill="#F4E5C3"/>
<path d="M238.326 111.346C250.223 93.7646 233.838 43.2854 221.951 34.2007C214.389 28.6412 205.466 25.2269 196.123 24.3182C196.123 24.3182 183.678 31.578 182.063 40.2738C180.447 48.9695 190.04 95.0411 190.04 95.0411L238.326 111.346Z" fill="#FFF4D7"/>
<path d="M196.342 23.6002C201.923 24.6384 207.36 26.339 212.537 28.6661C210.453 30.9398 204.559 35.0483 198.576 35.7763C193.401 36.4145 188.554 35.0184 185.852 33.004C188.886 29.3887 192.418 26.2225 196.342 23.6002Z" fill="#F4E5C3"/>
<path d="M205.417 49.538C208.339 41.8793 216.507 35.4971 222.809 35.876C234.696 44.9607 252.436 92.209 238.326 111.346L190.14 95.0311C190.14 95.0311 187.348 79.9332 184.157 67.0491C188.006 73.1122 197.888 69.3328 205.417 49.538Z" fill="#F4E5C3"/>
<path d="M177.824 114.996H201.757C205.976 114.996 227.416 96.2977 227.276 92.1791C227.057 85.5077 210.154 86.5947 196.502 86.5947C188.345 86.5947 178.243 90.4639 168.66 95.2805C166.377 96.4904 164.44 98.2612 163.03 100.426C161.621 102.591 160.785 105.079 160.602 107.656L156.613 158.026H157.611L177.824 114.996Z" fill="#42303A"/>
<path d="M173.128 93.1263C181.315 89.3569 189.592 86.5946 196.483 86.5946C202.606 86.5946 209.656 85.9464 215.609 85.8367C219.997 90.5934 193.581 96.7961 173.128 93.1263Z" fill="#56424C"/>
<path d="M208.848 114.207H234.077C238.236 114.207 241.946 108.304 240.898 104.116C239.203 97.3345 235.035 90.1545 227.994 86.6543C220.017 82.6654 206.125 89.4365 197.749 94.3329C195.662 95.5971 193.997 97.4508 192.962 99.6603C191.927 101.87 191.57 104.336 191.935 106.748L199.165 157.965L199.903 158.733L208.848 114.207Z" fill="#42303A"/>
<path d="M216.436 101.892C206.972 101.892 198.795 99.738 194.966 96.6267C195.764 95.7391 209.854 80.4717 227.994 86.6545C232.641 88.2401 235.692 92.4882 237.966 96.5668C234.137 99.7181 225.939 101.892 216.436 101.892Z" fill="#56424C"/>
<path d="M193.929 32.3258C193.819 46.3467 201.488 80.4117 203.961 84.1812L203.103 88.6089L199.962 85.2882C195.138 68.0569 192.837 50.2173 193.131 32.3258H193.929Z" fill="#4C3F3B"/>
<path d="M217.165 31.2687C208.698 34.9883 201.917 63.8877 201.917 63.8877L176.518 71.0877L176.648 77.5696H213.954C213.954 77.5696 225.531 69.5918 228.912 59.7991C236.192 38.9174 217.165 31.2687 217.165 31.2687Z" fill="#FFF4D7"/>
<path d="M203.672 25.8439L199.494 17.6168L189.262 23.1215L191.027 30.4909C191.027 30.4909 198.048 33.7718 203.672 25.8439Z" fill="#EF7A62"/>
<path d="M193.322 33.2136L195.436 31.3389L193.182 29.4541L191.706 31.2391L193.322 33.2136Z" fill="#4C3F3B"/>
<path d="M191.706 32.5153L193.291 29.5236C191.975 29.3341 190.968 28.2073 190.06 26.7513L189.911 29.2244C189.961 29.8686 190.146 30.4948 190.456 31.062C190.765 31.6292 191.191 32.1245 191.706 32.5153Z" fill="#FFF4D7"/>
<path d="M197.658 5.36116C200.271 11.4841 199.533 24.1687 197.958 25.8341C196.382 27.4994 190.04 29.454 187.277 27.8285C184.515 26.2031 181.294 12.7007 183.289 5.58055C184.954 -0.881434 196.871 3.51631 197.658 5.36116Z" fill="#FFBB83"/>
<path d="M191.216 14.4855C191.077 13.8473 191.276 13.2489 191.675 13.1691C192.074 13.0894 192.503 13.5281 192.672 14.1664C192.842 14.8046 192.612 15.4029 192.214 15.4927C191.815 15.5824 191.356 15.1137 191.216 14.4855Z" fill="#604748"/>
<path d="M190.878 11.0253L193.531 10.7859C193.582 10.7804 193.634 10.7851 193.683 10.7997C193.732 10.8143 193.778 10.8385 193.818 10.871C193.858 10.9034 193.891 10.9435 193.915 10.9888C193.939 11.0341 193.955 11.0838 193.96 11.135V11.9427C193.965 12.0469 193.929 12.1491 193.86 12.2274C193.792 12.3057 193.695 12.3539 193.591 12.3615L190.948 12.5909C190.897 12.5978 190.844 12.5942 190.794 12.5801C190.745 12.5661 190.698 12.542 190.658 12.5093C190.618 12.4766 190.585 12.436 190.561 12.39C190.537 12.344 190.523 12.2936 190.519 12.2419L190.459 11.4441C190.455 11.388 190.462 11.3315 190.482 11.2786C190.501 11.2258 190.532 11.1778 190.572 11.1379C190.612 11.0981 190.66 11.0674 190.713 11.0479C190.766 11.0285 190.822 11.0208 190.878 11.0253Z" fill="#C92B41"/>
<path d="M184.984 15.2535C184.845 14.6054 185.044 14.017 185.443 13.9272C185.842 13.8375 186.271 14.2962 186.44 14.9245C186.61 15.5527 186.37 16.161 185.982 16.2508C185.593 16.3405 185.154 15.8918 184.984 15.2535Z" fill="#604748"/>
<path d="M183.309 12.2518L185.882 11.6434C185.931 11.6299 185.983 11.6265 186.034 11.6332C186.086 11.64 186.135 11.6569 186.179 11.6829C186.224 11.7088 186.263 11.7434 186.294 11.7846C186.325 11.8258 186.347 11.8727 186.36 11.9227L186.54 12.7105C186.558 12.8119 186.538 12.9166 186.482 13.0035C186.427 13.0904 186.34 13.1532 186.241 13.1792L183.668 13.7875C183.615 13.8039 183.559 13.8091 183.504 13.8027C183.448 13.7963 183.395 13.7785 183.347 13.7503C183.299 13.7221 183.258 13.6843 183.226 13.6392C183.193 13.5941 183.171 13.5427 183.159 13.4883L182.98 12.7105C182.97 12.6586 182.97 12.6052 182.982 12.5536C182.993 12.502 183.015 12.4533 183.046 12.4104C183.076 12.3674 183.116 12.3312 183.161 12.304C183.206 12.2767 183.256 12.2589 183.309 12.2518Z" fill="#C92B41"/>
<path d="M188.604 14.4857C188.196 16.7793 188.156 18.2253 188.834 18.6641C189.053 18.7704 189.296 18.818 189.539 18.8023C189.782 18.7866 190.016 18.708 190.22 18.5743C190.22 18.5743 188.973 19.5715 188.225 19.1727C187.478 18.7738 187.837 17.1882 188.604 14.4857Z" fill="#EF7A62"/>
<path d="M187.398 22.4235L187.348 22.0545L192.842 21.167L192.892 21.5559L187.398 22.4235Z" fill="#ED7656"/>
<path d="M188.784 23.0916C188.784 22.9021 189.322 22.8822 190.08 22.7725C190.838 22.6628 191.526 22.4833 191.546 22.6728C191.566 22.8622 191.077 23.2512 190.319 23.3708C189.562 23.4905 188.814 23.2911 188.784 23.0916Z" fill="#ED7656"/>
<path d="M185.931 77.2108H163.484C163.484 77.2108 169.736 71.028 177.525 70.7289C186.599 70.3798 185.931 77.2108 185.931 77.2108Z" fill="#FFBB83"/>
<path d="M204.749 25.5746L202.326 23.3209C202.326 23.3209 198.476 28.1275 193.181 29.4538L196.173 32.8643C196.173 32.8643 203.044 30.0023 204.749 25.5746Z" fill="#FFF4D7"/>
<path d="M200.312 160H193.79C193.79 160 198.427 157.168 199.434 157.497C200.442 157.826 200.312 160 200.312 160Z" fill="#E2D9C0"/>
<path d="M157.909 160H151.388C151.388 160 156.025 157.168 157.032 157.497C158.039 157.826 157.909 160 157.909 160Z" fill="#E2D9C0"/>
<path d="M195.944 17.1184L199.494 17.617L200.711 20.1101C200.711 20.1101 201.588 6.76725 198.965 3.31687C194.867 -2.07809 181.075 -0.612175 183.11 5.69025C188.096 6.68747 189.691 2.0504 193.082 4.97226C196.123 7.50519 195.944 17.1184 195.944 17.1184Z" fill="#C92B41"/>
<path d="M198.915 18.1353C199.664 18.1353 200.271 16.8807 200.271 15.3331C200.271 13.7855 199.664 12.5309 198.915 12.5309C198.166 12.5309 197.559 13.7855 197.559 15.3331C197.559 16.8807 198.166 18.1353 198.915 18.1353Z" fill="#FFBB83"/>
<path d="M198.118 15.1737C198.118 14.1765 198.507 13.3987 198.985 13.3987C199.464 13.3987 199.853 14.1865 199.853 15.1737C199.853 16.161 199.464 16.9488 198.985 16.9488C198.507 16.9488 198.118 16.151 198.118 15.1737Z" fill="#EF7A62"/>
<path d="M198.207 15.8619C198.207 15.2137 198.466 14.6852 198.775 14.6852C199.085 14.6852 199.354 15.2137 199.354 15.8619C199.354 16.5101 199.095 17.0386 198.775 17.0386C198.456 17.0386 198.207 16.4802 198.207 15.8619Z" fill="#FFBB83"/>
<path d="M46.2612 98.3119H50.3199L51.9952 109.83H47.9465L46.2612 98.3119Z" fill="#3F2A2F"/>
<path d="M55.6058 109.501C55.7097 110.156 55.6684 110.826 55.4847 111.464C55.301 112.101 54.9794 112.69 54.5427 113.19C54.106 113.689 53.5649 114.087 52.9577 114.354C52.3504 114.621 51.6918 114.752 51.0285 114.736C49.5875 114.699 48.2062 114.153 47.1293 113.194C46.0523 112.236 45.3494 110.928 45.1449 109.501C45.0408 108.846 45.0821 108.176 45.2659 107.539C45.4496 106.902 45.7713 106.313 46.2082 105.815C46.645 105.316 47.1864 104.919 47.7937 104.653C48.401 104.387 49.0594 104.258 49.7222 104.275C51.1612 104.314 52.5403 104.86 53.6166 105.815C54.6929 106.771 55.3973 108.076 55.6058 109.501Z" fill="#3F2A2F"/>
<path d="M52.524 95.8787C52.5682 96.5565 52.4714 97.2362 52.2397 97.8748C52.0081 98.5134 51.6467 99.0971 51.1782 99.589C50.7097 100.081 50.1443 100.47 49.5178 100.733C48.8912 100.995 48.2171 101.125 47.5379 101.114C46.1284 101.099 44.777 100.551 43.7557 99.5792C42.7343 98.6078 42.1189 97.2856 42.0332 95.8787C41.9905 95.2016 42.0883 94.523 42.3206 93.8856C42.5529 93.2482 42.9146 92.6658 43.3829 92.175C43.8512 91.6841 44.4161 91.2956 45.0419 91.0337C45.6677 90.7718 46.341 90.6423 47.0193 90.6532C48.4271 90.6681 49.7772 91.2151 50.7983 92.1844C51.8194 93.1537 52.4359 94.4735 52.524 95.8787Z" fill="#3F2A2F"/>
<path d="M24.1721 66.4108C22.3771 34.6195 29.0984 30.3613 45.0339 30.3613C60.9695 30.3613 69.5656 34.6195 71.3605 66.4108C73.1555 98.2022 66.4841 102.46 50.5286 102.46C34.5731 102.46 25.9671 98.2521 24.1721 66.4108Z" fill="#FFA73E"/>
<path d="M78.6103 152.68H80.5151C80.5151 133.733 75.18 114.626 63.2632 114.626V116.541C73.8138 116.541 78.6103 135.269 78.6103 152.68Z" fill="#A54A5A"/>
<path d="M27.1044 152.68H25.1997C25.1997 133.733 30.5349 114.626 42.4517 114.626V116.541C31.911 116.541 27.1044 135.269 27.1044 152.68Z" fill="#A54A5A"/>
<path d="M55.8546 113.519V116.88C50.9383 124.479 48.6346 138.939 48.6346 152.68H46.73C46.73 136.824 49.612 120.879 55.8546 113.519Z" fill="#A54A5A"/>
<path d="M36.7175 110.757H70.2839C71.1427 110.76 71.9655 111.102 72.5727 111.709C73.1799 112.317 73.5223 113.139 73.5249 113.998C73.5249 114.859 73.1838 115.684 72.5762 116.293C71.9687 116.903 71.1444 117.246 70.2839 117.249H36.7175C36.2911 117.249 35.8688 117.165 35.475 117.001C35.0811 116.838 34.7234 116.598 34.4223 116.296C34.1212 115.994 33.8827 115.636 33.7204 115.241C33.5581 114.847 33.4753 114.425 33.4766 113.998C33.4766 113.139 33.818 112.314 34.4258 111.706C35.0336 111.099 35.858 110.757 36.7175 110.757Z" fill="#A54A5A"/>
<path d="M33.2278 108.693H73.7648C74.6253 108.693 75.4506 109.034 76.06 109.642C76.6694 110.249 77.0131 111.074 77.0157 111.934C77.0197 112.363 76.9384 112.789 76.7767 113.186C76.615 113.583 76.376 113.944 76.0736 114.249C75.7712 114.553 75.4114 114.794 75.0151 114.958C74.6188 115.122 74.1938 115.206 73.7648 115.205H33.2278C32.3683 115.205 31.5439 114.863 30.9361 114.256C30.3283 113.648 29.9869 112.824 29.9869 111.964C29.9843 111.536 30.066 111.112 30.2276 110.716C30.3892 110.32 30.6273 109.96 30.9284 109.656C31.2295 109.352 31.5876 109.111 31.9822 108.945C32.3767 108.78 32.8001 108.694 33.2278 108.693Z" fill="#FFA73E"/>
<path d="M79.9271 159.372C81.9429 159.372 83.577 157.738 83.577 155.722C83.577 153.706 81.9429 152.072 79.9271 152.072C77.9114 152.072 76.2773 153.706 76.2773 155.722C76.2773 157.738 77.9114 159.372 79.9271 159.372Z" fill="#A54A5A"/>
<path d="M44.2959 155.722C44.2939 155 44.5063 154.293 44.9061 153.691C45.306 153.09 45.8753 152.621 46.5421 152.343C47.2088 152.065 47.943 151.991 48.6516 152.131C49.3603 152.271 50.0116 152.618 50.523 153.128C51.0344 153.638 51.383 154.288 51.5247 154.996C51.6663 155.705 51.5946 156.439 51.3187 157.106C51.0427 157.774 50.5749 158.344 49.9745 158.746C49.3741 159.147 48.668 159.362 47.9457 159.362C46.9794 159.362 46.0526 158.979 45.3684 158.296C44.6842 157.614 44.2986 156.688 44.2959 155.722Z" fill="#A54A5A"/>
<path d="M22.5274 155.722C22.5254 155 22.7378 154.293 23.1377 153.691C23.5375 153.09 24.1068 152.621 24.7735 152.343C25.4403 152.065 26.1745 151.991 26.8831 152.131C27.5918 152.271 28.243 152.618 28.7544 153.128C29.2659 153.638 29.6145 154.288 29.7562 154.996C29.8978 155.705 29.8261 156.439 29.5501 157.106C29.2742 157.774 28.8064 158.344 28.206 158.746C27.6056 159.147 26.8995 159.362 26.1772 159.362C25.2109 159.362 24.2841 158.979 23.5999 158.296C22.9157 157.614 22.53 156.688 22.5274 155.722Z" fill="#A54A5A"/>
<path d="M32.5797 70.8285C39.9292 22.962 62.2968 36.6937 66.6447 41.5202C62.3167 32.0965 55.1467 30.3613 45.015 30.3613C29.0595 30.3613 22.3582 34.6195 24.1532 66.4108C25.0606 82.5658 27.7332 91.6006 32.2207 96.5867C29.7675 91.1917 30.8445 82.2965 32.5797 70.8285Z" fill="#FFBE4A"/>
<path d="M45.2139 155.722C45.2139 155.181 45.3741 154.653 45.6744 154.204C45.9746 153.755 46.4014 153.404 46.9006 153.197C47.3999 152.991 47.9493 152.937 48.4793 153.042C49.0093 153.147 49.4962 153.408 49.8784 153.79C50.2605 154.172 50.5207 154.659 50.6261 155.189C50.7316 155.719 50.6774 156.268 50.4706 156.768C50.2638 157.267 49.9136 157.694 49.4643 157.994C49.0149 158.294 48.4867 158.454 47.9462 158.454C47.2216 158.454 46.5266 158.166 46.0142 157.654C45.5018 157.142 45.2139 156.447 45.2139 155.722Z" fill="#EFEBC5"/>
<path d="M77.1953 155.722C77.1934 155.179 77.3528 154.647 77.6533 154.195C77.9539 153.742 78.3821 153.389 78.8836 153.18C79.3851 152.971 79.9374 152.916 80.4703 153.022C81.0031 153.127 81.4927 153.389 81.8768 153.773C82.2609 154.157 82.5223 154.646 82.6278 155.179C82.7333 155.712 82.6782 156.264 82.4694 156.766C82.2606 157.268 81.9076 157.696 81.4551 157.996C81.0026 158.297 80.4709 158.456 79.9277 158.454C79.2038 158.452 78.5104 158.163 77.9985 157.651C77.4867 157.139 77.198 156.446 77.1953 155.722Z" fill="#EFEBC5"/>
<path d="M23.4443 155.722C23.4443 155.181 23.6045 154.653 23.9048 154.204C24.205 153.755 24.6318 153.404 25.131 153.197C25.6303 152.991 26.1797 152.937 26.7098 153.042C27.2398 153.147 27.7266 153.408 28.1088 153.79C28.4909 154.172 28.7511 154.659 28.8566 155.189C28.962 155.719 28.9079 156.268 28.7011 156.768C28.4943 157.267 28.144 157.694 27.6947 157.994C27.2454 158.294 26.7171 158.454 26.1767 158.454C25.452 158.454 24.757 158.166 24.2446 157.654C23.7322 157.142 23.4443 156.447 23.4443 155.722Z" fill="#EFEBC5"/>
<path d="M65.4878 33.3631C63.1743 34.8788 64.0419 57.5756 71.6008 72.125L77.6439 66.6104C72.8573 60.3578 67.8512 31.8473 65.4878 33.3631Z" fill="#4C343B"/>
<path d="M64.9387 44.9109L48.7039 43.106C48.7039 43.106 49.4818 51.4527 48.3948 55.0726C47.3078 58.6925 31.7612 92.3387 40.8458 104.934L69.476 93.8744C58.2374 86.2058 59.3742 69.8414 64.9387 44.9109Z" fill="#60454B"/>
<path d="M49.2524 89.6163C45.9217 78.3078 48.7139 67.5378 55.515 65.5534C57.4301 65.0287 59.4668 65.173 61.2888 65.9622C62.1181 58.8801 63.3534 51.8514 64.9886 44.9109L48.7039 43.106C48.7039 43.106 49.4818 51.4527 48.3948 55.0726C47.3078 58.6925 31.7612 92.3387 40.8458 104.934L54.1986 99.758C51.974 96.69 50.3002 93.2582 49.2524 89.6163Z" fill="#4C343B"/>
<path d="M48.8233 32.1564C48.3446 36.5342 49.4117 58.5927 51.1169 60.1783C52.8222 61.7639 71.3705 61.734 71.9788 60.3977C72.5871 59.0614 67.1921 34.829 65.8558 33.2534C64.5195 31.6777 49.0427 30.2118 48.8233 32.1564Z" fill="#60454B"/>
<path d="M54.857 59.0712C53.1617 57.4956 50.16 32.6948 48.9833 34.0211C44.7651 38.7678 48.7041 59.4003 50.4093 60.946C52.1146 62.4917 71.351 61.7039 71.9792 60.3676C71.9792 60.3676 71.9792 60.3676 71.9792 60.3078C66.1255 61.0158 56.1035 60.228 54.857 59.0712Z" fill="#4C343B"/>
<path d="M184.905 79.3447H190.978V157.906H188.794L184.905 79.3447Z" fill="#8E3A4C"/>
<path d="M35.9893 79.3447H29.9162V157.906H32.1001L35.9893 79.3447Z" fill="#8E3A4C"/>
<path d="M80.7845 109.67H51.1371C42.4214 109.67 37.176 103.687 38.4125 97.1254C39.2003 92.7376 41.3045 88.649 46.2208 87.6318C57.8583 85.2884 95.2741 91.3415 80.7845 109.67Z" fill="#3C84A0"/>
<path d="M46.2209 87.6316C44.765 87.9308 52.294 93.246 59.3443 94.2133C67.4218 95.3202 74.6217 94.9313 78.4411 93.4454C69.7353 87.851 53.2613 86.1857 46.2209 87.6316Z" fill="#5395B7"/>
<path d="M204.848 79.3447H210.921V157.906H208.737L204.848 79.3447Z" fill="#8E3A4C"/>
<path d="M16.0454 79.3447H9.97231V157.906H12.1562L16.0454 79.3447Z" fill="#8E3A4C"/>
<path d="M49.0127 31.977C46.4598 33.1936 41.5535 55.5912 47.5369 71.1578L54.2182 67.3384C49.4316 59.3607 51.5257 30.7604 49.0127 31.977Z" fill="#60454B"/>
<path d="M46.1211 50.6249C45.8319 45.6388 46.6296 39.8649 46.9487 36.1254C44.7349 43.5447 43.0098 59.3207 47.5671 71.1577L50.5288 69.4824C47.8809 63.5316 46.3853 57.1328 46.1211 50.6249Z" fill="#4C343B"/>
<path d="M55.5154 68.4653C55.5154 66.2016 53.2517 64.3667 50.4695 64.3667C47.6873 64.3667 45.4834 66.2016 45.4834 68.4653C45.4834 70.729 47.7371 72.5738 50.4695 72.5738C53.2019 72.5738 55.5154 70.7389 55.5154 68.4653Z" fill="#E24062"/>
<path d="M74.4622 76.3132C65.218 76.1536 50.9278 74.0794 47.8264 71.3271C45.5328 69.3326 48.9234 63.7083 54.9965 67.4579C58.8058 69.8113 71.5902 74.0694 74.6217 74.9171C76.1076 75.3658 74.4622 76.3132 74.4622 76.3132Z" fill="#FFBB83"/>
<path d="M74.6513 74.967C73.4846 74.6379 70.8718 73.8102 67.8901 72.7731C65.2037 72.977 62.5021 72.8329 59.8526 72.3443C54.2781 71.3471 49.7707 69.3527 48.3048 67.2784C46.9885 68.4552 46.7092 70.3698 47.856 71.377C50.9574 74.1094 65.2476 76.1836 74.4918 76.3631C74.4619 76.3133 76.1073 75.3659 74.6513 74.967Z" fill="#FF9D66"/>
<path d="M183.508 74.6179H163.893V76.8218H183.508V74.6179Z" fill="#F7DBBA"/>
<path d="M118.699 48.4012H156.893L168.311 77.8791H130.117L118.699 48.4012Z" fill="#F7DBBA"/>
<path d="M116.635 48.4012H154.839L166.257 77.8791H128.063L116.635 48.4012Z" fill="#E5C59A"/>
<path d="M121.761 48.4012H131.374L161.141 77.8791H137.776L121.761 48.4012Z" fill="#F2D1A5"/>
<path d="M78.5912 75.0868H49.7915V77.6596H78.5912V75.0868Z" fill="#F9DEB7"/>
<path d="M75.7091 48.84H109.724C110.098 48.834 110.467 48.9181 110.801 49.0851C111.135 49.2521 111.424 49.4972 111.643 49.7995C111.862 50.1018 112.005 50.4526 112.06 50.8219C112.115 51.1913 112.08 51.5685 111.958 51.9214L102.744 77.8491H63.7026L73.4654 50.3857C73.6341 49.928 73.9404 49.5337 74.3421 49.257C74.7438 48.9803 75.2214 48.8346 75.7091 48.84Z" fill="#F9DEB7"/>
<path d="M76.9957 50.0365H109.675C110.038 50.0272 110.397 50.1068 110.722 50.2685C111.047 50.4302 111.328 50.6691 111.539 50.9642C111.751 51.2593 111.887 51.6017 111.936 51.9615C111.984 52.3212 111.944 52.6875 111.819 53.0282L102.963 77.9587H65.4878L74.8617 51.6121C75.0078 51.1592 75.2922 50.7635 75.6751 50.4808C76.0579 50.1982 76.5198 50.0428 76.9957 50.0365Z" fill="#F2D1A5"/>
<path d="M68.1206 77.8789H86.8085L107.93 50.0365H89.2517L68.1206 77.8789Z" fill="#F7DBBA"/>
<path d="M217.903 76.6423H0V81.6883H217.903V76.6423Z" fill="#8E3A4C"/>
<path d="M53.4113 157.337H52.9326L56.6922 107.875C56.9315 104.734 59.8135 101.613 63.1741 100.895C67.163 100.007 69.8854 102.839 68.7286 106.669L53.4113 157.337Z" fill="#3C84A0"/>
<path d="M60.0631 157.337H59.5845L70.3843 107.875C71.0724 104.734 74.3732 101.613 77.8635 100.895C81.972 100.007 84.2955 102.839 82.6003 106.669L60.0631 157.337Z" fill="#3C84A0"/>
<path d="M65.487 159.362H58.8057C58.8057 159.362 59.3442 156.141 60.5009 156.23C61.6577 156.32 65.487 159.362 65.487 159.362Z" fill="#EFEBC5"/>
<path d="M58.5066 159.362H51.8252C51.8252 159.362 52.3637 156.141 53.5105 156.23C54.6573 156.32 58.5066 159.362 58.5066 159.362Z" fill="#EFEBC5"/>
<path d="M56.183 28.5066C47.5869 24.9066 50.9974 9.55942 59.8627 6.64754C68.728 3.73565 72.1185 6.03923 73.3252 10.3472C74.9905 16.3305 73.4648 28.8157 73.4648 28.8157C73.4648 28.8157 69.0272 33.8916 56.183 28.5066Z" fill="#CC1B56"/>
<path d="M58.3173 37.5513C61.3114 37.6419 64.2206 36.5491 66.4147 34.5098C66.28 34.0699 66.0925 33.648 65.8563 33.2533C64.5599 31.5081 49.073 30.0821 48.8237 32.1563C48.8237 32.2361 48.8237 32.3259 48.8237 32.4156C50.0204 35.4272 53.8098 37.5513 58.3173 37.5513Z" fill="#4C343B"/>
<path d="M64.6803 32.6451C62.1075 31.5881 56.2139 30.8302 52.3945 31.1593C52.657 32.6313 53.4401 33.96 54.6007 34.9028C55.7614 35.8456 57.2223 36.3397 58.7169 36.2949C59.9568 36.3252 61.179 35.9968 62.2368 35.3494C63.2947 34.702 64.1431 33.763 64.6803 32.6451Z" fill="#E5C59A"/>
<path d="M59.5744 16.9089C57.2899 21.4856 55.4403 26.2666 54.0498 31.1891C55.5057 35.4373 60.1826 36.0356 62.4663 32.0368C63.3113 28.2391 64.6807 24.5774 66.535 21.1571L59.5744 16.9089Z" fill="#ED7656"/>
<path d="M69.8747 12.1822C67.252 9.9484 61.9567 10.7262 60.1318 13.9971C58.3967 17.1084 55.9834 26.5222 61.6576 31.1593C70.6226 29.9726 74.063 15.7423 69.8747 12.1822Z" fill="#FFBB83"/>
<path d="M73.3258 10.3471C72.3884 6.99649 69.0877 3.66577 65.0689 5.44082C55.1565 -0.442774 48.9837 17.7066 48.9837 17.7066C48.9837 17.7066 46.8696 28.0677 55.4656 31.6677C55.8246 31.8173 56.1737 31.9469 56.5227 32.0666C56.3631 24.9165 63.6229 11.3344 67.7913 12.3017C71.9596 13.269 74.4627 19.8806 72.4682 28.6561C72.3785 29.045 72.2688 29.424 72.1691 29.7929C72.6278 29.4921 73.0643 29.1589 73.4754 28.7957C73.4754 28.7957 74.9912 16.3005 73.3258 10.3471Z" fill="#E5255C"/>
<path d="M60.96 91.3313C63.1043 92.6735 65.0143 94.3578 66.6142 96.3174L73.9637 95.1407L60.96 91.3313Z" fill="#3C84A0"/>
<path d="M64.001 20.389C64.1406 19.701 64.001 19.0927 63.6818 19.0328C63.3627 18.973 62.9937 19.4716 62.8541 20.1597C62.7145 20.8478 62.8542 21.4561 63.1832 21.5159C63.5123 21.5757 63.8614 21.0771 64.001 20.389Z" fill="#604748"/>
<path d="M69.2763 22.4634C69.5356 21.8052 69.4957 21.187 69.1965 21.0673C68.8974 20.9476 68.4486 21.3964 68.1993 22.0645C67.95 22.7327 67.9899 23.341 68.2891 23.4507C68.5882 23.5603 69.027 23.0817 69.2763 22.4634Z" fill="#604748"/>
<path d="M65.2886 16.6895H62.9252C62.7818 16.6914 62.6442 16.7465 62.5392 16.8442C62.4341 16.9419 62.3691 17.0751 62.3568 17.218L62.3069 17.8063C62.2985 17.8745 62.3045 17.9437 62.3247 18.0094C62.3448 18.0751 62.3785 18.1358 62.4237 18.1875C62.4689 18.2393 62.5245 18.2809 62.5868 18.3097C62.6492 18.3386 62.7169 18.3539 62.7855 18.3548H65.149C65.2924 18.3529 65.43 18.2977 65.535 18.2001C65.6401 18.1024 65.705 17.9692 65.7174 17.8263V17.2379C65.7272 17.1735 65.7237 17.1077 65.7072 17.0447C65.6906 16.9816 65.6614 16.9226 65.6213 16.8712C65.5811 16.8199 65.5309 16.7773 65.4737 16.746C65.4165 16.7147 65.3535 16.6955 65.2886 16.6895Z" fill="#E5255C"/>
<path d="M70.7823 19.3023L69.127 18.3051C69.0719 18.2777 69.0116 18.2624 68.9502 18.2604C68.8888 18.2583 68.8276 18.2695 68.7708 18.2931C68.7141 18.3168 68.6631 18.3523 68.6213 18.3974C68.5795 18.4425 68.5479 18.496 68.5286 18.5544L68.2893 19.0829C68.2243 19.1999 68.2027 19.336 68.2282 19.4674C68.2538 19.5987 68.3248 19.7168 68.4289 19.8009L70.0843 20.7982C70.1393 20.8256 70.1996 20.8408 70.261 20.8429C70.3224 20.845 70.3836 20.8338 70.4404 20.8101C70.4971 20.7865 70.5481 20.7509 70.5899 20.7058C70.6317 20.6608 70.6633 20.6072 70.6826 20.5489L70.9219 20.0203C70.9831 19.9025 71.0026 19.7674 70.9773 19.637C70.9519 19.5066 70.8832 19.3887 70.7823 19.3023Z" fill="#E5255C"/>
<path d="M66.1061 22.2142C65.9991 22.2745 65.8959 22.3411 65.7969 22.4137C65.7969 23.5006 65.4978 25.2258 64.1914 24.2486V24.3782C66.1659 26.3926 66.1958 22.9522 66.1061 22.2142Z" fill="#ED7656"/>
<path d="M66.1753 26.6517C66.1254 26.7614 66.0855 26.8811 66.0257 26.9908C65.7501 27.5539 65.2645 27.9864 64.6734 28.1952C64.0822 28.4041 63.4327 28.3727 62.8645 28.1077C62.381 27.8195 62.0209 27.3629 61.8534 26.8254C61.6859 26.288 61.7229 25.7077 61.9571 25.1958L66.1753 26.6517Z" fill="#492E36"/>
<path d="M65.108 27.5891C65.3406 27.4346 65.5322 27.2258 65.6664 26.9808C65.6664 26.8911 65.7362 26.8013 65.7662 26.7116L62.1462 25.4551C62.0224 25.8007 62.0016 26.1749 62.0864 26.5321L65.108 27.5891Z" fill="#F9EBD7"/>
</svg>
