<svg width="260" height="160" viewBox="0 0 260 160" fill="none" xmlns="http://www.w3.org/2000/svg">
<path d="M213.131 32.0452C202.616 29.4913 198.817 35.8986 191.591 46.7501C188.792 50.9489 183.048 56.1838 178.868 60.7825L184.484 78.6047C199.471 73.5334 201.516 70.2253 208.378 61.9095C215.13 53.7481 221.474 34.0628 213.131 32.0452Z" fill="#FFBE4A"/>
<path d="M213.131 32.0452C209.396 31.1364 206.505 31.3635 204.043 32.5178C204.306 32.6723 204.879 32.7177 204.806 33.0176C199.58 52.9211 187.92 71.1887 182.258 71.4704L184.503 78.6048C199.489 73.5335 201.534 70.2253 208.396 61.9095C215.13 53.7482 221.474 34.0628 213.131 32.0452Z" fill="#FF9C39"/>
<path d="M191.284 77.1096C195.777 72.8607 195.416 65.1827 190.477 59.9603C185.538 54.7379 177.893 53.9487 173.4 58.1975C168.906 62.4464 169.268 70.1244 174.206 75.3468C179.145 80.5692 186.791 81.3584 191.284 77.1096Z" fill="#BC265C"/>
<path d="M182.648 78.7048C189.619 79.5227 196.69 68.9348 187.329 59.6192C182.048 54.3753 172.197 52.6394 158.428 48.3588L153.784 56.4565C160.518 62.6548 176.359 77.9686 182.648 78.7048Z" fill="#FFBB83"/>
<path d="M188.228 60.6462C188.521 61.1098 188.704 61.6334 188.766 62.1779C188.827 62.7225 188.765 63.2738 188.583 63.7908C186.956 67.3262 176.923 66.181 166.171 61.2188C162.175 59.4092 158.413 57.1236 154.965 54.4116L153.784 56.4746C160.518 62.6547 176.359 77.9686 182.648 78.7048C189.383 79.4954 196.208 69.6528 188.228 60.6462Z" fill="#FF9D66"/>
<path d="M240.468 113.995H197.953V119.748H240.468V113.995Z" fill="#DBB589"/>
<path d="M235.379 39.6429H259.536L244.822 113.913H220.665L235.379 39.6429Z" fill="#EAC89B"/>
<path d="M232.089 39.6429H256.246L241.541 113.913H217.384L232.089 39.6429Z" fill="#F9DEB7"/>
<path d="M216.621 111.65H223.5L225.663 159.564H224.037L216.621 111.65Z" fill="#DBB589"/>
<path d="M237.806 111.65H244.695L246.849 159.564H245.231L237.806 111.65Z" fill="#EAC89B"/>
<path d="M220.31 111.623L213.431 111.65L206.242 159.591L207.859 159.582L220.31 111.623Z" fill="#EAC89B"/>
<path d="M201.77 111.65H194.891L187.538 159.564H189.156L201.77 111.65Z" fill="#EAC89B"/>
<path d="M195.027 117.076H243.477V111.35H195.027V117.076Z" fill="#EAC89B"/>
<path d="M217.384 113.913L242.523 115.64L248.048 81.0403C246.985 62.591 242.177 47.159 235.588 39.6429H232.089L217.384 113.913Z" fill="#EAC89B"/>
<path d="M226.936 113.013C236.833 110.714 241.478 97.6538 242.977 89.3289C244.395 81.6493 237.724 48.9494 225.255 36.4802C219.111 30.3365 200.307 26.683 197.99 40.7154C194.954 59.0647 216.766 76.3144 196.563 90.6376L226.936 113.013Z" fill="#FFBE4A"/>
<path d="M217.493 78.8682C218.211 65.3811 214.903 50.7489 214.903 50.7489L227.527 75.442L217.493 78.8682Z" fill="#FF9C39"/>
<path d="M225.255 36.4803C220.501 31.7271 227.799 48.0225 227.799 68.2895C227.799 84.8575 222.01 98.8627 214.04 103.461L226.936 112.977C236.833 110.678 241.477 97.6176 242.977 89.2927C244.395 81.6494 237.724 48.9495 225.255 36.4803Z" fill="#FF9C39"/>
<path d="M167.371 109.632C166.85 108.458 166.568 107.191 166.541 105.906C166.514 104.621 166.742 103.344 167.213 102.148C167.684 100.952 168.388 99.8619 169.284 98.9406C170.181 98.0194 171.251 97.2854 172.433 96.7814C183.539 92.1555 201.516 85.5664 209.014 88.0294C217.193 90.7559 218.011 94.2912 219.474 99.617C221.101 105.561 217.184 111.532 211.622 111.432L185.266 110.768C184.868 110.774 184.477 110.866 184.119 111.038C183.761 111.21 183.445 111.459 183.193 111.766C182.941 112.074 182.759 112.432 182.66 112.817C182.562 113.202 182.548 113.604 182.621 113.995L191.073 159.636H189.91L167.371 109.632Z" fill="#54333E"/>
<path d="M180.195 106.088C180.2 104.024 180.804 102.006 181.933 100.278C183.063 98.5505 184.669 97.1875 186.557 96.3542C195.582 92.3826 211.941 87.1841 220.729 89.6197C229.999 92.1826 231.371 94.8001 233.389 100.38C235.607 106.551 231.799 112.831 225.791 112.831H193.073L180.613 159.564H179.45L180.195 106.088Z" fill="#54333E"/>
<path d="M184.885 99.3898C183.849 99.1899 182.731 99.717 181.631 100.799C180.717 102.423 180.223 104.251 180.195 106.115L179.786 133.698C182.831 132.326 186.148 125.937 187.702 117.866C189.556 108.333 188.293 100.062 184.885 99.3898Z" fill="#6B4752"/>
<path d="M191.955 85.5028L211.504 85.621L211.377 88.1112L190.183 96.4906L171.043 96.1635L170.488 93.4551L191.955 85.5028Z" fill="#DDB890"/>
<path d="M170.534 93.6006L189.81 93.7368L210.686 85.6119L191.955 85.5028L170.498 93.4461L170.534 93.6006Z" fill="#EDCCA2"/>
<path d="M217.421 34.7625C209.532 41.3516 213.785 48.0406 217.257 60.7279C218.593 65.6538 220.956 74.1514 214.912 78.8046L231.735 88.8018C235.515 85.1664 237.551 68.5984 235.67 57.8287C233.834 47.2772 223.664 29.5458 217.421 34.7625Z" fill="#FFBE4A"/>
<path d="M235.67 57.8379C234.098 48.7496 226.4 34.4809 220.302 33.8629C225.909 37.4074 229.99 48.4588 229.99 61.546C229.99 70.9524 227.881 79.3046 224.619 84.5759L231.735 88.811C235.516 85.1848 237.551 68.6076 235.67 57.8379Z" fill="#FF9C39"/>
<path d="M236.97 80.0317C235.089 74.3515 228.109 70.7797 221.147 72.1248C213.877 73.5244 209.432 79.6681 211.486 85.7573C213.54 91.8465 221.156 95.2728 228.245 93.4279C235.062 91.7011 238.86 85.721 236.97 80.0317Z" fill="#BC265C"/>
<path d="M228.862 91.3738C235.133 88.2384 237.342 77.1051 224.409 74.4604C217.138 72.9699 208.323 76.5326 194.463 80.4951L195.172 89.0381C204.196 90.5195 223.191 94.2094 228.862 91.3738Z" fill="#FFBB83"/>
<path d="M228.436 75.7601C228.79 76.0005 229.085 76.3171 229.301 76.6867C229.516 77.0563 229.646 77.4695 229.681 77.8959C229.681 81.3313 220.483 84.1123 209.141 84.1123C203.406 84.1123 199.835 78.932 194.672 80.477L195.172 89.0746C204.197 90.556 223.192 94.2458 228.863 91.4102C234.379 88.611 236.761 79.6772 228.436 75.7601Z" fill="#FF9D66"/>
<path d="M186.484 160L194.191 159.873C194.191 159.873 191.546 156.646 189.956 156.037C188.365 155.428 186.484 160 186.484 160Z" fill="#F9DEB7"/>
<path d="M171.551 159.864H181.548C181.548 159.864 182.139 156.165 180.858 155.447C179.576 154.729 171.551 159.864 171.551 159.864Z" fill="#F9DEB7"/>
<path d="M195.936 40.3882C197.235 43.66 200.58 45.8413 205.242 45.8413C212.304 45.8413 219.865 40.9244 222.828 34.6171C216.711 30.7455 205.769 29.0005 200.598 34.8988C198.856 36.5608 197.294 38.4006 195.936 40.3882Z" fill="#FF9C39"/>
<path d="M213.322 37.3528C214.637 35.7213 215.435 33.7337 215.612 31.6453C209.514 30.2366 202.67 31.0364 199.507 36.3531C199.839 37.7596 200.629 39.0161 201.752 39.9248C204.997 42.4695 210.177 41.3335 213.322 37.3528Z" fill="#BC265C"/>
<path d="M208.359 18.967L213.221 31.2181C211.295 34.7262 203.57 40.5064 200.998 35.1534L198.089 26.9102L208.359 18.967Z" fill="#ED7656"/>
<path d="M193.564 35.3715C199.671 35.1625 208.369 32.6996 208.623 26.8558C208.914 20.4939 208.442 5.2073 199.826 5.77078C185.684 6.6887 191.773 27.3738 193.564 35.3715Z" fill="#FFBB83"/>
<path d="M202.643 6.27063C204.724 10.3331 203.752 13.9321 203.634 16.704C203.407 21.8389 197.208 24.7472 191.564 25.6015C192.219 29.7458 192.773 34.2263 193.382 36.8256C199.58 36.6166 208.596 33.372 208.832 27.2283C209.069 21.3936 208.587 9.08802 202.643 6.27063Z" fill="#A5482B"/>
<path d="M209.313 5.06182C207.332 3.48954 206.169 4.24388 206.169 4.24388C204.001 3.07692 201.578 2.46606 199.116 2.46606C196.654 2.46606 194.231 3.07692 192.064 4.24388C191.549 4.48252 191.123 4.87892 190.849 5.37565C190.574 5.87238 190.465 6.44365 190.537 7.00663C190.609 7.56961 190.858 8.09507 191.248 8.50687C191.639 8.91867 192.151 9.19542 192.709 9.297C196.344 9.59691 200.043 6.28876 202.533 8.62447C203.76 9.7696 204.796 12.7324 203.224 18.758L208.832 24.7109C210.14 15.5407 211.313 6.6432 209.313 5.06182Z" fill="#A5482B"/>
<path d="M208.241 17.722C208.686 15.7861 208.241 14.023 207.178 13.7867C206.114 13.5504 204.951 14.9228 204.506 16.8586C204.06 18.7944 204.506 20.5485 205.56 20.7848C206.614 21.0211 207.796 19.6487 208.241 17.722Z" fill="#FFBB83"/>
<path d="M207.424 17.9311C207.687 16.795 207.424 15.759 206.797 15.6135C206.17 15.4681 205.479 16.2861 205.215 17.4312C204.952 18.5763 205.215 19.6124 205.842 19.7578C206.47 19.9032 207.16 19.0944 207.424 17.9311Z" fill="#ED7656"/>
<path d="M206.651 18.2042C206.842 17.386 206.651 16.6314 206.206 16.5314C205.76 16.4314 205.297 17.0133 205.06 17.8405C204.824 18.6678 205.06 19.4133 205.515 19.5133C205.969 19.6133 206.46 19.0314 206.651 18.2042Z" fill="#FFBB83"/>
<path d="M147.258 46.3593C148.404 46.5684 152.548 46.9501 154.865 49.7038L158.71 48.4405C156.229 46.2957 151.612 43.8964 147.876 43.8964C145.295 43.8964 146.086 46.1049 147.258 46.3593Z" fill="#FFBB83"/>
<path d="M159.2 57.1016L159.128 48.5858C156.798 47.3432 154.116 46.9298 151.521 47.4135C150.087 48.7941 148.45 49.9466 146.667 50.8307C144.168 51.9395 149.221 59.6554 159.2 57.1016Z" fill="#FFBB83"/>
<path d="M142.087 48.4405C144.434 49.7862 147.195 50.2168 149.839 49.6493L148.931 52.6302C147.413 53.1664 143.968 52.3757 142.16 51.5305C140.351 50.6853 141.215 48.0497 142.087 48.4405Z" fill="#FFBB83"/>
<path d="M142.014 52.7666C144.961 53.5362 148.072 53.3968 150.939 52.3667L150.612 55.2477C149.03 56.0293 145.541 55.8021 143.341 55.384C141.142 54.966 140.951 52.5757 142.014 52.7666Z" fill="#FFBB83"/>
<path d="M145.959 56.102C148.793 56.3298 151.627 55.6656 154.065 54.2025L154.411 56.929C153.129 57.9287 149.867 58.3105 147.767 58.3014C145.668 58.2923 144.968 56.102 145.959 56.102Z" fill="#FFBB83"/>
<path d="M197.853 18.2676C197.808 17.5949 198.099 17.013 198.508 16.9767C198.917 16.9403 199.29 17.4494 199.335 18.1221C199.381 18.7948 199.099 19.3767 198.681 19.413C198.262 19.4494 197.899 18.9403 197.853 18.2676Z" fill="#604748"/>
<path d="M197.317 16.2315L199.989 15.868C200.041 15.8575 200.094 15.8582 200.145 15.8699C200.197 15.8816 200.245 15.9041 200.287 15.9359C200.329 15.9676 200.364 16.008 200.39 16.0543C200.415 16.1005 200.43 16.1517 200.434 16.2043L200.525 17.0222C200.536 17.1303 200.503 17.2382 200.435 17.323C200.368 17.4079 200.269 17.4629 200.162 17.4766L197.49 17.8401C197.438 17.8478 197.385 17.8448 197.334 17.8315C197.283 17.8181 197.235 17.7946 197.193 17.7623C197.152 17.7301 197.117 17.6897 197.092 17.6438C197.066 17.5978 197.05 17.5471 197.044 17.4948L196.953 16.6768C196.943 16.5697 196.976 16.4629 197.044 16.3795C197.112 16.2962 197.21 16.243 197.317 16.2315Z" fill="#A5482B"/>
<path d="M191.728 18.8402C191.673 18.1675 191.964 17.5857 192.382 17.5493C192.8 17.5129 193.164 18.0311 193.21 18.7039C193.255 19.3766 192.964 19.9493 192.555 19.9857C192.146 20.022 191.773 19.4948 191.728 18.8402Z" fill="#604748"/>
<path d="M190.828 16.6223L193.5 16.3406C193.552 16.3329 193.605 16.3359 193.656 16.3493C193.707 16.3626 193.755 16.3862 193.796 16.4184C193.838 16.4507 193.873 16.491 193.898 16.537C193.924 16.5829 193.94 16.6336 193.946 16.6859L194.018 17.513C194.026 17.62 193.991 17.7258 193.921 17.8074C193.852 17.889 193.753 17.9399 193.646 17.9492L190.974 18.2309C190.922 18.2386 190.869 18.2355 190.819 18.2221C190.769 18.2086 190.722 18.185 190.681 18.1526C190.64 18.1203 190.606 18.0799 190.581 18.0339C190.557 17.988 190.542 17.9375 190.537 17.8856L190.465 17.0676C190.455 16.9605 190.487 16.8537 190.555 16.7703C190.623 16.687 190.721 16.6338 190.828 16.6223Z" fill="#A5482B"/>
<path d="M195.472 18.5217C194.745 20.812 194.491 22.2752 195.109 22.8114C195.316 22.9469 195.555 23.0257 195.802 23.04C196.049 23.0544 196.296 23.0038 196.517 22.8932V22.9387C196.517 22.9387 195.127 23.793 194.445 23.2931C193.763 22.7933 194.327 21.1573 195.472 18.5217Z" fill="#ED7656"/>
<path d="M197.754 26.4744C197.326 25.6835 196.681 25.2107 196.326 25.4107C195.972 25.6107 196.017 26.4107 196.454 27.2289C196.89 28.0471 197.526 28.4835 197.881 28.2835C198.235 28.0835 198.19 27.2562 197.754 26.4744Z" fill="#422931"/>
<path d="M196.772 80.1862C191.21 81.0223 187.257 80.0225 185.357 83.1126C184.211 84.9687 183.485 87.0533 183.23 89.22C183.23 89.22 192.673 90.3015 196.999 88.5474C201.325 86.7934 196.772 80.1862 196.772 80.1862Z" fill="#FF9D66"/>
<path d="M187.338 86.7115C184.611 90.5559 184.557 91.8919 183.385 91.9737C182.212 92.0555 181.121 91.7283 181.412 90.8013C182.54 88.3189 183.836 85.917 185.293 83.6124C186.05 84.5939 186.733 85.6297 187.338 86.7115Z" fill="#FF9D66"/>
<path d="M187.311 85.1847C183.066 86.0935 182.257 87.0932 181.312 86.2934C180.367 85.4937 179.722 84.4758 180.458 83.9396C181.194 83.4034 187.32 81.1494 187.492 81.313C187.517 82.6062 187.456 83.8995 187.311 85.1847Z" fill="#FF9D66"/>
<path d="M191.146 86.6207C188.419 90.4742 188.365 91.8101 187.193 91.8919C186.02 91.9737 184.92 91.6375 185.22 90.7196C186.344 88.2354 187.641 85.8332 189.101 83.5306C189.858 84.509 190.541 85.5419 191.146 86.6207Z" fill="#FF9D66"/>
<path d="M195.172 86.5389C192.446 90.3832 192.391 91.7283 191.219 91.8101C190.047 91.8919 188.956 91.5556 189.247 90.6377C190.374 88.1554 191.671 85.7534 193.128 83.4489C193.884 84.4273 194.568 85.46 195.172 86.5389Z" fill="#FF9D66"/>
<path d="M177.15 69.6801L190.146 96.4543L170.779 96.1816L159.209 69.7891L177.15 69.6801Z" fill="#DDB890"/>
<path d="M174.787 69.6982L187.483 96.427L168.179 96.1635L156.901 69.8073L174.787 69.6982Z" fill="#F9DEB7"/>
<path d="M182.076 85.0393C180.258 90.4469 174.805 94.6456 168.053 95.8453L168.18 96.1543L187.484 96.427L182.076 85.0393Z" fill="#EDCCA2"/>
<path d="M83.8761 26.1832C82.3674 24.52 75.2513 22.5478 74.6332 25.1925C74.0152 27.8372 76.3419 33.9082 76.3419 33.9082L81.7949 37.3164C84.6304 30.4183 85.3848 27.8463 83.8761 26.1832Z" fill="#FF9D66"/>
<path d="M39.2163 110.959L46.0962 110.987L53.2941 160H51.6673L39.2163 110.959Z" fill="#DBB589"/>
<path d="M64.5091 114.177H16.0591V120.03H64.5091V114.177Z" fill="#DBB589"/>
<path d="M24.1568 37.3618H0L14.705 113.304H38.8618L24.1568 37.3618Z" fill="#EAC89B"/>
<path d="M27.6466 37.3618H3.48975L18.2038 113.304H42.3606L27.6466 37.3618Z" fill="#F9DEB7"/>
<path d="M42.915 110.987H36.0351L33.8721 159.973H35.4898L42.915 110.987Z" fill="#EAC89B"/>
<path d="M21.7213 110.987H14.8414L12.6875 159.973H14.3052L21.7213 110.987Z" fill="#EAC89B"/>
<path d="M57.7563 110.987H64.6453L71.9978 159.973H70.38L57.7563 110.987Z" fill="#EAC89B"/>
<path d="M64.5091 110.677H16.0591V116.53H64.5091V110.677Z" fill="#EAC89B"/>
<path d="M42.3605 113.304L27.6465 37.3618H11.8963C10.1332 46.0594 9.44249 57.8015 10.0241 71.0978L17.6038 114.404L42.3605 113.304Z" fill="#EAC89B"/>
<path d="M31.6094 30.4637C45.1692 34.1718 56.7205 49.7038 61.6009 48.3042C69.426 46.0594 72.3433 64.2452 67.9628 65.8993C54.7756 70.8524 48.4228 63.8361 43.3606 61.246C38.2984 58.6558 31.6094 30.4637 31.6094 30.4637Z" fill="#6B9DC6"/>
<path d="M63.1735 48.1679C63.0897 49.2807 62.6962 50.3479 62.0374 51.2488C58.5748 55.8838 51.1314 58.0105 39.5256 43.6055C38.4441 42.2513 36.1902 45.0142 34.9814 43.9327C37.3172 52.1758 40.4345 61.2006 43.161 62.6547C48.2141 65.2358 55.3121 71.743 68.4902 66.7899C72.6526 65.263 69.8898 48.8313 63.1735 48.1679Z" fill="#5189AF"/>
<path d="M53.4848 54.9478C51.3672 60.628 54.2664 66.2537 60.1011 66.5445C65.7359 66.8172 70.6709 61.9186 71.2253 56.4656C71.7069 51.7669 68.726 48.0407 64.5181 47.5681C60.3102 47.0955 55.2934 50.1037 53.4848 54.9478Z" fill="#5189AF"/>
<path d="M72.716 53.8117C69.9895 47.268 63.9549 44.3143 59.8015 47.8588C55.8844 51.2124 55.839 58.6103 59.1289 63.9361C62.0736 68.6893 66.8904 70.4252 70.2985 68.1622C73.8612 65.7992 75.1244 59.5918 72.716 53.8117Z" fill="#F9DEB7"/>
<path d="M72.7158 53.8117C72.2211 52.6209 71.5833 51.4947 70.8163 50.4581C70.4346 53.2846 69.1986 55.6658 67.2809 56.9381C64.1545 59.0103 59.8376 57.7106 56.8838 53.8026C56.4765 57.3365 57.2669 60.9049 59.1287 63.9362C62.0733 68.6894 66.8901 70.4253 70.2982 68.1623C73.8609 65.7993 75.1242 59.5919 72.7158 53.8117Z" fill="#EAC89B"/>
<path d="M39.916 112.013C29.4098 109.814 23.4751 99.8078 21.094 92.1009C12.5328 64.2905 12.5782 41.5697 16.0227 34.9806C19.4672 28.3916 34.1994 27.5464 42.5243 40.6699C45.7052 45.6958 47.6047 75.5873 67.8354 87.5476L39.916 112.013Z" fill="#6B9DC6"/>
<path d="M31.228 48.2678C31.228 48.2678 32.046 64.9086 44.5788 73.9424L49.123 71.0705C36.8719 66.0355 31.228 48.2678 31.228 48.2678Z" fill="#5189AF"/>
<path d="M38.6891 86.1663C23.6298 70.1344 18.5948 48.904 24.1024 37.1801C25.1475 34.9534 17.3588 31.6271 15.4048 36.044C9.8791 48.5587 12.5329 64.2906 21.0941 92.1009C23.4753 99.8078 29.41 109.814 39.9161 112.014L54.9936 98.8172C48.862 95.5843 43.3438 91.3027 38.6891 86.1663Z" fill="#5189AF"/>
<path d="M101.235 158.564H100.135L86.8024 110.632H45.0869C45.0869 110.632 37.8707 88.5746 55.7475 86.5933C73.6243 84.6121 101.344 97.9083 103.589 100.753C104.979 102.452 101.235 158.564 101.235 158.564Z" fill="#54333E"/>
<path d="M89.7834 98.5264C89.7834 98.5264 61.6095 83.3125 49.3766 86.7661C40.2883 89.329 36.3439 95.2364 34.7262 100.817C32.9086 106.997 37.1982 113.268 43.1965 113.268H79.1591L110.105 160L111.268 159.373L89.7834 98.5264Z" fill="#6B4752"/>
<path d="M90.1924 99.6624L89.7834 98.5264C89.7834 98.5264 61.6095 83.3125 49.3766 86.7661C47.1755 87.3709 45.0727 88.2892 43.1329 89.4926C45.3167 89.6788 47.4889 89.9822 49.6402 90.4014C59.8191 92.4554 67.726 96.5724 67.3079 99.5988C66.8899 102.625 58.3105 103.416 48.1406 101.362C43.9425 100.567 39.8583 99.2572 35.9804 97.4631C35.4755 98.534 35.0562 99.6432 34.7262 100.78C32.9086 106.96 37.1982 113.231 43.1965 113.231H79.1591L89.747 129.218C86.6388 116.085 86.8024 104.743 90.1924 99.6624Z" fill="#54333E"/>
<path d="M77.5509 86.4481L51.2856 84.9213L50.9766 87.2751L80.9318 95.8636L103.353 95.7818L104.098 93.3552L77.5509 86.4481Z" fill="#EDCCA2"/>
<path d="M77.5505 86.4481L51.2852 84.9213L82.9126 93.8005L104.098 93.3552L77.5505 86.4481Z" fill="#F9DEB7"/>
<path d="M98.0908 66.3446L80.9048 93.3279L103.326 93.2552L122.829 67.1625L121.502 66.3446H98.0908Z" fill="#F9DEB7"/>
<path d="M99.5356 67.2352L82.2495 95.8635L104.67 95.7817L122.938 67.2352H99.5356Z" fill="#EDCCA2"/>
<path d="M120.029 71.7976L122.938 67.2534H99.5262L93.646 77.0052C103.625 71.0342 113.958 69.1529 120.029 71.7976Z" fill="#DDB890"/>
<path d="M21.3667 33.3811C35.8263 37.7344 29.828 61.6095 43.715 68.553L32.6545 83.6124C27.7104 81.7311 18.2404 72.4519 15.6047 62.1457C13.0327 52.0395 13.5508 31.009 21.3667 33.3811Z" fill="#6B9DC6"/>
<path d="M32.1453 74.4515C21.7755 64.0817 16.0589 48.5406 17.6039 38.0981C17.7809 36.3919 18.3637 34.7527 19.3034 33.3176C13.4051 35.0171 12.8598 53.412 15.1955 62.5458C17.822 72.8429 27.2466 82.7673 32.1816 84.6486C32.1907 84.6486 33.5085 75.8147 32.1453 74.4515Z" fill="#5189AF"/>
<path d="M30.1007 66.5536C24.5295 69.2801 22.6574 75.4784 26.7108 79.6954C30.6187 83.7579 37.6895 83.4943 41.9701 79.8226C45.6054 76.6599 46.1144 71.8522 43.3788 68.6167C40.6432 65.3813 34.863 64.1907 30.1007 66.5536Z" fill="#5189AF"/>
<path d="M70.4441 65.6629C61.5284 69.6164 53.8579 52.7393 62.1919 47.1227C67.4359 43.5964 77.124 30.6637 77.124 30.6637L83.0769 32.545C83.0769 32.545 78.5236 62.073 70.4441 65.6629Z" fill="#FFBB83"/>
<path d="M65.3178 54.0935C64.2283 54.4648 63.0736 54.6056 61.9268 54.507C60.78 54.4085 59.6662 54.0727 58.6561 53.5209C58.1108 60.3462 63.9364 68.544 70.4709 65.663C78.5505 62.0731 83.1037 32.545 83.1037 32.545L79.532 31.0182C79.3593 38.7524 71.5706 52.2213 65.3178 54.0935Z" fill="#FF9D66"/>
<path d="M31.864 68.2169C25.2204 71.516 22.9937 78.8503 27.8287 83.8761C32.482 88.7111 40.9069 88.4203 46.0054 84.0306C50.386 80.2589 50.9404 74.5242 47.6868 70.6708C44.4331 66.8173 37.526 65.3995 31.864 68.2169Z" fill="#F9DEB7"/>
<path d="M48.8684 74.2787C43.7789 78.6502 35.354 78.9592 30.6917 74.1242C29.6914 73.0988 28.9445 71.854 28.5105 70.4889C24.6206 74.2242 23.9209 79.7681 27.8198 83.8215C32.473 88.6565 40.8979 88.3656 45.9965 83.976C49.2955 81.1404 50.4225 77.187 49.3864 73.7607C49.2228 73.9788 49.0501 74.1515 48.8684 74.2787Z" fill="#EAC89B"/>
<path d="M31.364 84.0304C24.9022 77.1415 29.7372 67.6714 41.9519 68.2985C51.1766 68.7439 67.4811 79.7044 67.4811 79.7044L66.3996 85.8754C57.9565 86.2935 35.4901 88.411 31.364 84.0304Z" fill="#FFBB83"/>
<path d="M54.6394 80.3861C42.0066 78.6956 32.1731 74.3424 32.6638 70.6707C32.675 70.5532 32.6994 70.4373 32.7366 70.3253C27.8107 73.3972 26.9382 79.3137 31.3642 84.0305C35.4903 88.4111 57.9567 86.2935 66.3998 85.8482C61.0104 85.1029 57.3569 80.7496 54.6394 80.3861Z" fill="#FF9D66"/>
<path d="M25.3747 38.098C31.8365 38.098 37.2532 36.0167 38.8436 33.1812C37.2231 32.3714 35.5465 31.6789 33.8269 31.109C26.1018 28.3007 18.3767 30.5274 16.0228 34.9807L15.9137 35.1988C15.71 35.4519 15.539 35.7298 15.4048 36.0258C15.4087 36.0437 15.4087 36.0623 15.4048 36.0803C18.5404 37.4743 21.9438 38.163 25.3747 38.098Z" fill="#5189AF"/>
<path d="M33.8269 31.1091C28.6102 29.2096 23.3844 29.6186 19.8218 31.4544C20.8033 34.1809 24.8295 36.253 29.1373 36.253C32.9817 36.253 36.1626 34.6262 37.0078 32.336C35.9692 31.8728 34.9075 31.4633 33.8269 31.1091Z" fill="#EAC89B"/>
<path d="M23.957 25.9197C23.957 25.9197 17.8497 9.91513 21.9394 4.88019C26.0292 -0.154756 33.0272 -1.41806 37.4987 1.67197C41.9701 4.76201 38.5711 10.2332 38.5711 10.2332L23.957 25.9197Z" fill="#BC265C"/>
<path d="M25.6111 17.0221L22.4756 30.6546C25.0749 33.6901 33.6088 36.9165 35.0175 31.1545L36.1626 22.4933L25.6111 17.0221Z" fill="#ED7656"/>
<path d="M37.7262 28.4826C36.1539 29.7822 27.1565 30.173 25.8114 24.9654C24.3482 19.2852 21.8761 5.4436 29.7285 4.31665C42.6339 2.4808 38.7532 27.3192 37.7262 28.4826Z" fill="#FFBB83"/>
<path d="M24.6475 21.448L28.4282 20.1848C28.4282 20.1848 26.7287 4.06203 31.5819 4.06203C31.5819 4.06203 27.8012 1.60819 24.3112 5.63433C20.8213 9.66047 24.6475 21.448 24.6475 21.448Z" fill="#BC265C"/>
<path d="M26.8195 17.722C26.2651 15.7589 25.0018 14.3411 23.9294 14.5593C22.857 14.7774 22.5025 16.5496 23.0205 18.5127C23.5386 20.4758 24.8382 21.9026 25.9106 21.6845C26.9831 21.4664 27.4102 19.6942 26.8195 17.722Z" fill="#FFBB83"/>
<path d="M26.1563 17.9764C25.82 16.7586 25.0202 15.8861 24.3386 16.0225C23.657 16.1588 23.4298 17.2494 23.8115 18.4581C24.1932 19.6669 24.9475 20.5394 25.5837 20.403C26.2199 20.2667 26.5016 19.1852 26.1563 17.9764Z" fill="#ED7656"/>
<path d="M26.3113 18.8403C26.084 18.0312 25.5476 17.4403 25.1203 17.5312C24.6931 17.6221 24.5294 18.3494 24.7658 19.1585C25.0022 19.9676 25.5294 20.5585 25.9567 20.4676C26.384 20.3767 26.5385 19.6221 26.3113 18.8403Z" fill="#FFBB83"/>
<path d="M119.648 160H109.278C109.278 160 108.66 156.301 109.996 155.583C111.332 154.865 119.648 160 119.648 160Z" fill="#F9DEB7"/>
<path d="M104.452 160H97.7085C97.7085 160 99.0627 155.801 100.271 154.983C101.48 154.165 104.452 160 104.452 160Z" fill="#DBB589"/>
<path d="M32.9366 14.5686C32.9366 13.9413 32.5911 13.4504 32.2093 13.4504C31.8274 13.4504 31.5456 13.9686 31.5638 14.5868C31.582 15.205 31.9093 15.705 32.2911 15.705C32.6729 15.705 32.9547 15.205 32.9366 14.5686Z" fill="#604748"/>
<path d="M32.4999 10.7239L30.2097 11.6782C30.1653 11.697 30.125 11.7244 30.0913 11.7589C30.0576 11.7934 30.0311 11.8342 30.0133 11.8791C29.9956 11.9239 29.9869 11.9718 29.9879 12.02C29.9888 12.0682 29.9993 12.1158 30.0188 12.1599L30.3278 12.8506C30.3711 12.94 30.4475 13.0089 30.5409 13.0429C30.6342 13.0768 30.7371 13.073 30.8277 13.0323L33.1179 12.0781C33.1631 12.0603 33.2043 12.0335 33.2387 11.9992C33.2731 11.9649 33.3001 11.9239 33.318 11.8787C33.3359 11.8335 33.3443 11.7852 33.3427 11.7366C33.3411 11.688 33.3296 11.6403 33.3088 11.5964L32.9998 10.9057C32.9565 10.8163 32.8801 10.7473 32.7867 10.7134C32.6934 10.6795 32.5905 10.6832 32.4999 10.7239Z" fill="#BC265C"/>
<path d="M38.208 15.0412C38.208 14.423 37.8534 13.923 37.4807 13.9321C37.108 13.9412 36.8079 14.4503 36.8352 15.0685C36.8625 15.6867 37.1807 16.1867 37.5625 16.1776C37.9443 16.1685 38.2261 15.6594 38.208 15.0412Z" fill="#604748"/>
<path d="M39.2529 12.1691L36.9718 11.2602C36.9277 11.2408 36.8801 11.2302 36.8319 11.2293C36.7837 11.2284 36.7358 11.237 36.691 11.2548C36.6461 11.2726 36.6053 11.2991 36.5708 11.3328C36.5363 11.3665 36.5089 11.4067 36.4901 11.4511L36.2174 12.16C36.1816 12.2516 36.1835 12.3537 36.2227 12.4439C36.2619 12.5341 36.3351 12.6052 36.4265 12.6417L38.7076 13.5505C38.7515 13.5713 38.7993 13.5829 38.8478 13.5844C38.8964 13.586 38.9448 13.5776 38.9899 13.5597C39.0351 13.5418 39.0761 13.5148 39.1104 13.4804C39.1447 13.446 39.1716 13.4049 39.1893 13.3596L39.4711 12.6599C39.5043 12.5657 39.5002 12.4623 39.4596 12.371C39.4191 12.2798 39.3451 12.2075 39.2529 12.1691Z" fill="#BC265C"/>
<path d="M34.3629 14.7773C35.2718 16.795 35.6535 18.1037 35.1355 18.6581C34.9594 18.8029 34.7485 18.8992 34.5237 18.9375C34.299 18.9757 34.0681 18.9546 33.854 18.8762C33.854 18.8762 35.2173 19.5124 35.7807 18.9853C36.3442 18.4581 35.6898 17.0676 34.3629 14.7773Z" fill="#ED7656"/>
<path d="M36.0264 21.23L32.5637 21.021C32.5637 21.021 32.4183 23.6657 33.9633 24.4927C35.5083 25.3198 36.0264 21.23 36.0264 21.23Z" fill="#422931"/>
<path d="M35.2363 22.4756C35.3962 22.1915 35.5126 21.8851 35.5817 21.5665L32.8544 21.3029C32.8383 21.6173 32.9041 21.9306 33.0453 22.2119L35.2363 22.4756Z" fill="#FFEFDC"/>
<path d="M65.5271 78.941C70.7257 79.6227 74.4246 78.8047 76.2059 81.3404C77.2645 82.8207 77.9475 84.5361 78.1963 86.339C78.1963 86.339 69.3624 87.2478 65.3181 85.7845C61.2738 84.3213 65.5271 78.941 65.5271 78.941Z" fill="#FFBB83"/>
<path d="M74.3613 84.2758C76.8879 87.4204 76.9606 88.5201 78.0603 88.5837C79.16 88.6473 80.1779 88.3838 79.878 87.6749C78.8107 85.6262 77.5957 83.6579 76.2426 81.7856C75.5523 82.566 74.9233 83.3985 74.3613 84.2758Z" fill="#FFBB83"/>
<path d="M74.3882 83.0581C78.3598 83.8306 79.1141 84.6212 79.9957 83.9669C80.8773 83.3125 81.4862 82.4401 80.7955 82.0493C78.6574 81.17 76.4582 80.4471 74.2155 79.8862C74.1922 80.9464 74.2499 82.0067 74.3882 83.0581Z" fill="#FFBB83"/>
<path d="M70.7983 84.2123C73.334 87.3659 73.3976 88.4565 74.4973 88.5292C75.597 88.6019 76.6149 88.3202 76.3149 87.5659C75.2511 85.5152 74.0359 83.5467 72.6796 81.6766C71.9874 82.4715 71.3584 83.3193 70.7983 84.2123Z" fill="#FFBB83"/>
<path d="M67.0352 84.1394C69.5617 87.2931 69.6344 88.3928 70.725 88.4564C71.8156 88.52 72.8517 88.2474 72.5427 87.5021C71.4754 85.4534 70.2604 83.4852 68.9074 81.6129C68.2184 82.4051 67.5925 83.2498 67.0352 84.1394Z" fill="#FFBB83"/>
<path d="M76.8055 29.1005C79.3048 29.1005 79.9501 27.0829 78.8322 26.483C77.7144 25.8832 74.0517 25.5106 73.1338 26.5376C72.2159 27.5645 72.225 32.2087 74.3335 35.4623L78.8231 32.5177C79.7229 28.6642 74.2517 29.1459 76.8055 29.1005Z" fill="#FFBB83"/>
<path d="M78.8047 24.0657C78.7922 23.7092 78.675 23.3642 78.4679 23.0738C78.2607 22.7833 77.9727 22.5603 77.6396 22.4324C77.3066 22.3045 76.9433 22.2775 76.595 22.3547C76.2467 22.4318 75.9288 22.6098 75.6809 22.8663C75.433 23.1229 75.2661 23.4467 75.201 23.7974C75.1358 24.1482 75.1753 24.5104 75.3146 24.8388C75.4538 25.1672 75.6867 25.4475 75.984 25.6445C76.2814 25.8416 76.6302 25.9468 76.987 25.947C77.2368 25.9692 77.4885 25.9353 77.7235 25.8476C77.9585 25.76 78.1709 25.6209 78.3452 25.4405C78.5195 25.2602 78.6512 25.0431 78.7307 24.8052C78.8102 24.5673 78.8355 24.3146 78.8047 24.0657Z" fill="#FFBB83"/>
<path d="M80.5861 26.9739C81.6051 26.9739 82.4311 26.1316 82.4311 25.0926C82.4311 24.0536 81.6051 23.2113 80.5861 23.2113C79.5672 23.2113 78.7412 24.0536 78.7412 25.0926C78.7412 26.1316 79.5672 26.9739 80.5861 26.9739Z" fill="#FFBB83"/>
<path d="M85.0939 28.6643C85.3101 28.3824 85.439 28.0434 85.4646 27.6891C85.4902 27.3348 85.4114 26.9807 85.238 26.6707C85.0646 26.3607 84.8042 26.1083 84.4889 25.9447C84.1736 25.781 83.8173 25.7134 83.464 25.7501C83.1106 25.7868 82.7758 25.9262 82.5009 26.1511C82.2259 26.376 82.0229 26.6765 81.9168 27.0155C81.8108 27.3546 81.8065 27.7172 81.9043 28.0587C82.0021 28.4002 82.1979 28.7055 82.4674 28.9369C82.6436 29.1208 82.8596 29.2621 83.0988 29.3498C83.3379 29.4375 83.5939 29.4695 83.8473 29.4432C84.1007 29.4169 84.3448 29.333 84.5608 29.198C84.7768 29.063 84.9592 28.8805 85.0939 28.6643Z" fill="#FFBB83"/>
</svg>
