<svg width="59" height="60" viewBox="0 0 59 60" fill="none" xmlns="http://www.w3.org/2000/svg">
<path d="M58.0317 54.1935H57.0804V0.967742C57.0804 0.433548 56.6542 0 56.129 0H2.85402C2.32888 0 1.90268 0.433548 1.90268 0.967742V54.1935H0.95134C0.4262 54.1935 0 54.6271 0 55.1613V59.0323C0 59.5664 0.4262 60 0.95134 60H58.0317C58.5569 60 58.9831 59.5664 58.9831 59.0323V55.1613C58.9831 54.6271 58.5569 54.1935 58.0317 54.1935ZM3.80536 1.93548H55.1777V54.1935H38.0536V53.2258C38.0536 51.9658 37.2554 50.9013 36.1509 50.5006V33.3039L38.3323 35.5229C38.7043 35.9013 39.3055 35.9013 39.6775 35.5229L44.713 30.4006V32.9032H46.6156V24.9832C47.7201 24.5826 48.5183 23.5181 48.5183 22.2581V20.3226C48.5183 18.7219 47.2378 17.4194 45.6643 17.4194C44.0908 17.4194 42.8103 18.7219 42.8103 20.3226V22.2581C42.8103 23.5181 43.6085 24.5826 44.713 24.9832V25.7284L43.4829 24.4771C43.1109 24.0987 42.5097 24.0987 42.1377 24.4771L39.0049 27.6639L36.8235 25.4448C36.6456 25.2629 36.403 25.1613 36.1509 25.1613H29.4915H23.7835C21.1606 25.1613 19.0268 27.3319 19.0268 30V35.8064C19.0268 38.1426 20.664 40.0974 22.8321 40.5474V50.5006C21.7276 50.9013 20.9295 51.9658 20.9295 53.2258V54.1935H3.80536V1.93548ZM31.3942 40.6452H27.5888C27.0637 40.6452 26.6375 41.0787 26.6375 41.6129V50.3226H24.7348V38.7097H34.2482V50.3226H32.3455V41.6129C32.3455 41.0787 31.9193 40.6452 31.3942 40.6452ZM34.8352 30.0735C34.4804 30.2235 34.2482 30.5768 34.2482 30.9677V36.7742H24.7348V30.9677H22.8321V34.8387H20.9295V30C20.9295 28.3994 22.21 27.0968 23.7835 27.0968H35.757L38.3323 29.7164C38.7043 30.0948 39.3055 30.0948 39.6775 29.7164L42.8103 26.5297L44.3191 28.0645L39.0049 33.4703L35.8722 30.2835C35.6001 30.0058 35.191 29.9235 34.8352 30.0735ZM22.8321 36.7742V38.5316C22.0264 38.2394 21.3918 37.5939 21.1045 36.7742H22.8321ZM23.7835 52.2581H26.6375V54.1935H22.8321V53.2258C22.8321 52.6926 23.2593 52.2581 23.7835 52.2581ZM28.5402 42.5806H30.4429V54.1935H28.5402V42.5806ZM32.3455 52.2581H35.1996C35.7238 52.2581 36.1509 52.6926 36.1509 53.2258V54.1935H32.3455V52.2581ZM44.713 22.2581V20.3226C44.713 19.7894 45.1401 19.3548 45.6643 19.3548C46.1885 19.3548 46.6156 19.7894 46.6156 20.3226V22.2581C46.6156 22.7913 46.1885 23.2258 45.6643 23.2258C45.1401 23.2258 44.713 22.7913 44.713 22.2581ZM57.0804 58.0645H1.90268V56.129H57.0804V58.0645Z" fill="#32325C"/>
<path d="M33.2969 21.2903V19.3548C33.2969 17.22 31.5902 15.4839 29.4915 15.4839C27.3929 15.4839 25.6862 17.22 25.6862 19.3548V21.2903C25.6862 23.4252 27.3929 25.1613 29.4915 25.1613C31.5902 25.1613 33.2969 23.4252 33.2969 21.2903ZM31.3942 21.2903C31.3942 22.3577 30.5409 23.2258 29.4915 23.2258C28.4422 23.2258 27.5888 22.3577 27.5888 21.2903V19.3548C27.5888 18.2874 28.4422 17.4194 29.4915 17.4194C30.5409 17.4194 31.3942 18.2874 31.3942 19.3548V21.2903Z" fill="#32325C"/>
<path d="M25.5843 9.97456L24.7633 13.3142C24.673 13.681 24.8014 14.0671 25.0915 14.3042C25.3807 14.5404 25.7803 14.5829 26.1123 14.4146L29.4915 12.6949L32.8716 14.4136C33.0057 14.4823 33.1522 14.5162 33.2968 14.5162C33.509 14.5162 33.7202 14.4436 33.8914 14.3033C34.1816 14.0662 34.3091 13.68 34.2197 13.3133L33.3986 9.97359L35.8721 7.45746C36.1442 7.18069 36.226 6.76456 36.0786 6.40262C35.9311 6.04262 35.5839 5.80649 35.1995 5.80649H31.9821L30.342 2.47068C30.0195 1.81455 28.9625 1.81455 28.64 2.47068L27.0009 5.80649H23.7834C23.3991 5.80649 23.0519 6.04262 22.9044 6.40359C22.757 6.76553 22.8388 7.18165 23.1109 7.45843L25.5843 9.97456ZM27.5888 7.74198C27.9494 7.74198 28.2785 7.53488 28.4403 7.20682L29.4915 5.06714L30.5427 7.20682C30.7044 7.53488 31.0336 7.74198 31.3942 7.74198H32.903L31.6729 8.99327C31.436 9.23424 31.3418 9.58262 31.4227 9.91262L31.8727 11.7426L29.9177 10.7478C29.7836 10.6791 29.637 10.6452 29.4915 10.6452C29.3459 10.6452 29.1994 10.6791 29.0662 10.7468L27.1112 11.7417L27.5612 9.91165C27.6421 9.58165 27.5469 9.23327 27.311 8.9923L26.08 7.74198H27.5888Z" fill="#32325C"/>
<path d="M38.9031 9.97456L38.0821 13.3142C37.9917 13.681 38.1201 14.0671 38.4103 14.3042C38.6995 14.5404 39.099 14.5829 39.4311 14.4146L42.8102 12.6949L46.1903 14.4136C46.3245 14.4823 46.471 14.5162 46.6156 14.5162C46.8277 14.5162 47.0389 14.4436 47.2102 14.3033C47.5003 14.0662 47.6278 13.68 47.5384 13.3133L46.7174 9.97359L49.1909 7.45746C49.4629 7.18069 49.5448 6.76456 49.3973 6.40262C49.2498 6.04262 48.9026 5.80649 48.5183 5.80649H45.3008L43.6607 2.47068C43.3382 1.81455 42.2813 1.81455 41.9588 2.47068L40.3196 5.80649H37.1022C36.7178 5.80649 36.3706 6.04262 36.2231 6.40359C36.0757 6.76553 36.1575 7.18165 36.4296 7.45843L38.9031 9.97456ZM40.9075 7.74198C41.2681 7.74198 41.5973 7.53488 41.759 7.20682L42.8102 5.06714L43.8615 7.20682C44.0232 7.53488 44.3523 7.74198 44.7129 7.74198H46.2217L44.9916 8.99327C44.7548 9.23424 44.6606 9.58262 44.7414 9.91262L45.1914 11.7426L43.2364 10.7478C43.1023 10.6791 42.9558 10.6452 42.8102 10.6452C42.6647 10.6452 42.5182 10.6791 42.385 10.7468L40.43 11.7417L40.88 9.91165C40.9608 9.58165 40.8657 9.23327 40.6298 8.9923L39.3987 7.74198H40.9075Z" fill="#32325C"/>
<path d="M19.9781 14.5162C20.1902 14.5162 20.4014 14.4436 20.5727 14.3033C20.8628 14.0662 20.9903 13.68 20.9009 13.3133L20.0799 9.97359L22.5534 7.45746C22.8255 7.18069 22.9073 6.76456 22.7598 6.40262C22.6124 6.04262 22.2651 5.80649 21.8808 5.80649H18.6633L17.0232 2.47068C16.7007 1.81455 15.6438 1.81455 15.3213 2.47068L13.6821 5.80649H10.4647C10.0804 5.80649 9.73311 6.04262 9.58566 6.40359C9.4382 6.76553 9.52001 7.18165 9.7921 7.45843L12.2656 9.97456L11.4446 13.3142C11.3542 13.681 11.4826 14.0671 11.7728 14.3042C12.062 14.5404 12.4616 14.5829 12.7936 14.4146L16.1727 12.6949L19.5528 14.4136C19.687 14.4823 19.8335 14.5162 19.9781 14.5162ZM16.598 10.7468C16.4648 10.6791 16.3183 10.6452 16.1727 10.6452C16.0272 10.6452 15.8807 10.6791 15.7475 10.7468L13.7925 11.7417L14.2425 9.91165C14.3233 9.58165 14.2282 9.23327 13.9923 8.9923L12.7612 7.74198H14.2701C14.6306 7.74198 14.9598 7.53488 15.1215 7.20682L16.1727 5.06714L17.224 7.20682C17.3857 7.53488 17.7149 7.74198 18.0754 7.74198H19.5842L18.3542 8.99327C18.1173 9.23424 18.0231 9.58262 18.104 9.91262L18.5539 11.7426L16.598 10.7468Z" fill="#32325C"/>
</svg>
