<svg width="60" height="60" viewBox="0 0 60 60" fill="none" xmlns="http://www.w3.org/2000/svg">
<path d="M58.0645 40.8232V32.6052C58.0645 30.7519 57.7161 28.9403 57.0271 27.2206C56.431 25.7303 56.129 24.1616 56.129 22.5561V10.6452C56.129 9.04452 54.8265 7.74194 53.2258 7.74194C51.6252 7.74194 50.3226 9.04452 50.3226 10.6452V22.5561C50.3226 24.1616 50.0206 25.7313 49.4245 27.2216C48.7355 28.9413 48.3871 30.7529 48.3871 32.6052V40.6452H46.4516V37.7419C46.4516 37.2077 46.0181 36.7742 45.4839 36.7742H14.5161C13.9819 36.7742 13.5484 37.2077 13.5484 37.7419V40.6452H11.6129V32.6052C11.6129 30.7519 11.2645 28.9403 10.5755 27.2206C9.97935 25.7303 9.67742 24.1616 9.67742 22.5561V10.6452C9.67742 9.04452 8.37484 7.74194 6.77419 7.74194C5.17355 7.74194 3.87097 9.04452 3.87097 10.6452V22.5561C3.87097 24.1616 3.56903 25.7313 2.9729 27.2216C2.28387 28.9413 1.93548 30.7529 1.93548 32.6052V40.8232C0.811935 41.2239 0 42.2884 0 43.5484V57.0968C0 58.6974 1.30258 60 2.90323 60H57.0968C58.6974 60 60 58.6974 60 57.0968V43.5484C60 42.2884 59.1881 41.2239 58.0645 40.8232ZM50.3226 32.6052C50.3226 30.9997 50.6245 29.43 51.2206 27.9397C51.9097 26.22 52.2581 24.4084 52.2581 22.5561V10.6452C52.2581 10.1119 52.6926 9.67742 53.2258 9.67742C53.759 9.67742 54.1935 10.1119 54.1935 10.6452V22.5561C54.1935 24.4094 54.5419 26.221 55.231 27.9406C55.8271 29.431 56.129 30.9997 56.129 32.6052V40.6452H50.3226V32.6052ZM15.4839 38.7097H44.5161V40.6452H15.4839V38.7097ZM4.76903 27.9406C5.45806 26.22 5.80645 24.4084 5.80645 22.5561V10.6452C5.80645 10.1119 6.24097 9.67742 6.77419 9.67742C7.30742 9.67742 7.74194 10.1119 7.74194 10.6452V22.5561C7.74194 24.4094 8.09032 26.221 8.77935 27.9406C9.37548 29.431 9.67742 30.9997 9.67742 32.6052V40.6452H3.87097V32.6052C3.87097 30.9997 4.1729 29.431 4.76903 27.9406ZM58.0645 57.0968C58.0645 57.63 57.63 58.0645 57.0968 58.0645H2.90323C2.37 58.0645 1.93548 57.63 1.93548 57.0968V43.5484C1.93548 43.0152 2.37 42.5806 2.90323 42.5806H57.0968C57.63 42.5806 58.0645 43.0152 58.0645 43.5484V57.0968Z" fill="#32325C"/>
<path d="M53.2258 44.5161C51.6252 44.5161 50.3226 45.8187 50.3226 47.4194C50.3226 49.02 51.6252 50.3226 53.2258 50.3226C54.8265 50.3226 56.129 49.02 56.129 47.4194C56.129 45.8187 54.8265 44.5161 53.2258 44.5161ZM53.2258 48.3871C52.6926 48.3871 52.2581 47.9526 52.2581 47.4194C52.2581 46.8861 52.6926 46.4516 53.2258 46.4516C53.759 46.4516 54.1935 46.8861 54.1935 47.4194C54.1935 47.9526 53.759 48.3871 53.2258 48.3871Z" fill="#32325C"/>
<path d="M45.4839 50.3226C47.0845 50.3226 48.3871 49.02 48.3871 47.4194C48.3871 45.8187 47.0845 44.5161 45.4839 44.5161C43.8832 44.5161 42.5806 45.8187 42.5806 47.4194C42.5806 49.02 43.8832 50.3226 45.4839 50.3226ZM45.4839 46.4516C46.0171 46.4516 46.4516 46.8861 46.4516 47.4194C46.4516 47.9526 46.0171 48.3871 45.4839 48.3871C44.9506 48.3871 44.5161 47.9526 44.5161 47.4194C44.5161 46.8861 44.9506 46.4516 45.4839 46.4516Z" fill="#32325C"/>
<path d="M4.83871 50.3226H8.70968C9.24387 50.3226 9.67742 49.889 9.67742 49.3548V45.4839C9.67742 44.9497 9.24387 44.5161 8.70968 44.5161H4.83871C4.30452 44.5161 3.87097 44.9497 3.87097 45.4839V49.3548C3.87097 49.889 4.30452 50.3226 4.83871 50.3226ZM5.80645 46.4516H7.74194V48.3871H5.80645V46.4516Z" fill="#32325C"/>
<path d="M12.5806 50.3226H16.4516C16.9858 50.3226 17.4194 49.889 17.4194 49.3548V45.4839C17.4194 44.9497 16.9858 44.5161 16.4516 44.5161H12.5806C12.0465 44.5161 11.6129 44.9497 11.6129 45.4839V49.3548C11.6129 49.889 12.0465 50.3226 12.5806 50.3226ZM13.5484 46.4516H15.4839V48.3871H13.5484V46.4516Z" fill="#32325C"/>
<path d="M20.3226 50.3226H24.1935C24.7277 50.3226 25.1613 49.889 25.1613 49.3548V45.4839C25.1613 44.9497 24.7277 44.5161 24.1935 44.5161H20.3226C19.7884 44.5161 19.3548 44.9497 19.3548 45.4839V49.3548C19.3548 49.889 19.7884 50.3226 20.3226 50.3226ZM21.2903 46.4516H23.2258V48.3871H21.2903V46.4516Z" fill="#32325C"/>
<path d="M27.0968 14.5161C27.0968 16.1168 28.3994 17.4194 30 17.4194C31.6006 17.4194 32.9032 16.1168 32.9032 14.5161C32.9032 12.9155 31.6006 11.6129 30 11.6129C28.3994 11.6129 27.0968 12.9155 27.0968 14.5161ZM30.9677 14.5161C30.9677 15.0494 30.5332 15.4839 30 15.4839C29.4668 15.4839 29.0323 15.0494 29.0323 14.5161C29.0323 13.9829 29.4668 13.5484 30 13.5484C30.5332 13.5484 30.9677 13.9829 30.9677 14.5161Z" fill="#32325C"/>
<path d="M36.09 12.2971L37.4584 10.9287L37.2929 10.7632C35.3448 8.81419 32.7552 7.74194 30 7.74194C27.2448 7.74194 24.6552 8.81419 22.7071 10.7632L22.5416 10.9287L23.91 12.2971L24.0755 12.1316C25.6587 10.5484 27.7626 9.67742 30 9.67742C32.2374 9.67742 34.3413 10.5484 35.9245 12.1316L36.09 12.2971Z" fill="#32325C"/>
<path d="M40.3617 8.02548C37.683 5.34581 34.1207 3.87097 30.332 3.87097H29.6672C25.8784 3.87097 22.3162 5.34581 19.6375 8.02548L21.0059 9.39387C23.3207 7.08 26.3962 5.80645 29.6681 5.80645H30.333C33.6049 5.80645 36.6804 7.08 38.9942 9.39387L40.3617 8.02548Z" fill="#32325C"/>
<path d="M29.1009 1.93548H30.898C35.0525 1.93548 38.9583 3.55355 41.8954 6.49064L43.2638 5.12226C39.9619 1.81936 35.5703 0 30.899 0H29.1019C24.4306 0 20.039 1.81936 16.7361 5.12226L18.1045 6.49064C21.0416 3.55355 24.9464 1.93548 29.1009 1.93548Z" fill="#32325C"/>
<path d="M3.87097 54.1935H56.129V56.129H3.87097V54.1935Z" fill="#32325C"/>
</svg>
