<svg width="60" height="60" viewBox="0 0 60 60" fill="none" xmlns="http://www.w3.org/2000/svg">
<path d="M10.6452 34.8387H6.77419C6.23903 34.8387 5.80645 35.2713 5.80645 35.8064V39.6774C5.80645 40.2126 6.23903 40.6452 6.77419 40.6452H10.6452C11.1803 40.6452 11.6129 40.2126 11.6129 39.6774V35.8064C11.6129 35.2713 11.1803 34.8387 10.6452 34.8387ZM9.67742 38.7097H7.74194V36.7742H9.67742V38.7097Z" fill="#32325C"/>
<path d="M10.6452 42.5806H6.77419C6.23903 42.5806 5.80645 43.0132 5.80645 43.5484V47.4194C5.80645 47.9545 6.23903 48.3871 6.77419 48.3871H10.6452C11.1803 48.3871 11.6129 47.9545 11.6129 47.4194V43.5484C11.6129 43.0132 11.1803 42.5806 10.6452 42.5806ZM9.67742 46.4516H7.74194V44.5161H9.67742V46.4516Z" fill="#32325C"/>
<path d="M10.6452 50.3226H6.77419C6.23903 50.3226 5.80645 50.7552 5.80645 51.2903V55.1613C5.80645 55.6964 6.23903 56.129 6.77419 56.129H10.6452C11.1803 56.129 11.6129 55.6964 11.6129 55.1613V51.2903C11.6129 50.7552 11.1803 50.3226 10.6452 50.3226ZM9.67742 54.1935H7.74194V52.2581H9.67742V54.1935Z" fill="#32325C"/>
<path d="M53.2258 34.8387H49.3548C48.8197 34.8387 48.3871 35.2713 48.3871 35.8064V39.6774C48.3871 40.2126 48.8197 40.6452 49.3548 40.6452H53.2258C53.761 40.6452 54.1935 40.2126 54.1935 39.6774V35.8064C54.1935 35.2713 53.761 34.8387 53.2258 34.8387ZM52.2581 38.7097H50.3226V36.7742H52.2581V38.7097Z" fill="#32325C"/>
<path d="M10.6452 27.0968H6.77419C6.23903 27.0968 5.80645 27.5294 5.80645 28.0645V31.9355C5.80645 32.4706 6.23903 32.9032 6.77419 32.9032H10.6452C11.1803 32.9032 11.6129 32.4706 11.6129 31.9355V28.0645C11.6129 27.5294 11.1803 27.0968 10.6452 27.0968ZM9.67742 30.9677H7.74194V29.0323H9.67742V30.9677Z" fill="#32325C"/>
<path d="M53.2258 27.0968H49.3548C48.8197 27.0968 48.3871 27.5294 48.3871 28.0645V31.9355C48.3871 32.4706 48.8197 32.9032 49.3548 32.9032H53.2258C53.761 32.9032 54.1935 32.4706 54.1935 31.9355V28.0645C54.1935 27.5294 53.761 27.0968 53.2258 27.0968ZM52.2581 30.9677H50.3226V29.0323H52.2581V30.9677Z" fill="#32325C"/>
<path d="M53.2258 42.5806H49.3548C48.8197 42.5806 48.3871 43.0132 48.3871 43.5484V47.4194C48.3871 47.9545 48.8197 48.3871 49.3548 48.3871H53.2258C53.761 48.3871 54.1935 47.9545 54.1935 47.4194V43.5484C54.1935 43.0132 53.761 42.5806 53.2258 42.5806ZM52.2581 46.4516H50.3226V44.5161H52.2581V46.4516Z" fill="#32325C"/>
<path d="M39.6774 42.5806H35.8064C35.2713 42.5806 34.8387 43.0132 34.8387 43.5484V47.4194C34.8387 47.9545 35.2713 48.3871 35.8064 48.3871H39.6774C40.2126 48.3871 40.6452 47.9545 40.6452 47.4194V43.5484C40.6452 43.0132 40.2126 42.5806 39.6774 42.5806ZM38.7097 46.4516H36.7742V44.5161H38.7097V46.4516Z" fill="#32325C"/>
<path d="M31.9355 42.5806H28.0645C27.5294 42.5806 27.0968 43.0132 27.0968 43.5484V47.4194C27.0968 47.9545 27.5294 48.3871 28.0645 48.3871H31.9355C32.4706 48.3871 32.9032 47.9545 32.9032 47.4194V43.5484C32.9032 43.0132 32.4706 42.5806 31.9355 42.5806ZM30.9677 46.4516H29.0323V44.5161H30.9677V46.4516Z" fill="#32325C"/>
<path d="M24.1935 42.5806H20.3226C19.7874 42.5806 19.3548 43.0132 19.3548 43.5484V47.4194C19.3548 47.9545 19.7874 48.3871 20.3226 48.3871H24.1935C24.7287 48.3871 25.1613 47.9545 25.1613 47.4194V43.5484C25.1613 43.0132 24.7287 42.5806 24.1935 42.5806ZM23.2258 46.4516H21.2903V44.5161H23.2258V46.4516Z" fill="#32325C"/>
<path d="M40.6452 28.0645C40.6452 27.5294 40.2126 27.0968 39.6774 27.0968H35.8064C35.2713 27.0968 34.8387 27.5294 34.8387 28.0645V31.9355C34.8387 32.4706 35.2713 32.9032 35.8064 32.9032H39.6774C40.2126 32.9032 40.6452 32.4706 40.6452 31.9355V28.0645ZM38.7097 30.9677H36.7742V29.0323H38.7097V30.9677Z" fill="#32325C"/>
<path d="M32.9032 28.0645C32.9032 27.5294 32.4706 27.0968 31.9355 27.0968H28.0645C27.5294 27.0968 27.0968 27.5294 27.0968 28.0645V31.9355C27.0968 32.4706 27.5294 32.9032 28.0645 32.9032H31.9355C32.4706 32.9032 32.9032 32.4706 32.9032 31.9355V28.0645ZM30.9677 30.9677H29.0323V29.0323H30.9677V30.9677Z" fill="#32325C"/>
<path d="M25.1613 28.0645C25.1613 27.5294 24.7287 27.0968 24.1935 27.0968H20.3226C19.7874 27.0968 19.3548 27.5294 19.3548 28.0645V31.9355C19.3548 32.4706 19.7874 32.9032 20.3226 32.9032H24.1935C24.7287 32.9032 25.1613 32.4706 25.1613 31.9355V28.0645ZM23.2258 30.9677H21.2903V29.0323H23.2258V30.9677Z" fill="#32325C"/>
<path d="M40.6452 35.8064C40.6452 35.2713 40.2126 34.8387 39.6774 34.8387H35.8064C35.2713 34.8387 34.8387 35.2713 34.8387 35.8064V39.6774C34.8387 40.2126 35.2713 40.6452 35.8064 40.6452H39.6774C40.2126 40.6452 40.6452 40.2126 40.6452 39.6774V35.8064ZM38.7097 38.7097H36.7742V36.7742H38.7097V38.7097Z" fill="#32325C"/>
<path d="M32.9032 35.8064C32.9032 35.2713 32.4706 34.8387 31.9355 34.8387H28.0645C27.5294 34.8387 27.0968 35.2713 27.0968 35.8064V39.6774C27.0968 40.2126 27.5294 40.6452 28.0645 40.6452H31.9355C32.4706 40.6452 32.9032 40.2126 32.9032 39.6774V35.8064ZM30.9677 38.7097H29.0323V36.7742H30.9677V38.7097Z" fill="#32325C"/>
<path d="M25.1613 35.8064C25.1613 35.2713 24.7287 34.8387 24.1935 34.8387H20.3226C19.7874 34.8387 19.3548 35.2713 19.3548 35.8064V39.6774C19.3548 40.2126 19.7874 40.6452 20.3226 40.6452H24.1935C24.7287 40.6452 25.1613 40.2126 25.1613 39.6774V35.8064ZM23.2258 38.7097H21.2903V36.7742H23.2258V38.7097Z" fill="#32325C"/>
<path d="M53.2258 50.3226H49.3548C48.8197 50.3226 48.3871 50.7552 48.3871 51.2903V55.1613C48.3871 55.6964 48.8197 56.129 49.3548 56.129H53.2258C53.761 56.129 54.1935 55.6964 54.1935 55.1613V51.2903C54.1935 50.7552 53.761 50.3226 53.2258 50.3226ZM52.2581 54.1935H50.3226V52.2581H52.2581V54.1935Z" fill="#32325C"/>
<path d="M58.0645 58.0645V24.1935C58.0645 23.6584 57.6319 23.2258 57.0968 23.2258H56.129V20.3226C56.129 19.7874 55.6964 19.3548 55.1613 19.3548H44.5161V16.4516C44.5161 15.9165 44.0835 15.4839 43.5484 15.4839H39.6774V17.4194H42.5806V58.0645H34.8387V51.2903C34.8387 50.7552 34.4061 50.3226 33.871 50.3226H26.129C25.5939 50.3226 25.1613 50.7552 25.1613 51.2903V58.0645H17.4194V17.4194H20.3226V15.4839H16.4516C15.9165 15.4839 15.4839 15.9165 15.4839 16.4516V19.3548H4.83871C4.30355 19.3548 3.87097 19.7874 3.87097 20.3226V23.2258H2.90323C2.36806 23.2258 1.93548 23.6584 1.93548 24.1935V58.0645H0V60H60V58.0645H58.0645ZM54.1935 21.2903V23.2258H44.5161V21.2903H54.1935ZM44.5161 25.1613H56.129V58.0645H44.5161V25.1613ZM27.0968 52.2581H32.9032V58.0645H27.0968V52.2581ZM5.80645 21.2903H15.4839V23.2258H5.80645V21.2903ZM3.87097 25.1613H15.4839V58.0645H3.87097V25.1613Z" fill="#32325C"/>
<path d="M27.2303 18.9435L29.0826 24.4994C29.2142 24.8952 29.5829 25.1613 30 25.1613C30.4171 25.1613 30.7858 24.8952 30.9174 24.4994L32.7697 18.9435C36.8642 17.7271 39.6774 13.9926 39.6774 9.67742C39.6774 4.34129 35.3361 0 30 0C24.6639 0 20.3226 4.34129 20.3226 9.67742C20.3226 13.9926 23.1358 17.7271 27.2303 18.9435ZM30 1.93548C34.2687 1.93548 37.7419 5.40871 37.7419 9.67742C37.7419 13.2765 35.2965 16.3703 31.7932 17.2016C31.4681 17.279 31.2058 17.519 31.0994 17.8365L30 21.1335L28.9006 17.8374C28.7952 17.52 28.5319 17.28 28.2068 17.2026C24.7035 16.3703 22.2581 13.2765 22.2581 9.67742C22.2581 5.40871 25.7313 1.93548 30 1.93548Z" fill="#32325C"/>
<path d="M30 15.4839C33.2023 15.4839 35.8064 12.8797 35.8064 9.67742C35.8064 6.47516 33.2023 3.87097 30 3.87097C26.7977 3.87097 24.1935 6.47516 24.1935 9.67742C24.1935 12.8797 26.7977 15.4839 30 15.4839ZM30 5.80645C32.1348 5.80645 33.871 7.54258 33.871 9.67742C33.871 11.8123 32.1348 13.5484 30 13.5484C27.8652 13.5484 26.129 11.8123 26.129 9.67742C26.129 7.54258 27.8652 5.80645 30 5.80645Z" fill="#32325C"/>
</svg>
