<svg width="60" height="60" viewBox="0 0 60 60" fill="none" xmlns="http://www.w3.org/2000/svg">
<path d="M55.1613 29.0323H54.1935V16.4516C54.1935 15.9165 53.76 15.4839 53.2258 15.4839H50.3226V4.83871C50.3226 2.17065 48.1519 0 45.4839 0H6.77419C4.10613 0 1.93548 2.17065 1.93548 4.83871V6.77419C1.93548 7.30935 2.36903 7.74194 2.90323 7.74194H9.67742V15.4839H6.77419C6.24 15.4839 5.80645 15.9165 5.80645 16.4516V29.0323H4.83871C2.17065 29.0323 0 31.2029 0 33.871V55.1613C0 57.8294 2.17065 60 4.83871 60H55.1613C57.8294 60 60 57.8294 60 55.1613V33.871C60 31.2029 57.8294 29.0323 55.1613 29.0323ZM5.80645 30.9677H54.1935V38.7097H5.80645V30.9677ZM48.3871 25.1613H11.6129V23.2258H48.3871V25.1613ZM48.3871 27.0968V29.0323H11.6129V27.0968H48.3871ZM52.2581 17.4194V29.0323H50.3226V17.4194H52.2581ZM3.87097 4.83871C3.87097 3.23806 5.17355 1.93548 6.77419 1.93548H41.6148C41.0071 2.74452 40.6452 3.75 40.6452 4.83871V5.80645H3.87097V4.83871ZM41.6129 7.74194C42.1471 7.74194 42.5806 7.30935 42.5806 6.77419V4.83871C42.5806 3.23806 43.8832 1.93548 45.4839 1.93548C47.0845 1.93548 48.3871 3.23806 48.3871 4.83871V21.2903H11.6129V19.3548H29.0323V17.4194H11.6129V15.4839H29.0323V13.5484H11.6129V7.74194H41.6129ZM7.74194 17.4194H9.67742V29.0323H7.74194V17.4194ZM54.1935 58.0645H5.80645V55.1613H54.1935V58.0645ZM58.0645 55.1613C58.0645 56.4213 57.2526 57.4858 56.129 57.8864V54.1935C56.129 53.6584 55.6955 53.2258 55.1613 53.2258H4.83871C4.30452 53.2258 3.87097 53.6584 3.87097 54.1935V57.8864C2.74742 57.4858 1.93548 56.4213 1.93548 55.1613V33.871C1.93548 32.611 2.74742 31.5464 3.87097 31.1458V39.6774C3.87097 40.2126 4.30452 40.6452 4.83871 40.6452H55.1613C55.6955 40.6452 56.129 40.2126 56.129 39.6774V31.1458C57.2526 31.5464 58.0645 32.611 58.0645 33.871V55.1613Z" fill="#32325C"/>
<path d="M53.2258 42.5806C51.6252 42.5806 50.3226 43.8832 50.3226 45.4839C50.3226 47.0845 51.6252 48.3871 53.2258 48.3871C54.8265 48.3871 56.129 47.0845 56.129 45.4839C56.129 43.8832 54.8265 42.5806 53.2258 42.5806ZM53.2258 46.4516C52.6926 46.4516 52.2581 46.0181 52.2581 45.4839C52.2581 44.9497 52.6926 44.5161 53.2258 44.5161C53.759 44.5161 54.1935 44.9497 54.1935 45.4839C54.1935 46.0181 53.759 46.4516 53.2258 46.4516Z" fill="#32325C"/>
<path d="M45.4839 42.5806C43.8832 42.5806 42.5806 43.8832 42.5806 45.4839C42.5806 47.0845 43.8832 48.3871 45.4839 48.3871C47.0845 48.3871 48.3871 47.0845 48.3871 45.4839C48.3871 43.8832 47.0845 42.5806 45.4839 42.5806ZM45.4839 46.4516C44.9506 46.4516 44.5161 46.0181 44.5161 45.4839C44.5161 44.9497 44.9506 44.5161 45.4839 44.5161C46.0171 44.5161 46.4516 44.9497 46.4516 45.4839C46.4516 46.0181 46.0171 46.4516 45.4839 46.4516Z" fill="#32325C"/>
<path d="M7.74194 32.9032H9.67742V34.8387H7.74194V32.9032Z" fill="#32325C"/>
<path d="M11.6129 32.9032H13.5484V34.8387H11.6129V32.9032Z" fill="#32325C"/>
<path d="M15.4839 32.9032H17.4194V34.8387H15.4839V32.9032Z" fill="#32325C"/>
</svg>
