<svg width="59" height="60" viewBox="0 0 59 60" fill="none" xmlns="http://www.w3.org/2000/svg">
<path d="M9.5134 46.6297V43.5484H7.61072V46.6297C6.50621 47.0303 5.70804 48.0948 5.70804 49.3548C5.70804 50.9555 6.98854 52.2581 8.56206 52.2581C10.1356 52.2581 11.4161 50.9555 11.4161 49.3548C11.4161 48.0948 10.6179 47.0303 9.5134 46.6297ZM8.56206 50.3226C8.03692 50.3226 7.61072 49.8881 7.61072 49.3548C7.61072 48.8216 8.03692 48.3871 8.56206 48.3871C9.0872 48.3871 9.5134 48.8216 9.5134 49.3548C9.5134 49.8881 9.0872 50.3226 8.56206 50.3226Z" fill="#32325C"/>
<path d="M8.56206 25.1613C10.1356 25.1613 11.4161 23.8587 11.4161 22.2581C11.4161 20.9981 10.6179 19.9335 9.5134 19.5329V16.4516H7.61072V19.5329C6.50621 19.9335 5.70804 20.9981 5.70804 22.2581C5.70804 23.8587 6.98854 25.1613 8.56206 25.1613ZM8.56206 21.2903C9.0872 21.2903 9.5134 21.7248 9.5134 22.2581C9.5134 22.7913 9.0872 23.2258 8.56206 23.2258C8.03692 23.2258 7.61072 22.7913 7.61072 22.2581C7.61072 21.7248 8.03692 21.2903 8.56206 21.2903Z" fill="#32325C"/>
<path d="M29.4915 46.6297V43.5484H27.5888V46.6297C26.4843 47.0303 25.6862 48.0948 25.6862 49.3548C25.6862 50.9555 26.9667 52.2581 28.5402 52.2581C30.1137 52.2581 31.3942 50.9555 31.3942 49.3548C31.3942 48.0948 30.596 47.0303 29.4915 46.6297ZM28.5402 50.3226C28.015 50.3226 27.5888 49.8881 27.5888 49.3548C27.5888 48.8216 28.015 48.3871 28.5402 48.3871C29.0653 48.3871 29.4915 48.8216 29.4915 49.3548C29.4915 49.8881 29.0653 50.3226 28.5402 50.3226Z" fill="#32325C"/>
<path d="M25.6862 22.2581C25.6862 23.8587 26.9667 25.1613 28.5402 25.1613C30.1137 25.1613 31.3942 23.8587 31.3942 22.2581C31.3942 20.9981 30.596 19.9335 29.4915 19.5329V16.4516H27.5888V19.5329C26.4843 19.9335 25.6862 20.9981 25.6862 22.2581ZM28.5402 21.2903C29.0653 21.2903 29.4915 21.7248 29.4915 22.2581C29.4915 22.7913 29.0653 23.2258 28.5402 23.2258C28.015 23.2258 27.5888 22.7913 27.5888 22.2581C27.5888 21.7248 28.015 21.2903 28.5402 21.2903Z" fill="#32325C"/>
<path d="M14.2701 3.87097H19.9781V5.80645H14.2701V3.87097Z" fill="#32325C"/>
<path d="M34.2482 3.87097H39.9563V5.80645H34.2482V3.87097Z" fill="#32325C"/>
<path d="M14.2701 30.9677H19.9781V32.9032H14.2701V30.9677Z" fill="#32325C"/>
<path d="M34.2482 30.9677H39.9563V32.9032H34.2482V30.9677Z" fill="#32325C"/>
<path d="M45.6643 32.9032C45.0164 32.9032 44.3847 32.9661 43.7616 33.0581V0.967742C43.7616 0.433548 43.3364 0 42.8103 0H2.85402C2.32793 0 1.90268 0.433548 1.90268 0.967742V54.1935H0.95134C0.425249 54.1935 0 54.6271 0 55.1613V59.0323C0 59.5664 0.425249 60 0.95134 60H44.713V59.9506C45.0288 59.9739 45.3427 60 45.6643 60C53.0086 60 58.9831 53.9226 58.9831 46.4516C58.9831 38.9806 53.0086 32.9032 45.6643 32.9032ZM32.3455 46.4516C32.3455 49.3297 33.2389 51.9968 34.7496 54.1935H23.7835V29.0323H41.8589V33.4742C36.365 35.1445 32.3455 40.3268 32.3455 46.4516ZM41.8589 27.0968H23.7835V1.93548H41.8589V27.0968ZM21.8808 1.93548V27.0968H3.80536V1.93548H21.8808ZM3.80536 29.0323H21.8808V54.1935H3.80536V29.0323ZM1.90268 58.0645V56.129H36.3612C37.1061 56.8703 37.9413 57.5158 38.8394 58.0645H1.90268ZM39.3674 56.129H51.9612C50.1546 57.3493 47.9913 58.0645 45.6643 58.0645C43.3373 58.0645 41.174 57.3493 39.3674 56.129ZM51.3723 48.3871V54.1935H39.9563V48.3871H51.3723ZM53.275 55.0829V47.4194C53.275 46.8852 52.8498 46.4516 52.3237 46.4516H51.3723V42.5806C51.3723 39.3784 48.8123 36.7742 45.6643 36.7742C42.5163 36.7742 39.9563 39.3784 39.9563 42.5806V44.5161H41.8589V42.5806C41.8589 40.4458 43.5656 38.7097 45.6643 38.7097C47.763 38.7097 49.4697 40.4458 49.4697 42.5806V46.4516H39.0049C38.4788 46.4516 38.0536 46.8852 38.0536 47.4194V55.0829C35.7247 52.9558 34.2482 49.8794 34.2482 46.4516C34.2482 40.0481 39.3693 34.8387 45.6643 34.8387C51.9593 34.8387 57.0804 40.0481 57.0804 46.4516C57.0804 49.8794 55.6039 52.9548 53.275 55.0829Z" fill="#32325C"/>
<path d="M44.713 50.3226H46.6156V52.2581H44.713V50.3226Z" fill="#32325C"/>
</svg>
