<svg width="60" height="60" viewBox="0 0 60 60" fill="none" xmlns="http://www.w3.org/2000/svg">
<path d="M35.8064 5.80645H24.1935C22.5929 5.80645 21.2903 7.10903 21.2903 8.70968C21.2903 10.3103 22.5929 11.6129 24.1935 11.6129H35.8064C36.3406 11.6129 36.7742 12.0474 36.7742 12.5806V15.4839H38.7097V12.5806C38.7097 10.98 37.4071 9.67742 35.8064 9.67742H24.1935C23.6594 9.67742 23.2258 9.2429 23.2258 8.70968C23.2258 8.17645 23.6594 7.74194 24.1935 7.74194H35.8064C37.4071 7.74194 38.7097 6.43935 38.7097 4.83871C38.7097 3.23806 37.4071 1.93548 35.8064 1.93548H24.1935C23.6594 1.93548 23.2258 1.50097 23.2258 0.967742V0H21.2903V0.967742C21.2903 2.56839 22.5929 3.87097 24.1935 3.87097H35.8064C36.3406 3.87097 36.7742 4.30548 36.7742 4.83871C36.7742 5.37194 36.3406 5.80645 35.8064 5.80645Z" fill="#32325C"/>
<path d="M50.6061 33.1868C50.4242 33.3677 50.3226 33.6145 50.3226 33.871V45.4839C50.3226 46.0181 50.7552 46.4516 51.2903 46.4516H59.0323C59.5674 46.4516 60 46.0181 60 45.4839V33.871C60 33.6145 59.8984 33.3677 59.7164 33.1868L56.129 29.5994V18.3871C56.129 14.6516 53.0894 11.6129 49.3548 11.6129C45.9494 11.6129 43.1303 14.1416 42.6581 17.4194H12.5806C12.0455 17.4194 11.6129 17.8529 11.6129 18.3871V21.2903H7.74194C3.47323 21.2903 0 24.7635 0 29.0323C0 33.301 3.47323 36.7742 7.74194 36.7742H12.2806C13.6732 41.8665 17.1968 46.0742 21.8381 48.3871H0.967742C0.432581 48.3871 0 48.8206 0 49.3548V51.2903C0 53.9584 2.17065 56.129 4.83871 56.129H6.77419V59.0323C6.77419 59.5664 7.20677 60 7.74194 60H52.2581C52.7932 60 53.2258 59.5664 53.2258 59.0323V56.129H55.1613C57.8294 56.129 60 53.9584 60 51.2903V49.3548C60 48.8206 59.5674 48.3871 59.0323 48.3871H38.1619C44.2113 45.3735 48.3871 39.1403 48.3871 31.9355V18.3871C48.3871 17.8529 47.9545 17.4194 47.4194 17.4194H44.6139C45.0639 15.2139 47.0177 13.5484 49.3548 13.5484C52.0229 13.5484 54.1935 15.719 54.1935 18.3871V29.5994L50.6061 33.1868ZM7.74194 34.8387C4.53968 34.8387 1.93548 32.2345 1.93548 29.0323C1.93548 25.83 4.53968 23.2258 7.74194 23.2258H11.6129V31.9355C11.6129 32.9255 11.7135 33.8903 11.8655 34.8387H7.74194ZM51.2903 58.0645H8.70968V56.129H51.2903V58.0645ZM58.0645 50.3226V51.2903C58.0645 52.891 56.7619 54.1935 55.1613 54.1935H4.83871C3.23806 54.1935 1.93548 52.891 1.93548 51.2903V50.3226H58.0645ZM46.4516 31.9355C46.4516 41.0071 39.0716 48.3871 30 48.3871C20.9284 48.3871 13.5484 41.0071 13.5484 31.9355V19.3548H46.4516V31.9355ZM58.0645 34.2716V44.5161H52.2581V34.2716L54.1935 32.3361V35.8064H56.129V32.3361L58.0645 34.2716Z" fill="#32325C"/>
<path d="M23.2258 36.7742C24.3252 36.7742 25.3074 36.57 26.1019 36.2264C25.4874 38.5984 25.1613 41.0564 25.1613 43.5484H27.0968C27.0968 41.4474 27.3484 39.3735 27.8187 37.3596C28.6548 38.1803 30.1471 38.7096 31.9355 38.7096C34.6945 38.7096 36.7742 37.4613 36.7742 35.8064C36.7742 34.1516 34.6945 32.9032 31.9355 32.9032C30.8284 32.9032 29.8403 33.1113 29.0419 33.4587C29.8297 31.4806 30.8487 29.5974 32.0777 27.8496C32.5123 29.099 33.9871 30 35.8064 30C37.9771 30 39.6774 28.7245 39.6774 27.0967C39.6774 25.469 37.9771 24.1935 35.8064 24.1935C35.5645 24.1935 35.3303 24.2148 35.1019 24.2448C35.4348 23.9119 35.7774 23.5867 36.1287 23.2703L36.4548 22.9761L35.1581 21.539L34.8329 21.8322C33.7742 22.7845 32.7997 23.8122 31.9006 24.8961C31.7255 23.4 30.1142 22.258 28.0645 22.258C25.8939 22.258 24.1935 23.5335 24.1935 25.1613C24.1935 26.789 25.8939 28.0645 28.0645 28.0645C28.6984 28.0645 29.2839 27.9455 29.8074 27.75C28.8639 29.218 28.0616 30.7693 27.3958 32.3777C26.5723 31.5242 25.0568 30.9677 23.2258 30.9677C20.4668 30.9677 18.3871 32.2161 18.3871 33.8709C18.3871 35.5258 20.4668 36.7742 23.2258 36.7742ZM31.9355 34.8387C33.809 34.8387 34.8387 35.5655 34.8387 35.8064C34.8387 36.0474 33.809 36.7742 31.9355 36.7742C30.0619 36.7742 29.0323 36.0474 29.0323 35.8064C29.0323 35.5655 30.0619 34.8387 31.9355 34.8387ZM26.129 25.1613C26.129 24.7664 26.8829 24.1935 28.0645 24.1935C29.2461 24.1935 30 24.7664 30 25.1613C30 25.5561 29.2461 26.129 28.0645 26.129C26.8829 26.129 26.129 25.5561 26.129 25.1613ZM37.7419 27.0967C37.7419 27.4916 36.9881 28.0645 35.8064 28.0645C34.6248 28.0645 33.871 27.4916 33.871 27.0967C33.871 26.7019 34.6248 26.129 35.8064 26.129C36.9881 26.129 37.7419 26.7019 37.7419 27.0967ZM23.2258 32.9032C25.0994 32.9032 26.129 33.63 26.129 33.8709C26.129 34.1119 25.0994 34.8387 23.2258 34.8387C21.3523 34.8387 20.3226 34.1119 20.3226 33.8709C20.3226 33.63 21.3523 32.9032 23.2258 32.9032Z" fill="#32325C"/>
</svg>
