<svg width="24" height="15" viewBox="0 0 24 15" fill="none" xmlns="http://www.w3.org/2000/svg">
<path d="M12.145 15C15.617 15 14.379 12.802 14.647 12.17C14.643 11.698 14.639 11.244 14.655 10.968C14.875 11.03 15.394 11.293 16.466 12.335C18.121 14.005 18.544 15 19.881 15H22.342C23.122 15 23.528 14.677 23.731 14.406C23.927 14.144 24.119 13.684 23.909 12.968C23.36 11.244 20.158 8.267 19.959 7.953C19.989 7.895 20.037 7.818 20.062 7.778H20.06C20.692 6.943 23.104 3.329 23.459 1.883C23.46 1.881 23.461 1.878 23.461 1.875C23.653 1.215 23.477 0.787 23.295 0.545C23.021 0.183 22.585 0 21.996 0H19.535C18.711 0 18.086 0.415 17.77 1.172C17.241 2.517 15.755 5.283 14.641 6.262C14.607 4.875 14.63 3.816 14.648 3.029C14.684 1.494 14.8 0 13.207 0H9.339C8.341 0 7.386 1.09 8.42 2.384C9.324 3.518 8.745 4.15 8.94 7.296C8.18 6.481 6.828 4.28 5.872 1.467C5.604 0.706 5.198 0.000999928 4.055 0.000999928H1.594C0.596 0.000999928 0 0.545 0 1.456C0 3.502 4.529 15 12.145 15ZM4.055 1.501C4.272 1.501 4.294 1.501 4.455 1.958C5.434 4.841 7.63 9.107 9.234 9.107C10.439 9.107 10.439 7.872 10.439 7.407L10.438 3.705C10.372 2.48 9.926 1.87 9.633 1.5L13.141 1.504C13.143 1.521 13.121 5.599 13.151 6.587C13.151 7.99 14.265 8.794 16.004 7.034C17.839 4.963 19.108 1.867 19.159 1.741C19.234 1.561 19.299 1.5 19.535 1.5H22.006C22.005 1.503 22.005 1.506 22.004 1.509C21.779 2.559 19.558 5.905 18.815 6.944C18.803 6.96 18.792 6.977 18.781 6.994C18.454 7.528 18.188 8.118 18.826 8.948H18.827C18.885 9.018 19.036 9.182 19.256 9.41C19.94 10.116 22.286 12.53 22.494 13.49C22.356 13.512 22.206 13.496 19.881 13.501C19.386 13.501 18.999 12.761 17.522 11.271C16.194 9.979 15.332 9.451 14.547 9.451C13.023 9.451 13.134 10.688 13.148 12.184C13.153 13.806 13.143 13.293 13.154 13.395C13.065 13.43 12.81 13.5 12.145 13.5C5.8 13.5 1.668 3.429 1.509 1.504C1.564 1.499 2.321 1.502 4.055 1.501Z" fill="#32325C" fill-opacity="0.8"/>
</svg>
