<svg width="20" height="20" viewBox="0 0 20 20" fill="none" xmlns="http://www.w3.org/2000/svg">
<path d="M10.1973 20C10.131 20 10.0648 20 9.99812 19.9997C8.43037 20.0035 6.98179 19.9637 5.57304 19.8779C4.28149 19.7993 3.10254 19.353 2.16348 18.5873C1.25738 17.8485 0.638606 16.8495 0.324415 15.6184C0.0509665 14.5466 0.03647 13.4945 0.0225839 12.4769C0.0125127 11.7468 0.00213632 10.8816 0 10.0018C0.00213632 9.11832 0.0125127 8.25314 0.0225839 7.52301C0.03647 6.50555 0.0509665 5.45345 0.324415 4.38152C0.638606 3.15043 1.25738 2.15144 2.16348 1.41261C3.10254 0.646918 4.28149 0.200598 5.5732 0.122015C6.98194 0.0364125 8.43083 -0.00356564 10.0019 0.000249068C11.5701 -0.00310788 13.0183 0.0364125 14.427 0.122015C15.7186 0.200598 16.8975 0.646918 17.8366 1.41261C18.7428 2.15144 19.3614 3.15043 19.6756 4.38152C19.9491 5.4533 19.9636 6.50555 19.9775 7.52301C19.9875 8.25314 19.9981 9.11832 20.0001 9.99814V10.0018C19.9981 10.8816 19.9875 11.7468 19.9775 12.4769C19.9636 13.4944 19.9492 14.5465 19.6756 15.6184C19.3614 16.8495 18.7428 17.8485 17.8366 18.5873C16.8975 19.353 15.7186 19.7993 14.427 19.8779C13.0779 19.96 11.6921 20 10.1973 20ZM9.99812 18.4372C11.5404 18.4409 12.9565 18.4019 14.3321 18.3183C15.3087 18.259 16.1554 17.942 16.8491 17.3764C17.4903 16.8535 17.9319 16.132 18.1616 15.2321C18.3893 14.3399 18.4024 13.3819 18.4151 12.4556C18.425 11.7303 18.4354 10.8713 18.4375 9.99997C18.4354 9.12854 18.425 8.26962 18.4151 7.54437C18.4024 6.618 18.3893 5.66005 18.1616 4.76772C17.9319 3.86775 17.4903 3.14631 16.8491 2.62339C16.1554 2.0579 15.3087 1.74098 14.3321 1.68162C12.9565 1.59785 11.5404 1.55924 10.0018 1.5626C8.45982 1.55894 7.04359 1.59785 5.66796 1.68162C4.69135 1.74098 3.84461 2.0579 3.15092 2.62339C2.50972 3.14631 2.06811 3.86775 1.83845 4.76772C1.61078 5.66005 1.59766 6.61785 1.585 7.54437C1.57508 8.27023 1.5647 9.12976 1.56256 10.0018C1.5647 10.87 1.57508 11.7297 1.585 12.4556C1.59766 13.3819 1.61078 14.3399 1.83845 15.2321C2.06811 16.132 2.50972 16.8535 3.15092 17.3764C3.84461 17.9419 4.69135 18.2588 5.66796 18.3182C7.04359 18.4019 8.46012 18.441 9.99812 18.4372ZM9.96089 14.8828C7.26852 14.8828 5.07788 12.6924 5.07788 9.99997C5.07788 7.30755 7.26852 5.11715 9.96089 5.11715C12.6534 5.11715 14.8439 7.30755 14.8439 9.99997C14.8439 12.6924 12.6534 14.8828 9.96089 14.8828ZM9.96089 6.67965C8.13006 6.67965 6.64044 8.16922 6.64044 9.99997C6.64044 11.8307 8.13006 13.3203 9.96089 13.3203C11.7919 13.3203 13.2813 11.8307 13.2813 9.99997C13.2813 8.16922 11.7919 6.67965 9.96089 6.67965ZM15.3908 3.55464C14.7436 3.55464 14.2189 4.07924 14.2189 4.72652C14.2189 5.3738 14.7436 5.8984 15.3908 5.8984C16.0381 5.8984 16.5627 5.3738 16.5627 4.72652C16.5627 4.07924 16.0381 3.55464 15.3908 3.55464Z" fill="#32325C" fill-opacity="0.9"/>
</svg>
