<svg width="12" height="20" viewBox="0 0 12 20" fill="none" xmlns="http://www.w3.org/2000/svg">
<path d="M6 0C2.6856 0 0 2.69506 0 6.03335C0 11.8055 6 19.3333 6 19.3333C6 19.3333 12 11.8043 12 6.03335C12 2.69627 9.3144 0 6 0ZM6 9.37165C5.1407 9.37165 4.31659 9.02771 3.70897 8.41549C3.10136 7.80327 2.76 6.97292 2.76 6.10711C2.76 5.2413 3.10136 4.41095 3.70897 3.79873C4.31659 3.18651 5.1407 2.84257 6 2.84257C6.8593 2.84257 7.68341 3.18651 8.29103 3.79873C8.89864 4.41095 9.24 5.2413 9.24 6.10711C9.24 6.97292 8.89864 7.80327 8.29103 8.41549C7.68341 9.02771 6.8593 9.37165 6 9.37165Z" fill="#32325C"/>
</svg>
