<svg width="16" height="16" viewBox="0 0 16 16" fill="none" xmlns="http://www.w3.org/2000/svg">
<path d="M15.7059 12.5332L12.055 9.21369C11.8824 9.05684 11.6557 8.97318 11.4226 8.98038C11.1895 8.98759 10.9683 9.08509 10.8057 9.25231L8.65648 11.4626C8.13915 11.3638 7.09911 11.0396 6.02854 9.97172C4.95796 8.90024 4.63373 7.85751 4.53763 7.34378L6.74615 5.19364C6.91357 5.03119 7.01122 4.80998 7.01843 4.57681C7.02563 4.34364 6.94184 4.11681 6.78477 3.94433L3.46616 0.294312C3.30902 0.121292 3.09063 0.0163428 2.85736 0.00175297C2.62409 -0.0128368 2.39432 0.0640823 2.21685 0.216174L0.267898 1.8876C0.11262 2.04344 0.01994 2.25085 0.00743831 2.47049C-0.00603371 2.69503 -0.2629 8.01378 3.86134 12.1398C7.45927 15.7368 11.9661 16 13.2073 16C13.3888 16 13.5001 15.9946 13.5298 15.9928C13.7494 15.9805 13.9567 15.8874 14.1118 15.7315L15.7823 13.7816C15.935 13.6047 16.0125 13.3751 15.9982 13.1419C15.9839 12.9086 15.8791 12.6902 15.7059 12.5332Z" fill="#32325C"/>
</svg>
