<svg width="24" height="20" viewBox="0 0 24 20" fill="none" xmlns="http://www.w3.org/2000/svg">
<path d="M23.2838 0.54755C22.9949 0.19442 22.5623 0 22.0654 0C21.7953 0 21.5091 0.056811 21.215 0.169171L1.19663 7.80764C0.134275 8.21289 -0.00880381 8.82104 0.000397971 9.14747C0.00959975 9.47391 0.18696 10.073 1.27061 10.4177C1.2771 10.4197 1.2836 10.4217 1.29009 10.4235L5.44244 11.6113L7.68804 18.03C7.99423 18.9051 8.68147 19.4487 9.48185 19.4487C9.98651 19.4487 10.4829 19.2373 10.9173 18.8376L13.4857 16.4737L17.211 19.4721C17.2114 19.4725 17.2119 19.4726 17.2123 19.473L17.2476 19.5015C17.2509 19.504 17.2543 19.5067 17.2575 19.5093C17.6716 19.8303 18.1236 19.9998 18.5651 20H18.5653C19.4279 20 20.1148 19.3617 20.3149 18.3741L23.5949 2.18497C23.7266 1.53516 23.6162 0.953704 23.2838 0.54755ZM6.83155 11.3856L14.8427 7.29471L9.85443 12.5929C9.7727 12.6797 9.71478 12.7859 9.68627 12.9015L8.72442 16.796L6.83155 11.3856ZM9.97857 17.8186C9.94537 17.8491 9.91199 17.8764 9.87861 17.9014L10.771 14.2886L12.3943 15.5953L9.97857 17.8186ZM22.2368 1.90993L18.9568 18.0993C18.9252 18.2542 18.8244 18.6147 18.5651 18.6147C18.437 18.6147 18.2761 18.5449 18.1113 18.4181L13.89 15.0206C13.8895 15.0201 13.8888 15.0196 13.8881 15.0192L11.3763 12.9975L18.59 5.33555C18.8209 5.09027 18.8419 4.71459 18.6396 4.44515C18.4372 4.1757 18.0704 4.09093 17.7703 4.24423L5.90578 10.303L1.69696 9.09932L21.7092 1.4632C21.8783 1.39863 21.9963 1.38511 22.0654 1.38511C22.1078 1.38511 22.1832 1.39016 22.2112 1.4246C22.248 1.46951 22.2949 1.62263 22.2368 1.90993Z" fill="#32325C"/>
</svg>
