<svg width="29" height="18" viewBox="0 0 29 18" fill="none" xmlns="http://www.w3.org/2000/svg">
<path d="M14.8179 17.5C18.8686 17.5 17.4242 14.9357 17.7369 14.1983C17.7322 13.6477 17.7276 13.118 17.7462 12.796C18.0029 12.8683 18.6084 13.1752 19.859 14.3908C21.7899 16.3392 22.2834 17.5 23.8432 17.5H26.7143C27.6243 17.5 28.098 17.1232 28.3348 16.807C28.5635 16.5013 28.7875 15.9647 28.5425 15.1293C27.902 13.118 24.1663 9.64483 23.9342 9.2785C23.9692 9.21083 24.0252 9.121 24.0543 9.07433H24.052C24.7893 8.10017 27.6033 3.88383 28.0175 2.19683C28.0186 2.1945 28.0198 2.191 28.0198 2.1875C28.2438 1.4175 28.0385 0.918167 27.8261 0.635833C27.5065 0.2135 26.9978 0 26.3106 0H23.4395C22.4782 0 21.749 0.484167 21.3804 1.36733C20.7632 2.9365 19.0296 6.1635 17.7299 7.30567C17.6902 5.6875 17.7171 4.452 17.7381 3.53383C17.7801 1.743 17.9154 0 16.0569 0H11.5443C10.38 0 9.26583 1.27167 10.4722 2.78133C11.5268 4.10433 10.8513 4.84167 11.0788 8.512C10.1922 7.56117 8.61484 4.99333 7.49952 1.7115C7.18685 0.823667 6.71319 0.00116658 5.37971 0.00116658H2.50857C1.34425 0.00116658 0.648926 0.635833 0.648926 1.69867C0.648926 4.08567 5.9327 17.5 14.8179 17.5ZM5.37971 1.75117C5.63287 1.75117 5.65854 1.75117 5.84637 2.28433C6.98852 5.64783 9.5505 10.6248 11.4218 10.6248C12.8276 10.6248 12.8276 9.184 12.8276 8.6415L12.8265 4.3225C12.7495 2.89333 12.2291 2.18167 11.8873 1.75L15.9799 1.75467C15.9823 1.7745 15.9566 6.53217 15.9916 7.68483C15.9916 9.32167 17.2912 10.2597 19.3201 8.20633C21.4609 5.79017 22.9413 2.17817 23.0008 2.03117C23.0883 1.82117 23.1642 1.75 23.4395 1.75H26.3223C26.3211 1.7535 26.3211 1.757 26.32 1.7605C26.0575 2.9855 23.4663 6.88917 22.5995 8.10133C22.5855 8.12 22.5727 8.13983 22.5599 8.15967C22.1784 8.78267 21.868 9.471 22.6124 10.4393H22.6135C22.6812 10.521 22.8573 10.7123 23.114 10.9783C23.912 11.802 26.649 14.6183 26.8916 15.7383C26.7306 15.764 26.5556 15.7453 23.8432 15.7512C23.2657 15.7512 22.8142 14.8878 21.091 13.1495C19.5417 11.6422 18.5361 11.0262 17.6202 11.0262C15.8423 11.0262 15.9718 12.4693 15.9881 14.2147C15.9939 16.107 15.9823 15.5085 15.9951 15.6275C15.8913 15.6683 15.5938 15.75 14.8179 15.75C7.41552 15.75 2.5949 4.0005 2.40941 1.75467C2.47357 1.74883 3.35673 1.75233 5.37971 1.75117Z" fill="#32325C"/>
</svg>
