<svg width="20" height="20" viewBox="0 0 20 20" fill="none" xmlns="http://www.w3.org/2000/svg">
<path d="M4.83719 18.5728C6.38245 19.5027 8.14926 19.9928 9.9646 19.9928C15.4655 19.9928 20 15.504 20 9.99634C20 4.49509 15.472 0 9.9646 0C4.47403 0 0.00717164 4.48441 0.00717164 9.99634C0.00717164 11.8359 0.497437 13.6162 1.42715 15.1627L0 20L4.83719 18.5728ZM1.17874 9.99634C1.17874 5.13031 5.12009 1.17142 9.9646 1.17142C14.8521 1.17142 18.8286 5.13031 18.8286 9.99634C18.8286 14.8625 14.8521 18.8213 9.9646 18.8213C8.28278 18.8213 6.64841 18.3449 5.23865 17.4434L5.01343 17.2995L1.73264 18.2675L2.7005 14.9866L2.55661 14.7615C1.65512 13.3514 1.17874 11.7038 1.17874 9.99634Z" fill="#32325C"/>
<path d="M4.86832 8.15445C5.0618 9.17053 5.63614 11.1249 7.30835 12.7971C8.98056 14.4693 10.9349 15.0438 11.9511 15.2373C13.1148 15.4588 14.8224 15.4922 15.6569 14.6577L16.1221 14.1925C16.357 13.9577 16.4864 13.6453 16.4864 13.3131C16.4864 12.981 16.357 12.6688 16.1221 12.4339L14.2616 10.5734C14.0266 10.3384 13.7144 10.2092 13.3823 10.2092C13.0501 10.2092 12.7379 10.3384 12.5029 10.5734L12.0378 11.0385C11.7537 11.3226 11.2173 11.3239 10.9311 11.042L9.07532 9.10843C9.07257 9.10553 9.06982 9.10263 9.06693 9.09988C8.78235 8.81531 8.78235 8.3522 9.06693 8.06763L9.53201 7.60254C10.0182 7.11639 10.0182 6.3298 9.53201 5.84381L7.67151 3.98331C7.18674 3.49854 6.39786 3.49854 5.91293 3.98331L5.44785 4.44855V4.44839C4.7818 5.11459 4.55978 6.53458 4.86832 8.15445ZM6.27625 5.27695C6.76453 4.7998 6.73843 4.79065 6.7923 4.79065C6.81076 4.79065 6.82922 4.79767 6.84326 4.81171C8.80371 6.78268 8.72498 6.66687 8.72498 6.72333C8.72498 6.74301 8.7178 6.76025 8.70392 6.77429L8.23868 7.23938C7.49786 7.98019 7.49496 9.17938 8.23395 9.92355L10.0908 11.8584C10.0937 11.8611 10.0964 11.864 10.0993 11.8669C10.84 12.6076 12.1231 12.61 12.8662 11.8669L13.3313 11.4018C13.3594 11.3737 13.4052 11.3737 13.4332 11.4018C15.3937 13.3727 15.3149 13.2568 15.3149 13.3133C15.3149 13.3331 15.3078 13.3502 15.2939 13.3643L14.8286 13.8293C14.5099 14.1481 13.4946 14.3388 12.1703 14.0866C11.2865 13.9182 9.5871 13.4192 8.13675 11.9688C6.6864 10.5185 6.18744 8.81912 6.01913 7.93533C5.76675 6.61102 5.95749 5.59555 6.27625 5.27695Z" fill="#32325C"/>
</svg>
