<svg width="27" height="20" viewBox="0 0 27 20" fill="none" xmlns="http://www.w3.org/2000/svg">
<path d="M11.3847 5.51844C10.8479 5.19728 10.1598 5.58549 10.1598 6.21484V13.7844C10.1598 14.4169 10.849 14.7997 11.3847 14.4818L17.7242 10.7025C18.2514 10.3878 18.2503 9.62436 17.7253 9.30861L11.3847 5.51844ZM11.7801 12.358V7.64331L15.7281 10.0039L11.7801 12.358Z" fill="#32325C"/>
<path d="M22.1486 0.560414C17.1226 -0.186805 10.1015 -0.186805 5.0733 0.560414C3.06202 0.858869 1.47742 2.43982 1.13176 4.49224C0.487981 8.30186 0.487981 11.6984 1.13176 15.507C1.47742 17.5605 3.06202 19.1403 5.0733 19.4388C7.59225 19.8129 10.6081 20 13.6228 20C16.6322 20 19.6405 19.814 22.1497 19.4399C24.1588 19.1414 25.7423 17.5615 26.0901 15.508C26.7339 11.6984 26.7339 8.30078 26.0901 4.49115C25.7445 2.43982 24.1599 0.858869 22.1486 0.560414ZM24.4926 15.2377C24.2625 16.5959 23.2255 17.6405 21.911 17.8351C17.0308 18.5607 10.2041 18.5607 5.31093 17.834C3.99529 17.6383 2.95725 16.5948 2.72825 15.2366C2.10823 11.5665 2.10823 8.43379 2.72825 4.76149C2.95833 3.40331 3.99529 2.36088 5.31201 2.16407C7.75536 1.80181 10.6837 1.62015 13.6099 1.62015C16.5382 1.62015 19.4665 1.80181 21.9099 2.16407C23.2255 2.3598 24.2636 3.40331 24.4926 4.76149C25.1126 8.43379 25.1126 11.5665 24.4926 15.2377Z" fill="#32325C"/>
</svg>
